<svg id="svg8" xmlns="http://www.w3.org/2000/svg" xmlns:xlink="http://www.w3.org/1999/xlink" viewBox="0 0 391.118 105.168"><defs><style>.cls-1,.cls-6{fill:none;}.cls-2{isolation:isolate;}.cls-3,.cls-4{fill-rule:evenodd;}.cls-3{fill:url(#linear-gradient);}.cls-4{fill:url(#linear-gradient-2);}.cls-5{fill:#fff;}.cls-6{stroke:#fff;stroke-miterlimit:3;stroke-width:3.75px;}.cls-7{fill:red;}</style><linearGradient id="linear-gradient" x1="-368.144" y1="-631.338" x2="-269.236" y2="-730.26" gradientTransform="matrix(0.749, 0, 0, -0.749, 300.973, -445.843)" gradientUnits="userSpaceOnUse"><stop offset="0"/><stop offset="1" stop-color="#fff"/></linearGradient><linearGradient id="linear-gradient-2" x1="-264.69" y1="-725.715" x2="-363.598" y2="-626.793" xlink:href="#linear-gradient"/></defs><title>da-logo-with-outlines</title><rect class="cls-1" x="123.318" y="7.247" width="267.8" height="94.6"/><g class="cls-2"><g class="cls-2"><path d="M139.219,52.564V17.284h7.968a13.347,13.347,0,0,1,3.792.552,8.347,8.347,0,0,1,3.312,1.872,10.821,10.821,0,0,1,2.328,3.048,12.287,12.287,0,0,1,1.2,3.648,23.9,23.9,0,0,1,.312,3.84V39.6a23.894,23.894,0,0,1-.312,3.84,12.278,12.278,0,0,1-1.2,3.648,10.821,10.821,0,0,1-2.328,3.048,8.323,8.323,0,0,1-3.312,1.872,13.347,13.347,0,0,1-3.792.552Zm4.464-4.032h3.5a6.657,6.657,0,0,0,2.424-.456,4.821,4.821,0,0,0,1.992-1.44,7.918,7.918,0,0,0,1.272-2.136,10.238,10.238,0,0,0,.624-2.4,18.689,18.689,0,0,0,.168-2.5v-9.36a18.711,18.711,0,0,0-.168-2.5,10.25,10.25,0,0,0-.624-2.4,7.933,7.933,0,0,0-1.272-2.136,4.83,4.83,0,0,0-1.992-1.44,6.657,6.657,0,0,0-2.424-.456h-3.5Z" transform="translate(-7 -10)"/><path d="M172.579,52.948a13.932,13.932,0,0,1-3.144-.36,8.293,8.293,0,0,1-2.88-1.272,7.786,7.786,0,0,1-2.184-2.28,8.967,8.967,0,0,1-1.2-2.928,14.884,14.884,0,0,1-.336-3.144v-6.24a13.979,13.979,0,0,1,.552-3.888,8.393,8.393,0,0,1,1.92-3.408A7.389,7.389,0,0,1,168.6,27.34a12.9,12.9,0,0,1,7.776,0,7.4,7.4,0,0,1,3.288,2.088,8.416,8.416,0,0,1,1.92,3.408,14.053,14.053,0,0,1,.552,3.888V41.86H167.3v1.1a8.9,8.9,0,0,0,.288,2.256,5.376,5.376,0,0,0,.984,1.992,4,4,0,0,0,1.775,1.3,6.274,6.274,0,0,0,2.233.408,8.728,8.728,0,0,0,2.208-.288,3.779,3.779,0,0,0,1.9-1.176,3.379,3.379,0,0,0,.888-1.992h4.463a7.93,7.93,0,0,1-.887,3.216,6.918,6.918,0,0,1-2.184,2.52,8.6,8.6,0,0,1-3.048,1.368A14.722,14.722,0,0,1,172.579,52.948Zm-5.28-15.12h10.368v-1.1a9.518,9.518,0,0,0-.264-2.208,5.364,5.364,0,0,0-.96-2.016,3.956,3.956,0,0,0-1.776-1.32,6.049,6.049,0,0,0-4.368,0,3.945,3.945,0,0,0-1.776,1.32,5.3,5.3,0,0,0-.96,2.016,9.464,9.464,0,0,0-.264,2.208Z" transform="translate(-7 -10)"/><path d="M196.387,52.948a13.627,13.627,0,0,1-3.12-.36,7.847,7.847,0,0,1-2.832-1.3,7.935,7.935,0,0,1-2.136-2.3,8.867,8.867,0,0,1-1.152-2.9,15.561,15.561,0,0,1-.312-3.12v-6.24a15.553,15.553,0,0,1,.312-3.12,8.884,8.884,0,0,1,1.152-2.9,7.99,7.99,0,0,1,4.968-3.6,13.625,13.625,0,0,1,6.7.12,7.874,7.874,0,0,1,5.208,4.7,9.72,9.72,0,0,1,.672,3.552h-4.464A5.053,5.053,0,0,0,200.731,33a3.83,3.83,0,0,0-1.848-1.7,6.134,6.134,0,0,0-2.5-.528,5.649,5.649,0,0,0-2.16.432,3.977,3.977,0,0,0-1.728,1.344,5.534,5.534,0,0,0-.936,1.992,9.165,9.165,0,0,0-.264,2.184v6.24a9.159,9.159,0,0,0,.264,2.184,5.526,5.526,0,0,0,.936,1.992,3.962,3.962,0,0,0,1.728,1.344,5.649,5.649,0,0,0,2.16.432,6.117,6.117,0,0,0,2.5-.528,3.82,3.82,0,0,0,1.848-1.7,5.05,5.05,0,0,0,.648-2.472h4.464a9.421,9.421,0,0,1-1.1,4.416,7.185,7.185,0,0,1-3.192,3.168,10.621,10.621,0,0,1-4.392,1.152Z" transform="translate(-7 -10)"/><path d="M218.707,52.564a10.535,10.535,0,0,1-3-.432,6.38,6.38,0,0,1-2.592-1.488,5.906,5.906,0,0,1-1.608-2.52,9.536,9.536,0,0,1-.48-3V21.316h-6.144V17.284h10.656v27.84a4.717,4.717,0,0,0,.336,1.728,2.3,2.3,0,0,0,1.152,1.272,3.712,3.712,0,0,0,1.68.408h3.408v4.032Z" transform="translate(-7 -10)"/><path d="M232.339,52.948a8.992,8.992,0,0,1-2.905-.48,5.523,5.523,0,0,1-2.423-1.632,6.4,6.4,0,0,1-1.392-2.592,11.365,11.365,0,0,1-.384-2.952,9.467,9.467,0,0,1,.48-2.976,5.921,5.921,0,0,1,1.608-2.52,9,9,0,0,1,2.544-1.68,11.161,11.161,0,0,1,2.928-.84,21.191,21.191,0,0,1,3-.216h3.887V35.236a5.534,5.534,0,0,0-.311-1.848,3.527,3.527,0,0,0-1.032-1.513,4.03,4.03,0,0,0-1.657-.863,7.417,7.417,0,0,0-4.079.1,3.7,3.7,0,0,0-1.824,1.272,3.267,3.267,0,0,0-.744,2.088h-4.464a7.686,7.686,0,0,1,.744-3.312,6.876,6.876,0,0,1,2.112-2.616,7.939,7.939,0,0,1,3.047-1.416,15.11,15.11,0,0,1,3.361-.384,15.637,15.637,0,0,1,2.856.264,8.368,8.368,0,0,1,2.664.984,7.539,7.539,0,0,1,2.159,1.872,6.807,6.807,0,0,1,1.273,2.544,11.271,11.271,0,0,1,.36,2.832V52.564h-4.465V48.772l-.095.1Q237.523,52.948,232.339,52.948Zm1.728-4.032a8.642,8.642,0,0,0,2.112-.264,4.742,4.742,0,0,0,1.9-.96,4.053,4.053,0,0,0,1.224-1.7,5.752,5.752,0,0,0,.383-2.064V41.092H235.8a12.671,12.671,0,0,0-2.04.168,6.929,6.929,0,0,0-1.992.648,3.623,3.623,0,0,0-1.512,1.392,3.734,3.734,0,0,0,.048,3.984,2.955,2.955,0,0,0,1.656,1.3A6.927,6.927,0,0,0,234.067,48.916Z" transform="translate(-7 -10)"/><path d="M249.811,52.564V48.532h3.648V31.156h-3.648V27.124h8.112v5.664q1.68-6.048,6.336-6.048a8.089,8.089,0,0,1,1.968.24,2.851,2.851,0,0,1,1.584,1.032,4.949,4.949,0,0,1,.888,1.752,10.106,10.106,0,0,1,.336,1.944q.072.984.072,1.944h-4.465a7.816,7.816,0,0,0-.071-1.056,2.92,2.92,0,0,0-.336-1.008,1.336,1.336,0,0,0-.768-.648,3.273,3.273,0,0,0-1.033-.168,3.416,3.416,0,0,0-1.871.552,3.86,3.86,0,0,0-1.344,1.44,8.732,8.732,0,0,0-.745,1.848,16.628,16.628,0,0,0-.407,1.92,19.191,19.191,0,0,0-.144,2.544v9.456h4.416v4.032Z" transform="translate(-7 -10)"/><path d="M279.859,52.948a8.982,8.982,0,0,1-2.9-.48,5.526,5.526,0,0,1-2.424-1.632,6.4,6.4,0,0,1-1.393-2.592,11.45,11.45,0,0,1-.383-2.952,9.5,9.5,0,0,1,.48-2.976,5.931,5.931,0,0,1,1.608-2.52,9,9,0,0,1,2.544-1.68,11.161,11.161,0,0,1,2.928-.84,21.191,21.191,0,0,1,3-.216H287.2V35.236a5.535,5.535,0,0,0-.313-1.848,3.517,3.517,0,0,0-1.031-1.513,4.026,4.026,0,0,0-1.656-.863,7.421,7.421,0,0,0-4.08.1A3.7,3.7,0,0,0,278.3,32.38a3.273,3.273,0,0,0-.744,2.088h-4.464a7.7,7.7,0,0,1,.744-3.312,6.9,6.9,0,0,1,2.112-2.616A7.943,7.943,0,0,1,279,27.124a15.088,15.088,0,0,1,3.36-.384,15.645,15.645,0,0,1,2.856.264,8.368,8.368,0,0,1,2.664.984,7.543,7.543,0,0,1,2.16,1.872,6.8,6.8,0,0,1,1.271,2.544,11.227,11.227,0,0,1,.361,2.832V52.564H287.2V48.772l-.1.1Q285.042,52.948,279.859,52.948Zm1.728-4.032a8.63,8.63,0,0,0,2.112-.264,4.742,4.742,0,0,0,1.9-.96,4.071,4.071,0,0,0,1.224-1.7,5.753,5.753,0,0,0,.384-2.064V41.092h-3.888a12.68,12.68,0,0,0-2.04.168,6.949,6.949,0,0,0-1.992.648,3.623,3.623,0,0,0-1.512,1.392,3.734,3.734,0,0,0,.048,3.984,2.952,2.952,0,0,0,1.655,1.3A6.943,6.943,0,0,0,281.587,48.916Z" transform="translate(-7 -10)"/><path d="M307.411,52.948a9.738,9.738,0,0,1-2.856-.432,5.975,5.975,0,0,1-2.472-1.464,7.994,7.994,0,0,1-1.68-2.376,10.149,10.149,0,0,1-.84-2.784,19.389,19.389,0,0,1-.216-2.88V31.156H294.4V27.124h4.944v-9.84h4.512v9.84H311.2v4.032h-7.344V43.012a15.263,15.263,0,0,0,.12,1.92,7.6,7.6,0,0,0,.48,1.872,3.384,3.384,0,0,0,1.176,1.512,2.933,2.933,0,0,0,1.776.6,3.348,3.348,0,0,0,1.56-.384,2.939,2.939,0,0,0,1.176-1.08,4.587,4.587,0,0,0,.6-1.512,8.074,8.074,0,0,0,.168-1.632v-.24h4.464a2.442,2.442,0,0,1,.048.48,10.547,10.547,0,0,1-.5,3.216,8.023,8.023,0,0,1-1.608,2.856,6.021,6.021,0,0,1-2.688,1.8A10.109,10.109,0,0,1,307.411,52.948Z" transform="translate(-7 -10)"/><path d="M318.4,52.564V48.532h6.48V31.156h-5.808V27.124h10.319V48.532H335.2v4.032ZM326.8,22.9a4.118,4.118,0,0,1-1.68-.36,2.319,2.319,0,0,1-1.2-1.176,3.867,3.867,0,0,1,0-3.36,2.429,2.429,0,0,1,1.2-1.2,3.867,3.867,0,0,1,3.36,0,2.33,2.33,0,0,1,1.176,1.2,4.11,4.11,0,0,1,0,3.36,2.225,2.225,0,0,1-1.176,1.176A4.125,4.125,0,0,1,326.8,22.9Z" transform="translate(-7 -10)"/><path d="M344.132,52.564q-6.674-15.984-6.673-22.9V27.124h4.465v2.543q0,5.761,4.271,18.433c.16.48.319.96.481,1.44l.047-.048.048.048.048-.144q4.7-13.632,4.7-19.729V27.124h4.464v2.543q0,6.913-6.672,22.9Z" transform="translate(-7 -10)"/><path d="M369.619,52.948a13.932,13.932,0,0,1-3.144-.36,8.293,8.293,0,0,1-2.88-1.272,7.8,7.8,0,0,1-2.184-2.28,8.967,8.967,0,0,1-1.2-2.928,14.884,14.884,0,0,1-.336-3.144v-6.24a13.979,13.979,0,0,1,.552-3.888,8.4,8.4,0,0,1,1.92-3.408,7.389,7.389,0,0,1,3.288-2.088,12.9,12.9,0,0,1,7.776,0,7.4,7.4,0,0,1,3.288,2.088,8.4,8.4,0,0,1,1.92,3.408,14.053,14.053,0,0,1,.552,3.888V41.86H364.339v1.1a8.9,8.9,0,0,0,.288,2.256,5.376,5.376,0,0,0,.984,1.992,4,4,0,0,0,1.776,1.3,6.265,6.265,0,0,0,2.232.408,8.722,8.722,0,0,0,2.208-.288,3.779,3.779,0,0,0,1.9-1.176,3.373,3.373,0,0,0,.888-1.992h4.464a7.931,7.931,0,0,1-.888,3.216A6.918,6.918,0,0,1,376,51.2a8.6,8.6,0,0,1-3.048,1.368A14.722,14.722,0,0,1,369.619,52.948Zm-5.28-15.12h10.368v-1.1a9.464,9.464,0,0,0-.264-2.208,5.364,5.364,0,0,0-.96-2.016,3.956,3.956,0,0,0-1.776-1.32,6.049,6.049,0,0,0-4.368,0,3.945,3.945,0,0,0-1.776,1.32,5.3,5.3,0,0,0-.96,2.016,9.464,9.464,0,0,0-.264,2.208Z" transform="translate(-7 -10)"/></g></g><g class="cls-2"><g class="cls-2"><path d="M137.635,107.164l7.056-35.28h5.184l7.056,35.28h-4.512l-1.776-8.688h-6.72l-1.776,8.688Zm7.1-12.72h5.088l-.816-4.128q-1.344-6.526-1.728-10.416-.384,3.888-1.728,10.416Z" transform="translate(-7 -10)"/><path d="M161.251,107.164V81.724h4.512v1.968a3.6,3.6,0,0,1,3.408-2.352q2.88,0,3.936,3.5,1.008-3.5,3.84-3.5a3.538,3.538,0,0,1,2.136.721,4.24,4.24,0,0,1,1.44,1.8,9.117,9.117,0,0,1,.624,2.256,16.445,16.445,0,0,1,.168,2.328v18.72H176.8V88.444q0-3.072-1.632-3.072t-1.632,3.072v9.072h-4.512V88.444q0-3.072-1.632-3.072t-1.632,3.072v18.72Z" transform="translate(-7 -10)"/></g><g class="cls-2"><path d="M195.283,107.548a16.018,16.018,0,0,1-3.288-.336,8.417,8.417,0,0,1-3-1.272,6.407,6.407,0,0,1-2.16-2.424,7.272,7.272,0,0,1-.817-3.168h4.465a2.76,2.76,0,0,0,.84,1.9,3.735,3.735,0,0,0,1.823,1.032,9.359,9.359,0,0,0,2.137.24,8.926,8.926,0,0,0,2.136-.264,4.127,4.127,0,0,0,1.92-1.08,2.6,2.6,0,0,0,.84-1.92,2.842,2.842,0,0,0-1.632-2.592,10.429,10.429,0,0,0-3.241-1.2q-1.608-.288-3.215-.72a10.651,10.651,0,0,1-3.024-1.344A6.767,6.767,0,0,1,186.81,92a6.351,6.351,0,0,1-.839-3.168,7.092,7.092,0,0,1,.768-3.216,6.906,6.906,0,0,1,2.16-2.544,8.068,8.068,0,0,1,3.048-1.368,15.653,15.653,0,0,1,3.336-.36,16.047,16.047,0,0,1,3.288.336,8.433,8.433,0,0,1,3,1.272,6.438,6.438,0,0,1,2.16,2.424,7.3,7.3,0,0,1,.816,3.168h-4.464a2.769,2.769,0,0,0-.84-1.9,3.741,3.741,0,0,0-1.824-1.033,9.413,9.413,0,0,0-2.136-.24,9.037,9.037,0,0,0-2.137.264,4.14,4.14,0,0,0-1.92,1.08,2.6,2.6,0,0,0-.839,1.92,2.842,2.842,0,0,0,1.631,2.593,10.426,10.426,0,0,0,3.241,1.2q1.608.288,3.215.72a10.713,10.713,0,0,1,3.025,1.344,6.79,6.79,0,0,1,2.256,2.4,6.358,6.358,0,0,1,.84,3.169,7.1,7.1,0,0,1-.768,3.215,6.916,6.916,0,0,1-2.16,2.544,8.082,8.082,0,0,1-3.048,1.368A15.674,15.674,0,0,1,195.283,107.548Z" transform="translate(-7 -10)"/></g><g class="cls-2"><path d="M220.291,107.548a9.75,9.75,0,0,1-2.857-.432,5.978,5.978,0,0,1-2.471-1.464,7.994,7.994,0,0,1-1.68-2.376,10.149,10.149,0,0,1-.84-2.784,19.389,19.389,0,0,1-.216-2.88V85.756h-4.944V81.724h4.944v-9.84h4.512v9.84h7.344v4.032h-7.344V97.612a15.251,15.251,0,0,0,.12,1.92,7.559,7.559,0,0,0,.48,1.872,3.389,3.389,0,0,0,1.175,1.512,2.936,2.936,0,0,0,1.777.6,3.341,3.341,0,0,0,1.559-.384,2.942,2.942,0,0,0,1.177-1.08,4.608,4.608,0,0,0,.6-1.512,8.074,8.074,0,0,0,.168-1.632v-.24h4.464a2.441,2.441,0,0,1,.047.48,10.577,10.577,0,0,1-.5,3.216,8.038,8.038,0,0,1-1.608,2.856,6.032,6.032,0,0,1-2.688,1.8A10.135,10.135,0,0,1,220.291,107.548Z" transform="translate(-7 -10)"/><path d="M240.979,107.548a13.939,13.939,0,0,1-3.144-.36,8.309,8.309,0,0,1-2.88-1.272,7.773,7.773,0,0,1-2.184-2.28,8.989,8.989,0,0,1-1.2-2.928,14.819,14.819,0,0,1-.336-3.144v-6.24a14,14,0,0,1,.552-3.887,8.4,8.4,0,0,1,1.92-3.409A7.394,7.394,0,0,1,237,81.94a12.9,12.9,0,0,1,7.776,0,7.386,7.386,0,0,1,3.287,2.088,8.41,8.41,0,0,1,1.921,3.409,14.041,14.041,0,0,1,.552,3.887V96.46H235.7v1.1a8.9,8.9,0,0,0,.288,2.256,5.4,5.4,0,0,0,.984,1.993,4,4,0,0,0,1.776,1.3,6.265,6.265,0,0,0,2.232.408,8.766,8.766,0,0,0,2.208-.287,3.777,3.777,0,0,0,1.9-1.177,3.379,3.379,0,0,0,.888-1.991h4.463a7.93,7.93,0,0,1-.887,3.215,6.908,6.908,0,0,1-2.184,2.52,8.6,8.6,0,0,1-3.048,1.368A14.729,14.729,0,0,1,240.979,107.548Zm-5.28-15.12h10.368v-1.1a9.525,9.525,0,0,0-.264-2.208,5.349,5.349,0,0,0-.96-2.016,3.951,3.951,0,0,0-1.776-1.32,6.049,6.049,0,0,0-4.368,0,3.951,3.951,0,0,0-1.776,1.32,5.319,5.319,0,0,0-.96,2.016,9.471,9.471,0,0,0-.264,2.208Z" transform="translate(-7 -10)"/><path d="M255.811,107.164v-4.032h3.648V85.756h-3.648V81.724h8.112v5.664q1.68-6.048,6.336-6.048a8.089,8.089,0,0,1,1.968.24,2.851,2.851,0,0,1,1.584,1.032,4.949,4.949,0,0,1,.888,1.752,10.106,10.106,0,0,1,.336,1.944q.072.984.072,1.944h-4.465a7.816,7.816,0,0,0-.071-1.056,2.92,2.92,0,0,0-.336-1.008,1.336,1.336,0,0,0-.768-.648,3.273,3.273,0,0,0-1.033-.168,3.416,3.416,0,0,0-1.871.552,3.86,3.86,0,0,0-1.344,1.44,8.732,8.732,0,0,0-.745,1.848,16.673,16.673,0,0,0-.407,1.92,19.2,19.2,0,0,0-.144,2.544v9.456h4.416v4.032Z" transform="translate(-7 -10)"/><path d="M285.427,107.548a8.627,8.627,0,0,1-2.832-.48,6.055,6.055,0,0,1-2.4-1.512,8.052,8.052,0,0,1-1.608-2.376,10.707,10.707,0,0,1-.817-2.76,19.032,19.032,0,0,1-.215-2.856v-6.24a19.042,19.042,0,0,1,.215-2.856,10.719,10.719,0,0,1,.817-2.76,8.078,8.078,0,0,1,1.608-2.376,6.088,6.088,0,0,1,2.4-1.512,8.653,8.653,0,0,1,2.832-.48,6.606,6.606,0,0,1,6.528,4.368L292,71.884h4.464v35.28H292l-.048-3.984A6.6,6.6,0,0,1,285.427,107.548Zm1.728-4.032a5.3,5.3,0,0,0,2.111-.432,3.661,3.661,0,0,0,1.632-1.368,5.956,5.956,0,0,0,.865-1.992,9.7,9.7,0,0,0,.24-2.16v-6.24a9.716,9.716,0,0,0-.24-2.16,5.973,5.973,0,0,0-.865-1.992,3.661,3.661,0,0,0-1.632-1.368,5.3,5.3,0,0,0-2.111-.432,5.959,5.959,0,0,0-2.16.408,3.965,3.965,0,0,0-1.752,1.32,5.3,5.3,0,0,0-.96,2.016,9.419,9.419,0,0,0-.265,2.208v6.24a9.407,9.407,0,0,0,.265,2.208,5.29,5.29,0,0,0,.96,2.016,3.95,3.95,0,0,0,1.752,1.32A5.938,5.938,0,0,0,287.155,103.516Z" transform="translate(-7 -10)"/><path d="M308.659,107.548a8.982,8.982,0,0,1-2.9-.48,5.527,5.527,0,0,1-2.424-1.631,6.407,6.407,0,0,1-1.393-2.593,11.407,11.407,0,0,1-.383-2.952,9.5,9.5,0,0,1,.48-2.976,5.925,5.925,0,0,1,1.607-2.52,9.016,9.016,0,0,1,2.544-1.68,11.217,11.217,0,0,1,2.929-.84,21.191,21.191,0,0,1,3-.216H316V89.836a5.535,5.535,0,0,0-.313-1.848,3.522,3.522,0,0,0-1.031-1.512A4.028,4.028,0,0,0,313,85.612a7.421,7.421,0,0,0-4.08.1A3.711,3.711,0,0,0,307.1,86.98a3.275,3.275,0,0,0-.744,2.088H301.89a7.691,7.691,0,0,1,.745-3.312,6.9,6.9,0,0,1,2.112-2.616,7.943,7.943,0,0,1,3.048-1.416,15.088,15.088,0,0,1,3.36-.384,15.559,15.559,0,0,1,2.856.265,8.342,8.342,0,0,1,2.664.983,7.556,7.556,0,0,1,2.16,1.872A6.81,6.81,0,0,1,320.106,87a11.272,11.272,0,0,1,.361,2.832v17.328H316v-3.792l-.1.1Q313.842,107.548,308.659,107.548Zm1.728-4.032a8.63,8.63,0,0,0,2.112-.264,4.732,4.732,0,0,0,1.895-.96,4.064,4.064,0,0,0,1.225-1.7A5.749,5.749,0,0,0,316,98.524V95.692h-3.888a12.68,12.68,0,0,0-2.04.168,6.939,6.939,0,0,0-1.992.648,3.623,3.623,0,0,0-1.512,1.392,3.729,3.729,0,0,0,.048,3.984,2.949,2.949,0,0,0,1.655,1.3A6.933,6.933,0,0,0,310.387,103.516Z" transform="translate(-7 -10)"/><path d="M325.171,107.164V81.724h4.511v1.968a3.6,3.6,0,0,1,3.409-2.352q2.88,0,3.936,3.5,1.008-3.5,3.84-3.5a3.54,3.54,0,0,1,2.136.721,4.255,4.255,0,0,1,1.44,1.8,9.072,9.072,0,0,1,.623,2.256,16.3,16.3,0,0,1,.169,2.328v18.72h-4.513V88.444q0-3.072-1.631-3.072t-1.632,3.072v9.072h-4.512V88.444q0-3.072-1.633-3.072t-1.632,3.072v18.72Z" transform="translate(-7 -10)"/></g></g><g id="layer1"><g id="g3744"><path id="path7508" class="cls-3" d="M63.655,88.256C86.924,119.977,109.7,79.4,109.662,55,109.623,26.153,80.383,10.03,63.636,10.03c-13.441,0-37.845.453-37.756,20.618C25.994,56.5,13.356,56.512,7,64.11c6.184,6.567,18.987,7.323,20.34,30.6,1.281,22.03,24.728,20.433,36.3,20.433-5.236-.754-22.684-4.492-22.918-44.679C40.56,43.284,49.584,32.425,63.6,37.2c.313.116,15.457,6.09,15.457,25.6C79.055,82.238,63.655,88.256,63.655,88.256Z" transform="translate(-7 -10)"/><path id="path7510" class="cls-4" d="M63.627,37.18c-15.375-5.3-34.211,7.372-34.211,32.755,0,41.446,30.713,45.207,34.436,45.207,26.881,0,27.585-.472,65.4-51.352-41.6-53.639-42.265-53.76-65.4-53.76,6.408-.888,32.332,18.279,44.622,52.945-15.41,28.878-29.828,32.419-43.49,26.587-.314-.116-16.717-7.35-16.717-26.865C48.267,43.266,63.627,37.18,63.627,37.18Z" transform="translate(-7 -10)"/><g id="g4513"><g id="text4492" class="cls-2"><g class="cls-2"><path class="cls-5" d="M63.522,88.328,70.851,81,74.4,84.543,67.066,91.9l7.33,7.331-3.545,3.544-7.329-7.33-7.33,7.33-3.568-3.544,7.354-7.355-7.354-7.329L56.192,81Z" transform="translate(-7 -10)"/><path class="cls-5" d="M63.522,59.082l7.329-7.33L74.4,55.3l-7.33,7.353,7.33,7.33-3.545,3.544-7.329-7.329-7.33,7.329L52.624,69.98l7.354-7.354L52.624,55.3l3.568-3.545Z" transform="translate(-7 -10)"/><path class="cls-5" d="M63.522,29.835l7.329-7.329L74.4,26.05,67.066,33.4l7.33,7.33-3.545,3.544-7.329-7.33-7.33,7.33-3.568-3.544,7.354-7.354-7.354-7.33,3.568-3.544Z" transform="translate(-7 -10)"/></g><g class="cls-2"><path class="cls-6" d="M63.522,88.328,70.851,81,74.4,84.543,67.066,91.9l7.33,7.331-3.545,3.544-7.329-7.33-7.33,7.33-3.568-3.544,7.354-7.355-7.354-7.329L56.192,81Z" transform="translate(-7 -10)"/><path class="cls-6" d="M63.522,59.082l7.329-7.33L74.4,55.3l-7.33,7.353,7.33,7.33-3.545,3.544-7.329-7.329-7.33,7.329L52.624,69.98l7.354-7.354L52.624,55.3l3.568-3.545Z" transform="translate(-7 -10)"/><path class="cls-6" d="M63.522,29.835l7.329-7.329L74.4,26.05,67.066,33.4l7.33,7.33-3.545,3.544-7.329-7.33-7.33,7.33-3.568-3.544,7.354-7.354-7.354-7.33,3.568-3.544Z" transform="translate(-7 -10)"/></g></g><g id="text4492-8" class="cls-2"><g class="cls-2"><path class="cls-7" d="M63.522,88.328,70.851,81,74.4,84.543,67.066,91.9l7.33,7.331-3.545,3.544-7.329-7.33-7.33,7.33-3.568-3.544,7.354-7.355-7.354-7.329L56.192,81Z" transform="translate(-7 -10)"/><path class="cls-7" d="M63.522,59.082l7.329-7.33L74.4,55.3l-7.33,7.353,7.33,7.33-3.545,3.544-7.329-7.329-7.33,7.329L52.624,69.98l7.354-7.354L52.624,55.3l3.568-3.545Z" transform="translate(-7 -10)"/><path class="cls-7" d="M63.522,29.835l7.329-7.329L74.4,26.05,67.066,33.4l7.33,7.33-3.545,3.544-7.329-7.33-7.33,7.33-3.568-3.544,7.354-7.354-7.354-7.33,3.568-3.544Z" transform="translate(-7 -10)"/></g></g></g></g></g></svg>