<svg xmlns="http://www.w3.org/2000/svg" xmlns:xlink="http://www.w3.org/1999/xlink" xmlns:lucid="lucid" width="980" height="666"><g transform="translate(0 -34)" lucid:page-tab-id="0_0"><path d="M0 0h1870.87v1322.83H0z" fill="#fff"/><path d="M682.5 620h40.17c3.3 0 6-2.7 6-6V98.5" stroke="#5e5e5e" stroke-width="2" fill="none"/><path d="M682.53 621h-1.03v-2h1.03z" fill="#5e5e5e"/><path d="M728.67 83.24l4.63 14.26h-9.27z" stroke="#5e5e5e" stroke-width="2" fill="#5e5e5e"/><path d="M760.4 140H780" stroke="#5e5e5e" stroke-width="2" fill="none"/><path d="M760.43 141h-1.38l.37-1.04.25-.96h.76z" fill="#5e5e5e"/><path d="M795.26 140L781 144.64v-9.28z" stroke="#5e5e5e" stroke-width="2" fill="#5e5e5e"/><path d="M462.5 140h219.6" stroke="#5e5e5e" stroke-width="2" fill="none"/><path d="M462.53 141h-1.03v-2h1.03z" fill="#5e5e5e"/><path d="M697.36 140l-14.27 4.64v-9.28z" stroke="#5e5e5e" stroke-width="2" fill="#5e5e5e"/><path d="M380 102.5V614c0 3.3 2.7 6 6 6h34" stroke="#5e5e5e" stroke-width="2" fill="none"/><path d="M381 102.53h-2v-1.03h2z" fill="#5e5e5e"/><path d="M435.26 620L421 624.64v-9.28z" stroke="#5e5e5e" stroke-width="2" fill="#5e5e5e"/><path d="M60 66c0-3.3 2.7-6 6-6h148c3.3 0 6 2.7 6 6v28c0 3.3-2.7 6-6 6H66c-3.3 0-6-2.7-6-6z" stroke="#5e5e5e" stroke-width="3" fill="#fff"/><use xlink:href="#a" transform="matrix(1,0,0,1,65,65) translate(51.543209876543216 19.65277777777778)"/><path d="M60 126c0-3.3 2.7-6 6-6h148c3.3 0 6 2.7 6 6v28c0 3.3-2.7 6-6 6H66c-3.3 0-6-2.7-6-6z" stroke="#5e5e5e" stroke-width="3" fill="#fff"/><use xlink:href="#a" transform="matrix(1,0,0,1,65,125) translate(51.543209876543216 19.65277777777778)"/><path d="M60 186c0-3.3 2.7-6 6-6h148c3.3 0 6 2.7 6 6v28c0 3.3-2.7 6-6 6H66c-3.3 0-6-2.7-6-6z" stroke="#5e5e5e" stroke-width="3" fill="#fff"/><use xlink:href="#a" transform="matrix(1,0,0,1,65,185) translate(51.543209876543216 19.65277777777778)"/><path d="M60 246c0-3.3 2.7-6 6-6h148c3.3 0 6 2.7 6 6v28c0 3.3-2.7 6-6 6H66c-3.3 0-6-2.7-6-6z" stroke="#5e5e5e" stroke-width="3" fill="#fff"/><use xlink:href="#a" transform="matrix(1,0,0,1,65,245) translate(51.543209876543216 19.65277777777778)"/><path d="M60 386c0-3.3 2.7-6 6-6h148c3.3 0 6 2.7 6 6v28c0 3.3-2.7 6-6 6H66c-3.3 0-6-2.7-6-6z" stroke="#5e5e5e" stroke-width="3" fill="#fff"/><use xlink:href="#a" transform="matrix(1,0,0,1,65,385) translate(51.543209876543216 19.65277777777778)"/><path d="M20 306c0-3.3 2.7-6 6-6h188c3.3 0 6 2.7 6 6v48c0 3.3-2.7 6-6 6H26c-3.3 0-6-2.7-6-6z" stroke="#000" stroke-opacity="0" stroke-width="3" fill="#fff" fill-opacity="0"/><use xlink:href="#b" transform="matrix(1,0,0,1,25,305) translate(49.32098765432099 30.27777777777778)"/><use xlink:href="#c" transform="matrix(1,0,0,1,25,305) translate(74.01234567901234 30.27777777777778)"/><use xlink:href="#d" transform="matrix(1,0,0,1,25,305) translate(91.29629629629629 30.27777777777778)"/><path d="M300 66c0-3.3 2.7-6 6-6h148c3.3 0 6 2.7 6 6v28c0 3.3-2.7 6-6 6H306c-3.3 0-6-2.7-6-6z" stroke="#5e5e5e" stroke-width="3" fill="#fff"/><use xlink:href="#e" transform="matrix(1,0,0,1,305,65) translate(55.925925925925924 19.65277777777778)"/><path d="M300 126c0-3.3 2.7-6 6-6h148c3.3 0 6 2.7 6 6v28c0 3.3-2.7 6-6 6H306c-3.3 0-6-2.7-6-6z" stroke="#5e5e5e" stroke-width="3" fill="#fff"/><use xlink:href="#e" transform="matrix(1,0,0,1,305,125) translate(55.925925925925924 19.65277777777778)"/><path d="M300 186c0-3.3 2.7-6 6-6h148c3.3 0 6 2.7 6 6v28c0 3.3-2.7 6-6 6H306c-3.3 0-6-2.7-6-6z" stroke="#5e5e5e" stroke-width="3" fill="#fff"/><use xlink:href="#e" transform="matrix(1,0,0,1,305,185) translate(55.925925925925924 19.65277777777778)"/><path d="M300 246c0-3.3 2.7-6 6-6h148c3.3 0 6 2.7 6 6v28c0 3.3-2.7 6-6 6H306c-3.3 0-6-2.7-6-6z" stroke="#5e5e5e" stroke-width="3" fill="#fff"/><use xlink:href="#e" transform="matrix(1,0,0,1,305,245) translate(55.925925925925924 19.65277777777778)"/><path d="M300 386c0-3.3 2.7-6 6-6h148c3.3 0 6 2.7 6 6v28c0 3.3-2.7 6-6 6H306c-3.3 0-6-2.7-6-6z" stroke="#5e5e5e" stroke-width="3" fill="#fff"/><use xlink:href="#e" transform="matrix(1,0,0,1,305,385) translate(55.925925925925924 19.65277777777778)"/><path d="M222.5 80H280" stroke="#5e5e5e" stroke-width="2" fill="none"/><path d="M222.53 81h-1.03v-2h1.03z" fill="#5e5e5e"/><path d="M295.26 80L281 84.64v-9.28z" stroke="#5e5e5e" stroke-width="2" fill="#5e5e5e"/><path d="M222.5 140H280" stroke="#5e5e5e" stroke-width="2" fill="none"/><path d="M222.53 141h-1.03v-2h1.03z" fill="#5e5e5e"/><path d="M295.26 140L281 144.64v-9.28z" stroke="#5e5e5e" stroke-width="2" fill="#5e5e5e"/><path d="M222.5 200H280" stroke="#5e5e5e" stroke-width="2" fill="none"/><path d="M222.53 201h-1.03v-2h1.03z" fill="#5e5e5e"/><path d="M295.26 200L281 204.64v-9.28z" stroke="#5e5e5e" stroke-width="2" fill="#5e5e5e"/><path d="M222.5 260H280" stroke="#5e5e5e" stroke-width="2" fill="none"/><path d="M222.53 261h-1.03v-2h1.03z" fill="#5e5e5e"/><path d="M295.26 260L281 264.64v-9.28z" stroke="#5e5e5e" stroke-width="2" fill="#5e5e5e"/><path d="M222.5 400H280" stroke="#5e5e5e" stroke-width="2" fill="none"/><path d="M222.53 401h-1.03v-2h1.03z" fill="#5e5e5e"/><path d="M295.26 400L281 404.64v-9.28z" stroke="#5e5e5e" stroke-width="2" fill="#5e5e5e"/><path d="M462.5 80H780" stroke="#5e5e5e" stroke-width="2" fill="none"/><path d="M462.53 81h-1.03v-2h1.03z" fill="#5e5e5e"/><path d="M795.26 80L781 84.64v-9.28z" stroke="#5e5e5e" stroke-width="2" fill="#5e5e5e"/><path d="M462.5 200H780" stroke="#5e5e5e" stroke-width="2" fill="none"/><path d="M462.53 201h-1.03v-2h1.03z" fill="#5e5e5e"/><path d="M795.26 200L781 204.64v-9.28z" stroke="#5e5e5e" stroke-width="2" fill="#5e5e5e"/><path d="M462.5 260H780" stroke="#5e5e5e" stroke-width="2" fill="none"/><path d="M462.53 261h-1.03v-2h1.03z" fill="#5e5e5e"/><path d="M795.26 260L781 264.64v-9.28z" stroke="#5e5e5e" stroke-width="2" fill="#5e5e5e"/><path d="M756.66 400H780" stroke="#5e5e5e" stroke-width="2" fill="none"/><path d="M756.7 401h-1.4l.72-2h.67z" fill="#5e5e5e"/><path d="M795.26 400L781 404.64v-9.28z" stroke="#5e5e5e" stroke-width="2" fill="#5e5e5e"/><path d="M462.5 400h223.34" stroke="#5e5e5e" stroke-width="2" fill="none"/><path d="M462.53 401h-1.03v-2h1.03z" fill="#5e5e5e"/><path d="M701.1 400l-14.26 4.64v-9.28z" stroke="#5e5e5e" stroke-width="2" fill="#5e5e5e"/><path d="M800 66c0-3.3 2.7-6 6-6h148c3.3 0 6 2.7 6 6v28c0 3.3-2.7 6-6 6H806c-3.3 0-6-2.7-6-6z" stroke="#5e5e5e" stroke-width="3" fill="#fff"/><use xlink:href="#f" transform="matrix(1,0,0,1,805,65) translate(60.833333333333336 19.65277777777778)"/><path d="M800 126c0-3.3 2.7-6 6-6h148c3.3 0 6 2.7 6 6v28c0 3.3-2.7 6-6 6H806c-3.3 0-6-2.7-6-6z" stroke="#5e5e5e" stroke-width="3" fill="#fff"/><use xlink:href="#f" transform="matrix(1,0,0,1,805,125) translate(60.833333333333336 19.65277777777778)"/><path d="M800 186c0-3.3 2.7-6 6-6h148c3.3 0 6 2.7 6 6v28c0 3.3-2.7 6-6 6H806c-3.3 0-6-2.7-6-6z" stroke="#5e5e5e" stroke-width="3" fill="#fff"/><use xlink:href="#f" transform="matrix(1,0,0,1,805,185) translate(60.833333333333336 19.65277777777778)"/><path d="M800 246c0-3.3 2.7-6 6-6h148c3.3 0 6 2.7 6 6v28c0 3.3-2.7 6-6 6H806c-3.3 0-6-2.7-6-6z" stroke="#5e5e5e" stroke-width="3" fill="#fff"/><use xlink:href="#f" transform="matrix(1,0,0,1,805,245) translate(60.833333333333336 19.65277777777778)"/><path d="M800 386c0-3.3 2.7-6 6-6h148c3.3 0 6 2.7 6 6v28c0 3.3-2.7 6-6 6H806c-3.3 0-6-2.7-6-6z" stroke="#5e5e5e" stroke-width="3" fill="#fff"/><use xlink:href="#f" transform="matrix(1,0,0,1,805,385) translate(60.833333333333336 19.65277777777778)"/><path d="M580 566c0-3.3 2.7-6 6-6h88c3.3 0 6 2.7 6 6v108c0 3.3-2.7 6-6 6h-88c-3.3 0-6-2.7-6-6z" stroke="#5e5e5e" stroke-width="3" fill="#fff"/><use xlink:href="#g" transform="matrix(1,0,0,1,585,565) translate(-5.000000000000007 46.111111111111114)"/><use xlink:href="#h" transform="matrix(1,0,0,1,585,565) translate(13.58024691358025 72.77777777777777)"/><path d="M702.02 79.52c-1.12-3.13.22-7.14 2.98-8.97l20-13.24c2.76-1.82 7.24-1.82 10 0l20 13.25c2.76 1.83 4.1 5.84 2.98 8.97l-7.42 20.83c-1.12 3.12-4.7 5.65-8.02 5.65h-25.08c-3.3 0-6.9-2.53-8.02-5.65z" stroke="#5e5e5e" stroke-width="3" fill="#fff"/><use xlink:href="#i" transform="matrix(1,0,0,1,705,59) translate(18.245740740740743 25.65277777777778)"/><path d="M702.02 199.52c-1.12-3.13.22-7.14 2.98-8.97l20-13.24c2.76-1.82 7.24-1.82 10 0l20 13.25c2.76 1.83 4.1 5.84 2.98 8.97l-7.42 20.83c-1.12 3.12-4.7 5.65-8.02 5.65h-25.08c-3.3 0-6.9-2.53-8.02-5.65z" stroke="#5e5e5e" stroke-width="3" fill="#fff"/><use xlink:href="#i" transform="matrix(1,0,0,1,705,179) translate(18.245740740740743 25.65277777777778)"/><path d="M702.02 259.52c-1.12-3.13.22-7.14 2.98-8.97l20-13.24c2.76-1.82 7.24-1.82 10 0l20 13.25c2.76 1.83 4.1 5.84 2.98 8.97l-7.42 20.83c-1.12 3.12-4.7 5.65-8.02 5.65h-25.08c-3.3 0-6.9-2.53-8.02-5.65z" stroke="#5e5e5e" stroke-width="3" fill="#fff"/><use xlink:href="#i" transform="matrix(1,0,0,1,705,239) translate(18.245740740740743 25.65277777777778)"/><path d="M702.02 389c-1.12-3.1.22-7.12 2.98-8.95l20-13.24c2.76-1.82 7.24-1.82 10 0l20 13.25c2.76 1.83 4.1 5.84 2.98 8.96l-7.42 20.85c-1.12 3.12-4.7 5.65-8.02 5.65h-25.08c-3.3 0-6.9-2.53-8.02-5.65z" stroke="#5e5e5e" stroke-width="3" fill="#fff"/><use xlink:href="#i" transform="matrix(1,0,0,1,705,368.4992924772211) translate(18.245740740740743 25.65277777777778)"/><path d="M702.02 139.52c-1.12-3.13.22-7.14 2.98-8.97l20-13.24c2.76-1.82 7.24-1.82 10 0l20 13.25c2.76 1.83 4.1 5.84 2.98 8.97l-7.42 20.83c-1.12 3.12-4.7 5.65-8.02 5.65h-25.08c-3.3 0-6.9-2.53-8.02-5.65z" stroke="#5e5e5e" stroke-width="3" fill="#fff"/><use xlink:href="#i" transform="matrix(1,0,0,1,705,119) translate(18.245740740740743 25.65277777777778)"/><path d="M440 566c0-3.3 2.7-6 6-6h88c3.3 0 6 2.7 6 6v108c0 3.3-2.7 6-6 6h-88c-3.3 0-6-2.7-6-6z" stroke="#5e5e5e" stroke-width="3" fill="#fff"/><use xlink:href="#j" transform="matrix(1,0,0,1,445,565) translate(13.58024691358025 59.02777777777778)"/><path d="M703.34 400h-39 21.5" stroke="#5e5e5e" stroke-width="2" fill="none"/><path d="M704.7 401h-1.4v-2h.68z" fill="#5e5e5e"/><path d="M701.1 400l-14.26 4.64v-9.28z" stroke="#5e5e5e" stroke-width="2" fill="#5e5e5e"/><path d="M462.5 80h225" stroke="#5e5e5e" stroke-width="2" fill="none"/><path d="M462.53 81h-1.03v-2h1.03z" fill="#5e5e5e"/><path d="M702.76 80l-14.26 4.64v-9.28z" stroke="#5e5e5e" stroke-width="2" fill="#5e5e5e"/><path d="M462.5 200h219.66" stroke="#5e5e5e" stroke-width="2" fill="none"/><path d="M462.53 201h-1.03v-2h1.03z" fill="#5e5e5e"/><path d="M697.43 200l-14.27 4.64v-9.28z" stroke="#5e5e5e" stroke-width="2" fill="#5e5e5e"/><path d="M462.5 260h219.66" stroke="#5e5e5e" stroke-width="2" fill="none"/><path d="M462.53 261h-1.03v-2h1.03z" fill="#5e5e5e"/><path d="M697.43 260l-14.27 4.64v-9.28z" stroke="#5e5e5e" stroke-width="2" fill="#5e5e5e"/><path d="M521.95 493.18c-1.08-3.14.26-7.2 3-9.08l30.1-20.7c2.74-1.88 7.16-1.88 9.9 0l30.1 20.7c2.74 1.88 4.08 5.94 3 9.08l-11.38 33.15c-1.08 3.13-4.64 5.67-7.95 5.67h-37.44c-3.3 0-6.87-2.54-7.95-5.67z" stroke="#5e5e5e" stroke-width="3" fill="#fff"/><use xlink:href="#i" transform="matrix(1,0,0,1,525,465) translate(28.245740740740743 37.15277777777778)"/><path d="M490 557.5v-63.85c0-3.32 2.7-6 6-6h6.17" stroke="#5e5e5e" stroke-width="2" fill="none"/><path d="M491 558.5h-2v-1.03h2z" fill="#5e5e5e"/><path d="M517.44 487.65l-14.27 4.63V483z" stroke="#5e5e5e" stroke-width="2" fill="#5e5e5e"/><path d="M600.33 487.65H624c3.3 0 6 2.68 6 6V540" stroke="#5e5e5e" stroke-width="2" fill="none"/><path d="M600.36 488.65h-.76l-.43-1.63-.22-.37h1.4z" fill="#5e5e5e"/><path d="M630 555.26L625.36 541h9.28z" stroke="#5e5e5e" stroke-width="2" fill="#5e5e5e"/><path d="M60 502.67c0-3.32 2.7-6 6-6h228c3.3 0 6 2.68 6 6V554c0 3.3-2.7 6-6 6H66c-3.3 0-6-2.7-6-6z" stroke="#000" stroke-opacity="0" stroke-width="3" fill="#fff" fill-opacity="0"/><use xlink:href="#k" transform="matrix(1,0,0,1,65,501.66666666666663) translate(98.88888888888889 17.77777777777778)"/><use xlink:href="#l" transform="matrix(1,0,0,1,65,501.66666666666663) translate(118.14814814814815 17.77777777777778)"/><use xlink:href="#m" transform="matrix(1,0,0,1,65,501.66666666666663) translate(11.080246913580254 44.44444444444444)"/><use xlink:href="#n" transform="matrix(1,0,0,1,65,501.66666666666663) translate(70.64814814814815 44.44444444444444)"/><path d="M682.5 620H724c3.3 0 6-2.7 6-6V435.5" stroke="#5e5e5e" stroke-width="2" fill="none"/><path d="M682.53 621h-1.03v-2h1.03z" fill="#5e5e5e"/><path d="M730 420.24l4.64 14.26h-9.28z" stroke="#5e5e5e" stroke-width="2" fill="#5e5e5e"/><defs><path fill="#333" d="M153-248C145-148 188 4 80 4 36 3 13-21 6-62l32-5c4 25 16 42 43 43 27 0 39-20 39-49v-147H72v-28h81" id="o"/><path fill="#333" d="M141-36C126-15 110 5 73 4 37 3 15-17 15-53c-1-64 63-63 125-63 3-35-9-54-41-54-24 1-41 7-42 31l-33-3c5-37 33-52 76-52 45 0 72 20 72 64v82c-1 20 7 32 28 27v20c-31 9-61-2-59-35zM48-53c0 20 12 33 32 33 41-3 63-29 60-74-43 2-92-5-92 41" id="p"/><path fill="#333" d="M108 0H70L1-190h34L89-25l56-165h34" id="q"/><g id="a"><use transform="matrix(0.06172839506172839,0,0,0.06172839506172839,0,0)" xlink:href="#o"/><use transform="matrix(0.06172839506172839,0,0,0.06172839506172839,11.11111111111111,0)" xlink:href="#p"/><use transform="matrix(0.06172839506172839,0,0,0.06172839506172839,23.45679012345679,0)" xlink:href="#q"/><use transform="matrix(0.06172839506172839,0,0,0.06172839506172839,34.5679012345679,0)" xlink:href="#p"/></g><path fill="#333" d="M33 0v-38h34V0H33" id="r"/><g id="b"><use transform="matrix(0.06172839506172839,0,0,0.06172839506172839,0,0)" xlink:href="#r"/><use transform="matrix(0.06172839506172839,0,0,0.06172839506172839,6.172839506172839,0)" xlink:href="#r"/><use transform="matrix(0.06172839506172839,0,0,0.06172839506172839,12.345679012345679,0)" xlink:href="#r"/></g><path fill="#333" d="M141 0L90-78 38 0H4l68-98-65-92h35l48 74 47-74h35l-64 92 68 98h-35" id="s"/><use transform="matrix(0.06172839506172839,0,0,0.06172839506172839,0,0)" xlink:href="#s" id="c"/><path fill="#333" d="M101-251c82-7 93 87 43 132L82-64C71-53 59-42 53-27h129V0H18c2-99 128-94 128-182 0-28-16-43-45-43s-46 15-49 41l-32-3c6-41 34-60 81-64" id="t"/><path fill="#333" d="M101-251c68 0 85 55 85 127S166 4 100 4C33 4 14-52 14-124c0-73 17-127 87-127zm-1 229c47 0 54-49 54-102s-4-102-53-102c-51 0-55 48-55 102 0 53 5 102 54 102" id="u"/><g id="d"><use transform="matrix(0.06172839506172839,0,0,0.06172839506172839,0,0)" xlink:href="#t"/><use transform="matrix(0.06172839506172839,0,0,0.06172839506172839,12.345679012345679,0)" xlink:href="#u"/><use transform="matrix(0.06172839506172839,0,0,0.06172839506172839,24.691358024691358,0)" xlink:href="#u"/><use transform="matrix(0.06172839506172839,0,0,0.06172839506172839,37.03703703703704,0)" xlink:href="#u"/></g><path fill="#333" d="M195 0l-74-108L45 0H8l94-129-87-119h37l69 98 67-98h37l-84 118L233 0h-38" id="v"/><path fill="#333" d="M210-169c-67 3-38 105-44 169h-31v-121c0-29-5-50-35-48C34-165 62-65 56 0H25l-1-190h30c1 10-1 24 2 32 10-44 99-50 107 0 11-21 27-35 58-36 85-2 47 119 55 194h-31v-121c0-29-5-49-35-48" id="w"/><path fill="#333" d="M24 0v-261h32V0H24" id="x"/><g id="e"><use transform="matrix(0.06172839506172839,0,0,0.06172839506172839,0,0)" xlink:href="#v"/><use transform="matrix(0.06172839506172839,0,0,0.06172839506172839,14.814814814814813,0)" xlink:href="#w"/><use transform="matrix(0.06172839506172839,0,0,0.06172839506172839,33.2716049382716,0)" xlink:href="#x"/></g><path fill="#333" d="M212-179c-10-28-35-45-73-45-59 0-87 40-87 99 0 60 29 101 89 101 43 0 62-24 78-52l27 14C228-24 195 4 139 4 59 4 22-46 18-125c-6-104 99-153 187-111 19 9 31 26 39 46" id="y"/><path fill="#333" d="M158-156l-14 65h45v19h-49L124 0h-19l15-72H56L41 0H22l15-72H2v-19h39l14-65H11v-19h48l15-71h20l-16 71h64l16-71h19l-16 71h37v19h-40zm-83 0L61-91h63l14-65H75" id="z"/><g id="f"><use transform="matrix(0.06172839506172839,0,0,0.06172839506172839,0,0)" xlink:href="#y"/><use transform="matrix(0.06172839506172839,0,0,0.06172839506172839,15.987654320987653,0)" xlink:href="#z"/></g><path fill="#333" d="M30 0v-248h187v28H63v79h144v27H63v87h162V0H30" id="A"/><path fill="#333" d="M117-194c89-4 53 116 60 194h-32v-121c0-31-8-49-39-48C34-167 62-67 57 0H25l-1-190h30c1 10-1 24 2 32 11-22 29-35 61-36" id="B"/><path fill="#333" d="M106-169C34-169 62-67 57 0H25v-261h32l-1 103c12-21 28-36 61-36 89 0 53 116 60 194h-32v-121c2-32-8-49-39-48" id="C"/><path fill="#333" d="M96-169c-40 0-48 33-48 73s9 75 48 75c24 0 41-14 43-38l32 2c-6 37-31 61-74 61-59 0-76-41-82-99-10-93 101-131 147-64 4 7 5 14 7 22l-32 3c-4-21-16-35-41-35" id="D"/><path fill="#333" d="M100-194c63 0 86 42 84 106H49c0 40 14 67 53 68 26 1 43-12 49-29l28 8c-11 28-37 45-77 45C44 4 14-33 15-96c1-61 26-98 85-98zm52 81c6-60-76-77-97-28-3 7-6 17-6 28h103" id="E"/><path fill="#333" d="M85-194c31 0 48 13 60 33l-1-100h32l1 261h-30c-2-10 0-23-3-31C134-8 116 4 85 4 32 4 16-35 15-94c0-66 23-100 70-100zm9 24c-40 0-46 34-46 75 0 40 6 74 45 74 42 0 51-32 51-76 0-42-9-74-50-73" id="F"/><g id="g"><use transform="matrix(0.06172839506172839,0,0,0.06172839506172839,0,0)" xlink:href="#A"/><use transform="matrix(0.06172839506172839,0,0,0.06172839506172839,14.814814814814813,0)" xlink:href="#B"/><use transform="matrix(0.06172839506172839,0,0,0.06172839506172839,27.160493827160494,0)" xlink:href="#C"/><use transform="matrix(0.06172839506172839,0,0,0.06172839506172839,39.50617283950617,0)" xlink:href="#p"/><use transform="matrix(0.06172839506172839,0,0,0.06172839506172839,51.85185185185185,0)" xlink:href="#B"/><use transform="matrix(0.06172839506172839,0,0,0.06172839506172839,64.19753086419753,0)" xlink:href="#D"/><use transform="matrix(0.06172839506172839,0,0,0.06172839506172839,75.30864197530865,0)" xlink:href="#E"/><use transform="matrix(0.06172839506172839,0,0,0.06172839506172839,87.65432098765433,0)" xlink:href="#F"/></g><path fill="#333" d="M30-248c118-7 216 8 213 122C240-48 200 0 122 0H30v-248zM63-27c89 8 146-16 146-99s-60-101-146-95v194" id="G"/><path fill="#333" d="M24-231v-30h32v30H24zM24 0v-190h32V0H24" id="H"/><path fill="#333" d="M177-190C167-65 218 103 67 71c-23-6-38-20-44-43l32-5c15 47 100 32 89-28v-30C133-14 115 1 83 1 29 1 15-40 15-95c0-56 16-97 71-98 29-1 48 16 59 35 1-10 0-23 2-32h30zM94-22c36 0 50-32 50-73 0-42-14-75-50-75-39 0-46 34-46 75s6 73 46 73" id="I"/><path fill="#333" d="M135-143c-3-34-86-38-87 0 15 53 115 12 119 90S17 21 10-45l28-5c4 36 97 45 98 0-10-56-113-15-118-90-4-57 82-63 122-42 12 7 21 19 24 35" id="J"/><path fill="#333" d="M59-47c-2 24 18 29 38 22v24C64 9 27 4 27-40v-127H5v-23h24l9-43h21v43h35v23H59v120" id="K"/><g id="h"><use transform="matrix(0.06172839506172839,0,0,0.06172839506172839,0,0)" xlink:href="#G"/><use transform="matrix(0.06172839506172839,0,0,0.06172839506172839,15.987654320987653,0)" xlink:href="#H"/><use transform="matrix(0.06172839506172839,0,0,0.06172839506172839,20.864197530864196,0)" xlink:href="#I"/><use transform="matrix(0.06172839506172839,0,0,0.06172839506172839,33.20987654320987,0)" xlink:href="#E"/><use transform="matrix(0.06172839506172839,0,0,0.06172839506172839,45.55555555555555,0)" xlink:href="#J"/><use transform="matrix(0.06172839506172839,0,0,0.06172839506172839,56.66666666666666,0)" xlink:href="#K"/></g><path fill="#333" d="M127-220V0H93v-220H8v-28h204v28h-85" id="L"/><use transform="matrix(0.06172839506172839,0,0,0.06172839506172839,0,0)" xlink:href="#L" id="i"/><g id="j"><use transform="matrix(0.06172839506172839,0,0,0.06172839506172839,0,0)" xlink:href="#G"/><use transform="matrix(0.06172839506172839,0,0,0.06172839506172839,15.987654320987653,0)" xlink:href="#H"/><use transform="matrix(0.06172839506172839,0,0,0.06172839506172839,20.864197530864196,0)" xlink:href="#I"/><use transform="matrix(0.06172839506172839,0,0,0.06172839506172839,33.20987654320987,0)" xlink:href="#E"/><use transform="matrix(0.06172839506172839,0,0,0.06172839506172839,45.55555555555555,0)" xlink:href="#J"/><use transform="matrix(0.06172839506172839,0,0,0.06172839506172839,56.66666666666666,0)" xlink:href="#K"/></g><use transform="matrix(0.06172839506172839,0,0,0.06172839506172839,0,0)" xlink:href="#L" id="k"/><path fill="#333" d="M18-150v-26h174v26H18zm0 90v-26h174v26H18" id="M"/><use transform="matrix(0.06172839506172839,0,0,0.06172839506172839,0,0)" xlink:href="#M" id="l"/><path fill="#333" d="M185-189c-5-48-123-54-124 2 14 75 158 14 163 119 3 78-121 87-175 55-17-10-28-26-33-46l33-7c5 56 141 63 141-1 0-78-155-14-162-118-5-82 145-84 179-34 5 7 8 16 11 25" id="N"/><path fill="#333" d="M30 0v-248h33v221h125V0H30" id="O"/><g id="m"><use transform="matrix(0.06172839506172839,0,0,0.06172839506172839,0,0)" xlink:href="#v"/><use transform="matrix(0.06172839506172839,0,0,0.06172839506172839,14.814814814814813,0)" xlink:href="#N"/><use transform="matrix(0.06172839506172839,0,0,0.06172839506172839,29.629629629629626,0)" xlink:href="#O"/><use transform="matrix(0.06172839506172839,0,0,0.06172839506172839,40.30864197530864,0)" xlink:href="#L"/></g><path fill="#333" d="M114-163C36-179 61-72 57 0H25l-1-190h30c1 12-1 29 2 39 6-27 23-49 58-41v29" id="P"/><path fill="#333" d="M101-234c-31-9-42 10-38 44h38v23H63V0H32v-167H5v-23h27c-7-52 17-82 69-68v24" id="Q"/><path fill="#333" d="M100-194c62-1 85 37 85 99 1 63-27 99-86 99S16-35 15-95c0-66 28-99 85-99zM99-20c44 1 53-31 53-75 0-43-8-75-51-75s-53 32-53 75 10 74 51 75" id="R"/><g id="n"><use transform="matrix(0.06172839506172839,0,0,0.06172839506172839,0,0)" xlink:href="#L"/><use transform="matrix(0.06172839506172839,0,0,0.06172839506172839,12.716049382716047,0)" xlink:href="#P"/><use transform="matrix(0.06172839506172839,0,0,0.06172839506172839,20.061728395061728,0)" xlink:href="#p"/><use transform="matrix(0.06172839506172839,0,0,0.06172839506172839,32.407407407407405,0)" xlink:href="#B"/><use transform="matrix(0.06172839506172839,0,0,0.06172839506172839,44.75308641975308,0)" xlink:href="#J"/><use transform="matrix(0.06172839506172839,0,0,0.06172839506172839,55.86419753086419,0)" xlink:href="#Q"/><use transform="matrix(0.06172839506172839,0,0,0.06172839506172839,62.03703703703703,0)" xlink:href="#R"/><use transform="matrix(0.06172839506172839,0,0,0.06172839506172839,74.38271604938271,0)" xlink:href="#P"/><use transform="matrix(0.06172839506172839,0,0,0.06172839506172839,81.72839506172839,0)" xlink:href="#w"/><use transform="matrix(0.06172839506172839,0,0,0.06172839506172839,100.18518518518518,0)" xlink:href="#p"/><use transform="matrix(0.06172839506172839,0,0,0.06172839506172839,112.53086419753086,0)" xlink:href="#K"/><use transform="matrix(0.06172839506172839,0,0,0.06172839506172839,118.7037037037037,0)" xlink:href="#H"/><use transform="matrix(0.06172839506172839,0,0,0.06172839506172839,123.58024691358024,0)" xlink:href="#R"/><use transform="matrix(0.06172839506172839,0,0,0.06172839506172839,135.92592592592592,0)" xlink:href="#B"/></g></defs></g></svg>