<?xml version="1.0" encoding="utf-8"?>
<!-- Generator: Adobe Illustrator 12.0.0, SVG Export Plug-In  -->
<!DOCTYPE svg PUBLIC "-//W3C//DTD SVG 1.1//EN" "http://www.w3.org/Graphics/SVG/1.1/DTD/svg11.dtd" [
	<!ENTITY ns_flows "http://ns.adobe.com/Flows/1.0/">
	<!ENTITY ns_svg "http://www.w3.org/2000/svg">
	<!ENTITY ns_xlink "http://www.w3.org/1999/xlink">
]>
<svg  version="1.1" xmlns="&ns_svg;" xmlns:xlink="&ns_xlink;" xmlns:a="http://ns.adobe.com/AdobeSVGViewerExtensions/3.0/"
	 width="397" height="143" viewBox="-0.58 -0.725 397 143" enable-background="new -0.58 -0.725 397 143" xml:space="preserve">
<defs>
</defs>
<rect x="4.086" y="40.667" fill="#B2C9BF" width="10" height="39.431"/>
<path fill="none" stroke="#000000" d="M237.293,63.598c0-2.032,3.594-5.405,5.76-5.405h0.001l152.264-31.687"/>
<path fill="none" stroke="#000000" d="M233.142,63.96c0-3.02,4.414-7.608,6.58-7.608l151.582-31.415"/>
<path fill="none" stroke="#000000" d="M229.126,63.96c0-2.617,2.543-8.175,6.938-9.121c-0.347,0.071,6.105-1.272,9.678-2.016
	c4.516-0.94,43.721-9.099,50.272-10.462c6.925-1.441,13.851-2.882,20.776-4.324c6.722-1.399,13.444-2.798,20.167-4.197
	c6.126-1.275,12.253-2.55,18.38-3.825c5.252-1.093,10.505-2.187,15.757-3.279c3.617-0.753,7.234-1.506,10.852-2.258
	c1.577-0.328,3.154-0.657,4.731-0.985c0.203-0.042,0.406-0.084,0.608-0.126"/>
<path fill="none" stroke="#000000" d="M225.108,63.764c0-2.032,2.125-9.416,8.299-10.9l149.865-31.065"/>
<path fill="none" stroke="#000000" d="M221.095,63.96c0-2.032,1.137-11.425,9.173-12.831l148.988-30.9"/>
<path fill="none" stroke="#000000" d="M217.08,63.96c0-2.032,1.527-13.05,9.988-14.599L375.24,18.659"/>
<path fill="none" stroke="#000000" d="M237.293,63.598c0,2.032,3.594,5.405,5.76,5.405h0.001l152.264,31.687"/>
<path fill="none" stroke="#000000" d="M233.142,63.96c0,2.963,4.414,6.884,6.58,6.884l151.582,31.415"/>
<path fill="none" stroke="#000000" d="M229.126,63.96c0,2.617,2.543,7.451,6.938,8.397c-0.347-0.071,6.105,1.272,9.678,2.016
	c4.516,0.94,43.721,9.099,50.272,10.462c6.925,1.441,13.851,2.882,20.776,4.324c6.722,1.399,13.444,2.798,20.167,4.197
	c6.126,1.275,12.253,2.55,18.38,3.825c5.252,1.093,10.505,2.187,15.757,3.279c3.617,0.753,7.234,1.506,10.852,2.258
	c1.577,0.328,3.154,0.657,4.731,0.985c0.203,0.042,0.406,0.084,0.608,0.126"/>
<path fill="none" stroke="#000000" d="M225.108,63.764c0,2.032,2.125,9.085,8.299,10.569l149.865,31.065"/>
<path fill="none" stroke="#000000" d="M221.095,63.96c0,2.032,1.137,10.701,9.173,12.107l148.988,30.9"/>
<path fill="none" stroke="#000000" d="M217.08,63.96c0,2.032,1.527,12.326,9.988,13.875l148.172,30.702"/>
<line fill="none" stroke="#000000" x1="7.753" y1="44.61" x2="172.42" y2="44.61"/>
<line fill="none" stroke="#000000" x1="7.753" y1="48.553" x2="172.42" y2="48.553"/>
<line fill="none" stroke="#000000" x1="7.753" y1="52.496" x2="172.42" y2="52.496"/>
<line fill="none" stroke="#000000" x1="7.753" y1="56.439" x2="172.42" y2="56.439"/>
<line fill="none" stroke="#000000" x1="7.753" y1="60.383" x2="172.42" y2="60.383"/>
<line fill="none" stroke="#000000" x1="7.753" y1="64.326" x2="172.42" y2="64.326"/>
<line fill="none" stroke="#000000" x1="7.753" y1="68.269" x2="172.42" y2="68.269"/>
<line fill="none" stroke="#000000" x1="7.753" y1="72.212" x2="172.42" y2="72.212"/>
<line fill="none" stroke="#000000" x1="7.753" y1="76.155" x2="172.42" y2="76.155"/>
<polyline fill="none" stroke="#005740" stroke-width="2" stroke-linecap="round" stroke-linejoin="round" points="172.42,40.667 
	4.086,40.667 4.086,80.098 172.42,80.098 "/>
<line fill="none" stroke="#B2C9BF" stroke-dasharray="4 2" x1="372.42" y1="0" x2="372.42" y2="122.667"/>
<g>
	<g>
		<line fill="none" stroke="#5A8976" x1="9.086" y1="98.667" x2="9.086" y2="84.98"/>
		<polygon fill="#5A8976" points="3.277,85.835 9.07,82.177 14.863,85.835 14.863,85.873 3.277,85.873 		"/>
	</g>
</g>
<text transform="matrix(1.0005 0 0 1 0 108.8599)" fill="#010101" font-family="'SourceSansPro-Regular'" font-size="9.5">Glue</text>
<text transform="matrix(1.0005 0 0 1 21.1182 139.1938)" fill="#010101" font-family="'SourceSansPro-Regular'" font-size="9.5">Gutter reduced by perfect binding</text>
<text transform="matrix(1.0005 0 0 1 218.877 139.1938)" fill="#010101" font-family="'SourceSansPro-Regular'" font-size="9.5">Fore-edge reduced by trimming of signature</text>
</svg>
