<?xml version="1.0" encoding="utf-8"?>
<!-- Generator: Adobe Illustrator 12.0.0, SVG Export Plug-In  -->
<!DOCTYPE svg PUBLIC "-//W3C//DTD SVG 1.1//EN" "http://www.w3.org/Graphics/SVG/1.1/DTD/svg11.dtd" [
	<!ENTITY ns_flows "http://ns.adobe.com/Flows/1.0/">
	<!ENTITY ns_svg "http://www.w3.org/2000/svg">
	<!ENTITY ns_xlink "http://www.w3.org/1999/xlink">
]>
<svg  version="1.1" xmlns="&ns_svg;" xmlns:xlink="&ns_xlink;" xmlns:a="http://ns.adobe.com/AdobeSVGViewerExtensions/3.0/"
	 width="445" height="758" viewBox="-0.71 -0.205 445 758" enable-background="new -0.71 -0.205 445 758" xml:space="preserve">
<defs>
</defs>
<text transform="matrix(1 0 0 1 2.353 266.4619)" font-family="'MS-Gothic'" font-size="12">Right Page</text>
<text transform="matrix(1 0 0 1 139.5186 523.1201)" font-family="'MS-Gothic'" font-size="12">Left Page</text>
<text transform="matrix(1 0 0 1 140.0747 10.3125)" font-family="'MS-Gothic'" font-size="12">First Page</text>
<rect x="140.195" y="15.632" fill="none" stroke="#000000" stroke-width="0.5" width="302.564" height="226.994"/>
<rect x="0.25" y="272.856" fill="none" stroke="#000000" stroke-width="0.5" width="302.672" height="223.549"/>
<rect x="138.845" y="529.463" fill="none" stroke="#000000" stroke-width="0.5" width="303.677" height="227.277"/>
<rect x="158.015" y="34.008" fill="none" width="266.923" height="189.577"/>
<line fill="none" stroke="#000000" stroke-width="0.24" stroke-miterlimit="10" x1="154.805" y1="34.008" x2="154.805" y2="15.632"/>
<line fill="none" stroke="#000000" stroke-width="0.24" stroke-miterlimit="10" x1="158.015" y1="30.798" x2="158.015" y2="15.632"/>
<line fill="none" stroke="#000000" stroke-width="0.24" stroke-miterlimit="10" x1="424.938" y1="30.798" x2="424.938" y2="15.632"/>
<line fill="none" stroke="#000000" stroke-width="0.24" stroke-miterlimit="10" x1="428.149" y1="34.008" x2="428.149" y2="15.632"/>
<line fill="none" stroke="#000000" stroke-width="0.24" stroke-miterlimit="10" x1="424.938" y1="30.798" x2="443.315" y2="30.798"/>
<line fill="none" stroke="#000000" stroke-width="0.24" stroke-miterlimit="10" x1="428.149" y1="34.008" x2="443.315" y2="34.008"/>
<line fill="none" stroke="#000000" stroke-width="0.24" stroke-miterlimit="10" x1="428.149" y1="223.585" x2="443.315" y2="223.585"/>
<line fill="none" stroke="#000000" stroke-width="0.24" stroke-miterlimit="10" x1="424.938" y1="226.796" x2="443.315" y2="226.796"/>
<line fill="none" stroke="#000000" stroke-width="0.24" stroke-miterlimit="10" x1="428.149" y1="223.585" x2="428.149" y2="241.962"/>
<line fill="none" stroke="#000000" stroke-width="0.24" stroke-miterlimit="10" x1="424.938" y1="226.796" x2="424.938" y2="241.962"/>
<line fill="none" stroke="#000000" stroke-width="0.24" stroke-miterlimit="10" x1="158.015" y1="226.796" x2="158.015" y2="241.962"/>
<line fill="none" stroke="#000000" stroke-width="0.24" stroke-miterlimit="10" x1="154.805" y1="223.585" x2="154.805" y2="241.962"/>
<line fill="none" stroke="#000000" stroke-width="0.24" stroke-miterlimit="10" x1="158.015" y1="226.796" x2="139.638" y2="226.796"/>
<line fill="none" stroke="#000000" stroke-width="0.24" stroke-miterlimit="10" x1="154.805" y1="223.585" x2="139.638" y2="223.585"/>
<line fill="none" stroke="#000000" stroke-width="0.24" stroke-miterlimit="10" x1="154.805" y1="34.008" x2="139.638" y2="34.008"/>
<line fill="none" stroke="#000000" stroke-width="0.24" stroke-miterlimit="10" x1="158.015" y1="30.798" x2="139.638" y2="30.798"/>
<line fill="none" stroke="#000000" stroke-width="0.24" stroke-miterlimit="10" x1="291.477" y1="30.798" x2="291.477" y2="15.632"/>
<line fill="none" stroke="#000000" stroke-width="0.24" stroke-miterlimit="10" x1="276.311" y1="27.588" x2="306.643" y2="27.588"/>
<line fill="none" stroke="#000000" stroke-width="0.24" stroke-miterlimit="10" x1="291.477" y1="226.796" x2="291.477" y2="241.962"/>
<line fill="none" stroke="#000000" stroke-width="0.24" stroke-miterlimit="10" x1="306.643" y1="230.006" x2="276.311" y2="230.006"/>
<line fill="none" stroke="#000000" stroke-width="0.24" stroke-miterlimit="10" x1="428.149" y1="128.797" x2="443.315" y2="128.797"/>
<line fill="none" stroke="#000000" stroke-width="0.24" stroke-miterlimit="10" x1="431.36" y1="113.631" x2="431.36" y2="143.963"/>
<line fill="none" stroke="#000000" stroke-width="0.24" stroke-miterlimit="10" x1="154.805" y1="128.797" x2="139.638" y2="128.797"/>
<line fill="none" stroke="#000000" stroke-width="0.24" stroke-miterlimit="10" x1="151.594" y1="143.963" x2="151.594" y2="113.631"/>
<rect x="154.805" y="30.798" fill-rule="evenodd" clip-rule="evenodd" fill="none" width="273.344" height="195.998"/>
<text transform="matrix(1 0 0 1 234.8652 121.0596)" font-family="'Arial-BoldMT'" font-size="16.0509">Introduction to </text>
<text transform="matrix(1 0 0 1 210.7568 140.3213)" font-family="'Arial-BoldMT'" font-size="16.0509">CSS for Paged Media</text>
<rect x="18.566" y="291.171" fill="none" width="266.041" height="188.95"/>
<line fill="none" stroke="#000000" stroke-width="0.24" stroke-miterlimit="10" x1="15.366" y1="291.171" x2="15.366" y2="272.856"/>
<line fill="none" stroke="#000000" stroke-width="0.24" stroke-miterlimit="10" x1="18.566" y1="287.972" x2="18.566" y2="272.856"/>
<line fill="none" stroke="#000000" stroke-width="0.24" stroke-miterlimit="10" x1="284.607" y1="287.972" x2="284.607" y2="272.856"/>
<line fill="none" stroke="#000000" stroke-width="0.24" stroke-miterlimit="10" x1="287.806" y1="291.171" x2="287.806" y2="272.856"/>
<line fill="none" stroke="#000000" stroke-width="0.24" stroke-miterlimit="10" x1="284.607" y1="287.972" x2="302.922" y2="287.972"/>
<line fill="none" stroke="#000000" stroke-width="0.24" stroke-miterlimit="10" x1="287.806" y1="291.171" x2="302.922" y2="291.171"/>
<line fill="none" stroke="#000000" stroke-width="0.24" stroke-miterlimit="10" x1="287.806" y1="480.121" x2="302.922" y2="480.121"/>
<line fill="none" stroke="#000000" stroke-width="0.24" stroke-miterlimit="10" x1="284.607" y1="483.321" x2="302.922" y2="483.321"/>
<line fill="none" stroke="#000000" stroke-width="0.24" stroke-miterlimit="10" x1="287.806" y1="480.121" x2="287.806" y2="498.438"/>
<line fill="none" stroke="#000000" stroke-width="0.24" stroke-miterlimit="10" x1="284.607" y1="483.321" x2="284.607" y2="498.438"/>
<line fill="none" stroke="#000000" stroke-width="0.24" stroke-miterlimit="10" x1="18.566" y1="483.321" x2="18.566" y2="498.438"/>
<line fill="none" stroke="#000000" stroke-width="0.24" stroke-miterlimit="10" x1="15.366" y1="480.121" x2="15.366" y2="498.438"/>
<line fill="none" stroke="#000000" stroke-width="0.24" stroke-miterlimit="10" x1="18.566" y1="483.321" x2="0.25" y2="483.321"/>
<line fill="none" stroke="#000000" stroke-width="0.24" stroke-miterlimit="10" x1="15.366" y1="480.121" x2="0.25" y2="480.121"/>
<line fill="none" stroke="#000000" stroke-width="0.24" stroke-miterlimit="10" x1="15.366" y1="291.171" x2="0.25" y2="291.171"/>
<line fill="none" stroke="#000000" stroke-width="0.24" stroke-miterlimit="10" x1="18.566" y1="287.972" x2="0.25" y2="287.972"/>
<line fill="none" stroke="#000000" stroke-width="0.24" stroke-miterlimit="10" x1="151.586" y1="287.972" x2="151.586" y2="272.856"/>
<line fill="none" stroke="#000000" stroke-width="0.24" stroke-miterlimit="10" x1="136.47" y1="284.772" x2="166.702" y2="284.772"/>
<line fill="none" stroke="#000000" stroke-width="0.24" stroke-miterlimit="10" x1="151.586" y1="483.321" x2="151.586" y2="498.438"/>
<line fill="none" stroke="#000000" stroke-width="0.24" stroke-miterlimit="10" x1="166.702" y1="486.521" x2="136.47" y2="486.521"/>
<line fill="none" stroke="#000000" stroke-width="0.24" stroke-miterlimit="10" x1="287.806" y1="385.646" x2="302.922" y2="385.646"/>
<line fill="none" stroke="#000000" stroke-width="0.24" stroke-miterlimit="10" x1="291.006" y1="370.53" x2="291.006" y2="400.763"/>
<line fill="none" stroke="#000000" stroke-width="0.24" stroke-miterlimit="10" x1="15.366" y1="385.646" x2="0.25" y2="385.646"/>
<line fill="none" stroke="#000000" stroke-width="0.24" stroke-miterlimit="10" x1="12.167" y1="400.763" x2="12.167" y2="370.53"/>
<g>
	<rect x="15.366" y="287.972" fill-rule="evenodd" clip-rule="evenodd" fill="none" width="272.44" height="195.35"/>
	<g>
		<path fill-rule="evenodd" clip-rule="evenodd" fill="none" d="M59.244,363.681c0.567-0.567,1.335-0.886,2.138-0.886l0,0h195.525
			c1.669,0,3.022,1.354,3.022,3.023v7.679c0,1.67-1.353,3.023-3.022,3.023H61.382l0,0c-1.67,0-3.023-1.354-3.023-3.023v-7.679l0,0
			C58.358,365.016,58.677,364.248,59.244,363.681z"/>
		<rect x="58.358" y="362.795" fill-rule="evenodd" clip-rule="evenodd" fill="#EEEEEE" width="201.571" height="13.726"/>
	</g>
	<rect x="58.358" y="401.967" fill-rule="evenodd" clip-rule="evenodd" fill="#FFFFDD" width="201.571" height="21.598"/>
	<g>
		<polyline fill-rule="evenodd" clip-rule="evenodd" fill="none" points="58.358,426.465 58.358,425.576 118.83,425.576 
			118.83,426.465 118.83,427.354 58.358,427.354 		"/>
		
			<line fill="none" stroke="#000000" stroke-width="0.5" stroke-linecap="round" stroke-miterlimit="10" x1="58.358" y1="426.465" x2="118.83" y2="426.465"/>
	</g>
	<text transform="matrix(1 0 0 1 60.8008 431.749)" font-family="'ArialMT'" font-size="3.9994">1)</text>
	<text transform="matrix(1 0 0 1 66.3569 431.749)"><tspan x="0" y="0" font-family="'ArialMT'" font-size="3.9994">Since</tspan><tspan x="10.004" y="0" font-family="'ArialMT'" font-size="3.9994"> </tspan><tspan x="11.487" y="0" font-family="'ArialMT'" font-size="3.9994">AH</tspan><tspan x="17.043" y="0" font-family="'ArialMT'" font-size="3.9994"> </tspan><tspan x="18.526" y="0" font-family="'ArialMT'" font-size="3.9994">Formatter</tspan><tspan x="35.86" y="0" font-family="'ArialMT'" font-size="3.9994"> </tspan><tspan x="37.343" y="0" font-family="'ArialMT'" font-size="3.9994">is</tspan><tspan x="40.231" y="0" font-family="'ArialMT'" font-size="3.9994"> </tspan><tspan x="41.714" y="0" font-family="'ArialMT'" font-size="3.9994">print</tspan><tspan x="49.495" y="0" font-family="'ArialMT'" font-size="3.9994"> </tspan><tspan x="50.978" y="0" font-family="'ArialMT'" font-size="3.9994">formatting</tspan><tspan x="68.76" y="0" font-family="'ArialMT'" font-size="3.9994"> </tspan><tspan x="70.243" y="0" font-family="'ArialMT'" font-size="3.9994">software,</tspan><tspan x="86.469" y="0" font-family="'ArialMT'" font-size="3.9994"> </tspan><tspan x="87.953" y="0" font-family="'ArialMT'" font-size="3.9994">it</tspan><tspan x="89.952" y="0" font-family="'ArialMT'" font-size="3.9994"> </tspan><tspan x="91.435" y="0" font-family="'ArialMT'" font-size="3.9994">does</tspan><tspan x="100.108" y="0" font-family="'ArialMT'" font-size="3.9994"> </tspan><tspan x="101.591" y="0" font-family="'ArialMT'" font-size="3.9994">not</tspan><tspan x="107.151" y="0" font-family="'ArialMT'" font-size="3.9994"> </tspan><tspan x="108.634" y="0" font-family="'ArialMT'" font-size="3.9994">apply</tspan><tspan x="118.195" y="0" font-family="'ArialMT'" font-size="3.9994"> </tspan><tspan x="119.678" y="0" font-family="'ArialMT'" font-size="3.9994">@media</tspan><tspan x="134.631" y="0" font-family="'ArialMT'" font-size="3.9994"> </tspan><tspan x="136.114" y="0" font-family="'ArialMT'" font-size="3.9994">screen</tspan><tspan x="148.118" y="0" font-family="'ArialMT'" font-size="3.9994"> </tspan><tspan x="149.601" y="0" font-family="'ArialMT'" font-size="3.9994">rules</tspan><tspan x="158.27" y="0" font-family="'ArialMT'" font-size="3.9994"> </tspan><tspan x="159.753" y="0" font-family="'ArialMT'" font-size="3.9994">for</tspan><tspan x="164.42" y="0" font-family="'ArialMT'" font-size="3.9994"> </tspan><tspan x="165.903" y="0" font-family="'ArialMT'" font-size="3.9994">the</tspan><tspan x="171.463" y="0" font-family="'ArialMT'" font-size="3.9994"> </tspan><tspan x="172.946" y="0" font-family="'ArialMT'" font-size="3.9994">GUI</tspan><tspan x="180.057" y="0" font-family="'ArialMT'" font-size="3.9994"> </tspan><tspan x="181.54" y="0" font-family="'ArialMT'" font-size="3.9994">screen </tspan></text>
	<text transform="matrix(1 0 0 1 66.3584 436.5488)" font-family="'ArialMT'" font-size="3.9994">and instead applies @media print rule.</text>
	<text transform="matrix(1 0 0 1 58.3579 349.2202)" font-family="'Arial-BoldMT'" font-size="9.5986">Chapter 1. </text>
	<text transform="matrix(1 0 0 1 107.9634 349.2202)"><tspan x="0" y="0" font-family="'Arial-BoldMT'" font-size="9.5986">W</tspan><tspan x="8.896" y="0" font-family="'Arial-BoldMT'" font-size="9.5986">eb and Paged Media</tspan></text>
	<text transform="matrix(1 0 0 1 61.3779 371.5015)" font-family="'Arial-BoldMT'" font-size="6.3991">1.1 </text>
	<text transform="matrix(1 0 0 1 72.0522 371.5015)" font-family="'Arial-BoldMT'" font-size="6.3991">@media Rule</text>
	<text transform="matrix(1 0 0 1 58.356 385.3169)"><tspan x="0" y="0" font-family="'ArialMT'" font-size="4.7993">An</tspan><tspan x="5.87" y="0" font-family="'ArialMT'" font-size="4.7993" letter-spacing="1"> </tspan><tspan x="8.365" y="0" font-family="'ArialMT'" font-size="4.7993">@media</tspan><tspan x="26.309" y="0" font-family="'ArialMT'" font-size="4.7993" letter-spacing="1"> </tspan><tspan x="28.803" y="0" font-family="'ArialMT'" font-size="4.7993">delimits</tspan><tspan x="45.071" y="0" font-family="'ArialMT'" font-size="4.7993" letter-spacing="1"> </tspan><tspan x="47.566" y="0" font-family="'ArialMT'" font-size="4.7993">a</tspan><tspan x="50.235" y="0" font-family="'ArialMT'" font-size="4.7993" letter-spacing="1"> </tspan><tspan x="52.73" y="0" font-family="'ArialMT'" font-size="4.7993">set</tspan><tspan x="59.132" y="0" font-family="'ArialMT'" font-size="4.7993" letter-spacing="1"> </tspan><tspan x="61.627" y="0" font-family="'ArialMT'" font-size="4.7993">of</tspan><tspan x="65.63" y="0" font-family="'ArialMT'" font-size="4.7993" letter-spacing="1"> </tspan><tspan x="68.125" y="0" font-family="'ArialMT'" font-size="4.7993">CSS</tspan><tspan x="77.993" y="0" font-family="'ArialMT'" font-size="4.7993" letter-spacing="1"> </tspan><tspan x="80.487" y="0" font-family="'ArialMT'" font-size="4.7993">style</tspan><tspan x="90.355" y="0" font-family="'ArialMT'" font-size="4.7993" letter-spacing="1"> </tspan><tspan x="92.851" y="0" font-family="'ArialMT'" font-size="4.7993">sheet</tspan><tspan x="104.591" y="0" font-family="'ArialMT'" font-size="4.7993" letter-spacing="1"> </tspan><tspan x="107.085" y="0" font-family="'ArialMT'" font-size="4.7993">rules</tspan><tspan x="117.488" y="0" font-family="'ArialMT'" font-size="4.7993" letter-spacing="1"> </tspan><tspan x="119.983" y="0" font-family="'ArialMT'" font-size="4.7993">specific</tspan><tspan x="135.986" y="0" font-family="'ArialMT'" font-size="4.7993" letter-spacing="1"> </tspan><tspan x="138.481" y="0" font-family="'ArialMT'" font-size="4.7993">to</tspan><tspan x="142.483" y="0" font-family="'ArialMT'" font-size="4.7993" letter-spacing="1"> </tspan><tspan x="144.978" y="0" font-family="'ArialMT'" font-size="4.7993">a</tspan><tspan x="147.647" y="0" font-family="'ArialMT'" font-size="4.7993" letter-spacing="1"> </tspan><tspan x="150.142" y="0" font-family="'ArialMT'" font-size="4.7993">target</tspan><tspan x="162.415" y="0" font-family="'ArialMT'" font-size="4.7993" letter-spacing="1"> </tspan><tspan x="164.91" y="0" font-family="'ArialMT'" font-size="4.7993">medium.</tspan><tspan x="183.313" y="0" font-family="'ArialMT'" font-size="4.7993" letter-spacing="1"> </tspan><tspan x="185.807" y="0" font-family="'ArialMT'" font-size="4.7993">Specify </tspan></text>
	<text transform="matrix(1 0 0 1 58.3589 391.0762)"><tspan x="0" y="0" font-family="'ArialMT'" font-size="4.7993">@media</tspan><tspan x="17.943" y="0" font-family="'ArialMT'" font-size="4.7993"> </tspan><tspan x="19.349" y="0" font-family="'ArialMT'" font-size="4.7993">print</tspan><tspan x="28.685" y="0" font-family="'ArialMT'" font-size="4.7993"> </tspan><tspan x="30.09" y="0" font-family="'ArialMT'" font-size="4.7993">for</tspan><tspan x="35.691" y="0" font-family="'ArialMT'" font-size="4.7993"> </tspan><tspan x="37.097" y="0" font-family="'ArialMT'" font-size="4.7993">rules</tspan><tspan x="47.499" y="0" font-family="'ArialMT'" font-size="4.7993"> </tspan><tspan x="48.904" y="0" font-family="'ArialMT'" font-size="4.7993">specific</tspan><tspan x="64.907" y="0" font-family="'ArialMT'" font-size="4.7993"> </tspan><tspan x="66.313" y="0" font-family="'ArialMT'" font-size="4.7993">to</tspan><tspan x="70.315" y="0" font-family="'ArialMT'" font-size="4.7993"> </tspan><tspan x="71.721" y="0" font-family="'ArialMT'" font-size="4.7993">paged</tspan><tspan x="85.066" y="0" font-family="'ArialMT'" font-size="4.7993"> </tspan><tspan x="86.472" y="0" font-family="'ArialMT'" font-size="4.7993">media</tspan><tspan x="99.543" y="0" font-family="'ArialMT'" font-size="4.7993"> </tspan><tspan x="100.949" y="0" font-family="'ArialMT'" font-size="4.7993">and</tspan><tspan x="108.956" y="0" font-family="'ArialMT'" font-size="4.7993"> </tspan><tspan x="110.362" y="0" font-family="'ArialMT'" font-size="4.7993">@media</tspan><tspan x="128.305" y="0" font-family="'ArialMT'" font-size="4.7993"> </tspan><tspan x="129.71" y="0" font-family="'ArialMT'" font-size="4.7993">screen</tspan><tspan x="144.115" y="0" font-family="'ArialMT'" font-size="4.7993"> </tspan><tspan x="145.521" y="0" font-family="'ArialMT'" font-size="4.7993">for</tspan><tspan x="151.122" y="0" font-family="'ArialMT'" font-size="4.7993"> </tspan><tspan x="152.527" y="0" font-family="'ArialMT'" font-size="4.7993">rules</tspan><tspan x="162.929" y="0" font-family="'ArialMT'" font-size="4.7993"> </tspan><tspan x="164.334" y="0" font-family="'ArialMT'" font-size="4.7993">specific</tspan><tspan x="180.338" y="0" font-family="'ArialMT'" font-size="4.7993"> </tspan><tspan x="181.743" y="0" font-family="'ArialMT'" font-size="4.7993">to</tspan><tspan x="185.746" y="0" font-family="'ArialMT'" font-size="4.7993"> </tspan><tspan x="187.151" y="0" font-family="'ArialMT'" font-size="4.7993">screen </tspan></text>
	<text transform="matrix(1 0 0 1 58.3555 397.0146)"><tspan x="0" y="0" font-family="'ArialMT'" font-size="4.7993">displa</tspan><tspan x="12.54" y="0" font-family="'ArialMT'" font-size="4.7993">y</tspan><tspan x="14.584" y="0" font-family="'ArialMT'" font-size="4.7993">. </tspan></text>
	<text transform="matrix(1 0 0 1 75.6074 395.4141)" font-family="'ArialMT'" font-size="3.1995">1)</text>
	<text transform="matrix(1 0 0 1 78.4517 397.0146)" font-family="'ArialMT'" font-size="4.7993">.</text>
	<text transform="matrix(1 0 0 1 59.2217 406.3379)" font-family="'CourierNewPSMT'" font-size="4.3194">@media print {     /* apply to page media */</text>
	<text transform="matrix(1 0 0 1 59.2217 411.5215)" font-family="'CourierNewPSMT'" font-size="4.3194">  body {</text>
	<text transform="matrix(1 0 0 1 59.2217 416.7051)" font-family="'CourierNewPSMT'" font-size="4.3194">    margin: 0%;</text>
	<text transform="matrix(1 0 0 1 59.2217 421.8887)" font-family="'CourierNewPSMT'" font-size="4.3194">    font-size: 10pt }</text>
	<text transform="matrix(1 0 0 1 257.5571 460.1875)" font-family="'ArialMT'" font-size="4.2661">1</text>
</g>
<g>
	<defs>
		<rect id="XMLID_12_" x="137.645" y="528.818" width="306.238" height="228.566"/>
	</defs>
	<clipPath id="XMLID_17_">
		<use xlink:href="#XMLID_12_" />
	</clipPath>
	
		<line clip-path="url(#XMLID_17_)" fill="none" stroke="#000000" stroke-width="0.24" stroke-miterlimit="10" x1="153.52" y1="547.916" x2="153.52" y2="529.463"/>
	
		<line clip-path="url(#XMLID_17_)" fill="none" stroke="#000000" stroke-width="0.24" stroke-miterlimit="10" x1="156.743" y1="544.692" x2="156.743" y2="529.463"/>
	
		<line clip-path="url(#XMLID_17_)" fill="none" stroke="#000000" stroke-width="0.24" stroke-miterlimit="10" x1="424.786" y1="544.692" x2="424.786" y2="529.463"/>
	
		<line clip-path="url(#XMLID_17_)" fill="none" stroke="#000000" stroke-width="0.24" stroke-miterlimit="10" x1="428.008" y1="547.916" x2="428.008" y2="529.463"/>
	
		<line clip-path="url(#XMLID_17_)" fill="none" stroke="#000000" stroke-width="0.24" stroke-miterlimit="10" x1="424.786" y1="544.692" x2="443.239" y2="544.692"/>
	
		<line clip-path="url(#XMLID_17_)" fill="none" stroke="#000000" stroke-width="0.24" stroke-miterlimit="10" x1="428.008" y1="547.916" x2="443.239" y2="547.916"/>
	
		<line clip-path="url(#XMLID_17_)" fill="none" stroke="#000000" stroke-width="0.24" stroke-miterlimit="10" x1="428.008" y1="738.287" x2="443.239" y2="738.287"/>
	
		<line clip-path="url(#XMLID_17_)" fill="none" stroke="#000000" stroke-width="0.24" stroke-miterlimit="10" x1="424.786" y1="741.511" x2="443.239" y2="741.511"/>
	
		<line clip-path="url(#XMLID_17_)" fill="none" stroke="#000000" stroke-width="0.24" stroke-miterlimit="10" x1="428.008" y1="738.287" x2="428.008" y2="756.74"/>
	
		<line clip-path="url(#XMLID_17_)" fill="none" stroke="#000000" stroke-width="0.24" stroke-miterlimit="10" x1="424.786" y1="741.511" x2="424.786" y2="756.74"/>
	
		<line clip-path="url(#XMLID_17_)" fill="none" stroke="#000000" stroke-width="0.24" stroke-miterlimit="10" x1="156.743" y1="741.511" x2="156.743" y2="756.74"/>
	
		<line clip-path="url(#XMLID_17_)" fill="none" stroke="#000000" stroke-width="0.24" stroke-miterlimit="10" x1="153.52" y1="738.287" x2="153.52" y2="756.74"/>
	
		<line clip-path="url(#XMLID_17_)" fill="none" stroke="#000000" stroke-width="0.24" stroke-miterlimit="10" x1="156.743" y1="741.511" x2="138.29" y2="741.511"/>
	
		<line clip-path="url(#XMLID_17_)" fill="none" stroke="#000000" stroke-width="0.24" stroke-miterlimit="10" x1="153.52" y1="738.287" x2="138.29" y2="738.287"/>
	
		<line clip-path="url(#XMLID_17_)" fill="none" stroke="#000000" stroke-width="0.24" stroke-miterlimit="10" x1="153.52" y1="547.916" x2="138.29" y2="547.916"/>
	
		<line clip-path="url(#XMLID_17_)" fill="none" stroke="#000000" stroke-width="0.24" stroke-miterlimit="10" x1="156.743" y1="544.692" x2="138.29" y2="544.692"/>
	
		<line clip-path="url(#XMLID_17_)" fill="none" stroke="#000000" stroke-width="0.24" stroke-miterlimit="10" x1="290.764" y1="544.692" x2="290.764" y2="529.463"/>
	
		<line clip-path="url(#XMLID_17_)" fill="none" stroke="#000000" stroke-width="0.24" stroke-miterlimit="10" x1="275.534" y1="541.469" x2="305.995" y2="541.469"/>
	
		<line clip-path="url(#XMLID_17_)" fill="none" stroke="#000000" stroke-width="0.24" stroke-miterlimit="10" x1="290.764" y1="741.511" x2="290.764" y2="756.74"/>
	
		<line clip-path="url(#XMLID_17_)" fill="none" stroke="#000000" stroke-width="0.24" stroke-miterlimit="10" x1="305.995" y1="744.734" x2="275.534" y2="744.734"/>
	
		<line clip-path="url(#XMLID_17_)" fill="none" stroke="#000000" stroke-width="0.24" stroke-miterlimit="10" x1="428.008" y1="643.102" x2="443.239" y2="643.102"/>
	
		<line clip-path="url(#XMLID_17_)" fill="none" stroke="#000000" stroke-width="0.24" stroke-miterlimit="10" x1="431.233" y1="627.871" x2="431.233" y2="658.331"/>
	
		<line clip-path="url(#XMLID_17_)" fill="none" stroke="#000000" stroke-width="0.24" stroke-miterlimit="10" x1="153.52" y1="643.102" x2="138.29" y2="643.102"/>
	
		<line clip-path="url(#XMLID_17_)" fill="none" stroke="#000000" stroke-width="0.24" stroke-miterlimit="10" x1="150.296" y1="658.331" x2="150.296" y2="627.871"/>
	<g clip-path="url(#XMLID_17_)">
		<defs>
			<rect id="XMLID_11_" x="153.52" y="544.692" width="274.489" height="196.818"/>
		</defs>
		<clipPath id="XMLID_18_">
			<use xlink:href="#XMLID_11_" />
		</clipPath>
		
			<rect x="181.605" y="590.559" clip-path="url(#XMLID_18_)" fill-rule="evenodd" clip-rule="evenodd" fill="#FFFFDD" width="203.088" height="32.205"/>
		<g clip-path="url(#XMLID_18_)">
			<text transform="matrix(1 0 0 1 182.4761 594.0928)" font-family="'CourierNewPSMT'" font-size="4.3519">  }</text>
		</g>
		<g clip-path="url(#XMLID_18_)">
			<text transform="matrix(1 0 0 1 182.4761 599.3145)" font-family="'CourierNewPSMT'" font-size="4.3519">@media screen {    /* apply to screen display */</text>
		</g>
		<g clip-path="url(#XMLID_18_)">
			<text transform="matrix(1 0 0 1 182.4761 604.5371)" font-family="'CourierNewPSMT'" font-size="4.3519">  body {</text>
		</g>
		<g clip-path="url(#XMLID_18_)">
			<text transform="matrix(1 0 0 1 182.4761 609.7598)" font-family="'CourierNewPSMT'" font-size="4.3519">    margin: 10%;</text>
		</g>
		<g clip-path="url(#XMLID_18_)">
			<text transform="matrix(1 0 0 1 182.4761 614.9814)" font-family="'CourierNewPSMT'" font-size="4.3519">    font-size: 12px }</text>
		</g>
		<g clip-path="url(#XMLID_18_)">
			<text transform="matrix(1 0 0 1 182.4761 620.2041)" font-family="'CourierNewPSMT'" font-size="4.3519">  }</text>
		</g>
		<g clip-path="url(#XMLID_18_)">
			<text transform="matrix(1 0 0 1 186.4409 630.5381)"><tspan x="0" y="0" font-family="'ArialMT'" font-size="4.8354">Screen display and printing require di</tspan><tspan x="79.832" y="0" font-family="'ArialMT'" font-size="4.8354">f</tspan><tspan x="81.093" y="0" font-family="'ArialMT'" font-size="4.8354">ferent approaches to designing the layout.</tspan></text>
		</g>
		<g clip-path="url(#XMLID_18_)">
			<text transform="matrix(1 0 0 1 186.4409 636.3408)"><tspan x="0" y="0" font-family="'ArialMT'" font-size="4.8354">The</tspan><tspan x="8.332" y="0" font-family="'ArialMT'" font-size="4.8354" letter-spacing="1"> </tspan><tspan x="11.087" y="0" font-family="'ArialMT'" font-size="4.8354">size</tspan><tspan x="19.687" y="0" font-family="'ArialMT'" font-size="4.8354" letter-spacing="1"> </tspan><tspan x="22.442" y="0" font-family="'ArialMT'" font-size="4.8354">and</tspan><tspan x="30.509" y="0" font-family="'ArialMT'" font-size="4.8354" letter-spacing="1"> </tspan><tspan x="33.265" y="0" font-family="'ArialMT'" font-size="4.8354">aspect</tspan><tspan x="47.511" y="0" font-family="'ArialMT'" font-size="4.8354" letter-spacing="1"> </tspan><tspan x="50.267" y="0" font-family="'ArialMT'" font-size="4.8354">ratio</tspan><tspan x="59.673" y="0" font-family="'ArialMT'" font-size="4.8354" letter-spacing="1"> </tspan><tspan x="62.428" y="0" font-family="'ArialMT'" font-size="4.8354">of</tspan><tspan x="66.461" y="0" font-family="'ArialMT'" font-size="4.8354" letter-spacing="1"> </tspan><tspan x="69.216" y="0" font-family="'ArialMT'" font-size="4.8354">a</tspan><tspan x="71.906" y="0" font-family="'ArialMT'" font-size="4.8354" letter-spacing="1"> </tspan><tspan x="74.661" y="0" font-family="'ArialMT'" font-size="4.8354">screen</tspan><tspan x="89.174" y="0" font-family="'ArialMT'" font-size="4.8354" letter-spacing="1"> </tspan><tspan x="91.93" y="0" font-family="'ArialMT'" font-size="4.8354">display</tspan><tspan x="106.981" y="0" font-family="'ArialMT'" font-size="4.8354" letter-spacing="1"> </tspan><tspan x="109.736" y="0" font-family="'ArialMT'" font-size="4.8354">may</tspan><tspan x="118.872" y="0" font-family="'ArialMT'" font-size="4.8354" letter-spacing="1"> </tspan><tspan x="121.627" y="0" font-family="'ArialMT'" font-size="4.8354">change</tspan><tspan x="137.491" y="0" font-family="'ArialMT'" font-size="4.8354" letter-spacing="1"> </tspan><tspan x="140.246" y="0" font-family="'ArialMT'" font-size="4.8354">depending</tspan><tspan x="162.834" y="0" font-family="'ArialMT'" font-size="4.8354" letter-spacing="1"> </tspan><tspan x="165.59" y="0" font-family="'ArialMT'" font-size="4.8354">on</tspan><tspan x="170.968" y="0" font-family="'ArialMT'" font-size="4.8354" letter-spacing="1"> </tspan><tspan x="173.724" y="0" font-family="'ArialMT'" font-size="4.8354">the</tspan><tspan x="180.445" y="0" font-family="'ArialMT'" font-size="4.8354" letter-spacing="1"> </tspan><tspan x="183.201" y="0" font-family="'ArialMT'" font-size="4.8354">display </tspan></text>
		</g>
		<g clip-path="url(#XMLID_18_)">
			<text transform="matrix(1 0 0 1 181.605 642.1436)"><tspan x="0" y="0" font-family="'ArialMT'" font-size="4.8354">environment,</tspan><tspan x="27.952" y="0" font-family="'ArialMT'" font-size="4.8354"> </tspan><tspan x="29.678" y="0" font-family="'ArialMT'" font-size="4.8354">so</tspan><tspan x="34.785" y="0" font-family="'ArialMT'" font-size="4.8354"> </tspan><tspan x="36.51" y="0" font-family="'ArialMT'" font-size="4.8354">it</tspan><tspan x="38.928" y="0" font-family="'ArialMT'" font-size="4.8354"> </tspan><tspan x="40.653" y="0" font-family="'ArialMT'" font-size="4.8354">is</tspan><tspan x="44.145" y="0" font-family="'ArialMT'" font-size="4.8354"> </tspan><tspan x="45.871" y="0" font-family="'ArialMT'" font-size="4.8354">hard</tspan><tspan x="55.548" y="0" font-family="'ArialMT'" font-size="4.8354"> </tspan><tspan x="57.274" y="0" font-family="'ArialMT'" font-size="4.8354">to</tspan><tspan x="61.307" y="0" font-family="'ArialMT'" font-size="4.8354"> </tspan><tspan x="63.032" y="0" font-family="'ArialMT'" font-size="4.8354">know</tspan><tspan x="74.32" y="0" font-family="'ArialMT'" font-size="4.8354"> </tspan><tspan x="76.045" y="0" font-family="'ArialMT'" font-size="4.8354">how</tspan><tspan x="84.916" y="0" font-family="'ArialMT'" font-size="4.8354"> </tspan><tspan x="86.642" y="0" font-family="'ArialMT'" font-size="4.8354">to</tspan><tspan x="90.674" y="0" font-family="'ArialMT'" font-size="4.8354"> </tspan><tspan x="92.399" y="0" font-family="'ArialMT'" font-size="4.8354">accurately</tspan><tspan x="114.438" y="0" font-family="'ArialMT'" font-size="4.8354"> </tspan><tspan x="116.163" y="0" font-family="'ArialMT'" font-size="4.8354">specify</tspan><tspan x="131.212" y="0" font-family="'ArialMT'" font-size="4.8354"> </tspan><tspan x="132.938" y="0" font-family="'ArialMT'" font-size="4.8354">the</tspan><tspan x="139.659" y="0" font-family="'ArialMT'" font-size="4.8354"> </tspan><tspan x="141.385" y="0" font-family="'ArialMT'" font-size="4.8354">size</tspan><tspan x="149.983" y="0" font-family="'ArialMT'" font-size="4.8354"> </tspan><tspan x="151.709" y="0" font-family="'ArialMT'" font-size="4.8354">and</tspan><tspan x="159.777" y="0" font-family="'ArialMT'" font-size="4.8354"> </tspan><tspan x="161.502" y="0" font-family="'ArialMT'" font-size="4.8354">arrangement</tspan><tspan x="188.919" y="0" font-family="'ArialMT'" font-size="4.8354"> </tspan><tspan x="190.645" y="0" font-family="'ArialMT'" font-size="4.8354">of</tspan><tspan x="194.677" y="0" font-family="'ArialMT'" font-size="4.8354"> </tspan><tspan x="196.402" y="0" font-family="'ArialMT'" font-size="4.8354">the </tspan></text>
		</g>
		<g clip-path="url(#XMLID_18_)">
			<text transform="matrix(1 0 0 1 181.6045 647.9463)"><tspan x="0" y="0" font-family="'ArialMT'" font-size="4.8354">layout</tspan><tspan x="12.903" y="0" font-family="'ArialMT'" font-size="4.8354" letter-spacing="2"> </tspan><tspan x="17.245" y="0" font-family="'ArialMT'" font-size="4.8354">target.</tspan><tspan x="30.953" y="0" font-family="'ArialMT'" font-size="4.8354" letter-spacing="2"> </tspan><tspan x="35.294" y="0" font-family="'ArialMT'" font-size="4.8354">The</tspan><tspan x="43.626" y="0" font-family="'ArialMT'" font-size="4.8354" letter-spacing="2"> </tspan><tspan x="47.968" y="0" font-family="'ArialMT'" font-size="4.8354">style</tspan><tspan x="57.91" y="0" font-family="'ArialMT'" font-size="4.8354" letter-spacing="2"> </tspan><tspan x="62.251" y="0" font-family="'ArialMT'" font-size="4.8354">specification</tspan><tspan x="88.86" y="0" font-family="'ArialMT'" font-size="4.8354" letter-spacing="2"> </tspan><tspan x="93.202" y="0" font-family="'ArialMT'" font-size="4.8354">should</tspan><tspan x="107.451" y="0" font-family="'ArialMT'" font-size="4.8354" letter-spacing="2"> </tspan><tspan x="111.792" y="0" font-family="'ArialMT'" font-size="4.8354">consider</tspan><tspan x="130.069" y="0" font-family="'ArialMT'" font-size="4.8354" letter-spacing="2"> </tspan><tspan x="134.41" y="0" font-family="'ArialMT'" font-size="4.8354">using</tspan><tspan x="145.969" y="0" font-family="'ArialMT'" font-size="4.8354" letter-spacing="2"> </tspan><tspan x="150.311" y="0" font-family="'ArialMT'" font-size="4.8354">relative</tspan><tspan x="165.899" y="0" font-family="'ArialMT'" font-size="4.8354" letter-spacing="2"> </tspan><tspan x="170.24" y="0" font-family="'ArialMT'" font-size="4.8354">dimensions</tspan><tspan x="194.698" y="0" font-family="'ArialMT'" font-size="4.8354" letter-spacing="2"> </tspan><tspan x="199.04" y="0" font-family="'ArialMT'" font-size="4.8354">to </tspan></text>
		</g>
		<g clip-path="url(#XMLID_18_)">
			<text transform="matrix(1 0 0 1 181.6064 653.748)" font-family="'ArialMT'" font-size="4.8354">accommodate various environments.</text>
		</g>
		<g clip-path="url(#XMLID_18_)">
			<text transform="matrix(1 0 0 1 186.4419 659.5508)"><tspan x="0" y="0" font-family="'ArialMT'" font-size="4.8354">In</tspan><tspan x="4.033" y="0" font-family="'ArialMT'" font-size="4.8354"> </tspan><tspan x="5.637" y="0" font-family="'ArialMT'" font-size="4.8354">printing,</tspan><tspan x="22.84" y="0" font-family="'ArialMT'" font-size="4.8354"> </tspan><tspan x="24.444" y="0" font-family="'ArialMT'" font-size="4.8354">there</tspan><tspan x="35.466" y="0" font-family="'ArialMT'" font-size="4.8354"> </tspan><tspan x="37.07" y="0" font-family="'ArialMT'" font-size="4.8354">is</tspan><tspan x="40.562" y="0" font-family="'ArialMT'" font-size="4.8354"> </tspan><tspan x="42.167" y="0" font-family="'ArialMT'" font-size="4.8354">an</tspan><tspan x="47.545" y="0" font-family="'ArialMT'" font-size="4.8354"> </tspan><tspan x="49.149" y="0" font-family="'ArialMT'" font-size="4.8354">expectation</tspan><tspan x="73.881" y="0" font-family="'ArialMT'" font-size="4.8354"> </tspan><tspan x="75.486" y="0" font-family="'ArialMT'" font-size="4.8354">that</tspan><tspan x="83.551" y="0" font-family="'ArialMT'" font-size="4.8354"> </tspan><tspan x="85.156" y="0" font-family="'ArialMT'" font-size="4.8354">formatted</tspan><tspan x="105.581" y="0" font-family="'ArialMT'" font-size="4.8354"> </tspan><tspan x="107.186" y="0" font-family="'ArialMT'" font-size="4.8354">objects</tspan><tspan x="122.507" y="0" font-family="'ArialMT'" font-size="4.8354"> </tspan><tspan x="124.111" y="0" font-family="'ArialMT'" font-size="4.8354">are</tspan><tspan x="131.1" y="0" font-family="'ArialMT'" font-size="4.8354"> </tspan><tspan x="132.704" y="0" font-family="'ArialMT'" font-size="4.8354">arranged</tspan><tspan x="152.061" y="0" font-family="'ArialMT'" font-size="4.8354"> </tspan><tspan x="153.665" y="0" font-family="'ArialMT'" font-size="4.8354">neatly</tspan><tspan x="166.567" y="0" font-family="'ArialMT'" font-size="4.8354"> </tspan><tspan x="168.172" y="0" font-family="'ArialMT'" font-size="4.8354">on</tspan><tspan x="173.551" y="0" font-family="'ArialMT'" font-size="4.8354"> </tspan><tspan x="175.155" y="0" font-family="'ArialMT'" font-size="4.8354">fixed-sized </tspan></text>
		</g>
		<g clip-path="url(#XMLID_18_)">
			<text transform="matrix(1 0 0 1 181.604 665.3525)"><tspan x="0" y="0" font-family="'ArialMT'" font-size="4.8354">pape</tspan><tspan x="10.757" y="0" font-family="'ArialMT'" font-size="4.8354">r</tspan><tspan x="12.101" y="0" font-family="'ArialMT'" font-size="4.8354">,</tspan><tspan x="13.445" y="0" font-family="'ArialMT'" font-size="4.8354" letter-spacing="1"> </tspan><tspan x="16.05" y="0" font-family="'ArialMT'" font-size="4.8354">therefore,</tspan><tspan x="36.747" y="0" font-family="'ArialMT'" font-size="4.8354" letter-spacing="1"> </tspan><tspan x="39.353" y="0" font-family="'ArialMT'" font-size="4.8354">the</tspan><tspan x="46.074" y="0" font-family="'ArialMT'" font-size="4.8354" letter-spacing="1"> </tspan><tspan x="48.68" y="0" font-family="'ArialMT'" font-size="4.8354">layout</tspan><tspan x="61.583" y="0" font-family="'ArialMT'" font-size="4.8354" letter-spacing="1"> </tspan><tspan x="64.188" y="0" font-family="'ArialMT'" font-size="4.8354">specification</tspan><tspan x="90.797" y="0" font-family="'ArialMT'" font-size="4.8354" letter-spacing="1"> </tspan><tspan x="93.403" y="0" font-family="'ArialMT'" font-size="4.8354">should</tspan><tspan x="107.651" y="0" font-family="'ArialMT'" font-size="4.8354" letter-spacing="1"> </tspan><tspan x="110.257" y="0" font-family="'ArialMT'" font-size="4.8354">precisely</tspan><tspan x="129.337" y="0" font-family="'ArialMT'" font-size="4.8354" letter-spacing="1"> </tspan><tspan x="131.942" y="0" font-family="'ArialMT'" font-size="4.8354">control</tspan><tspan x="146.455" y="0" font-family="'ArialMT'" font-size="4.8354" letter-spacing="1"> </tspan><tspan x="149.061" y="0" font-family="'ArialMT'" font-size="4.8354">the</tspan><tspan x="155.783" y="0" font-family="'ArialMT'" font-size="4.8354" letter-spacing="1"> </tspan><tspan x="158.389" y="0" font-family="'ArialMT'" font-size="4.8354">layout</tspan><tspan x="171.291" y="0" font-family="'ArialMT'" font-size="4.8354" letter-spacing="1"> </tspan><tspan x="173.896" y="0" font-family="'ArialMT'" font-size="4.8354">by</tspan><tspan x="179.004" y="0" font-family="'ArialMT'" font-size="4.8354" letter-spacing="1"> </tspan><tspan x="181.609" y="0" font-family="'ArialMT'" font-size="4.8354">specifying </tspan></text>
		</g>
		<g clip-path="url(#XMLID_18_)">
			<text transform="matrix(1 0 0 1 181.6074 671.1563)"><tspan x="0" y="0" font-family="'ArialMT'" font-size="4.8354">absolute</tspan><tspan x="18.282" y="0" font-family="'ArialMT'" font-size="4.8354"> </tspan><tspan x="19.833" y="0" font-family="'ArialMT'" font-size="4.8354">dimensions</tspan><tspan x="44.291" y="0" font-family="'ArialMT'" font-size="4.8354"> </tspan><tspan x="45.842" y="0" font-family="'ArialMT'" font-size="4.8354">for</tspan><tspan x="51.485" y="0" font-family="'ArialMT'" font-size="4.8354"> </tspan><tspan x="53.037" y="0" font-family="'ArialMT'" font-size="4.8354">the</tspan><tspan x="59.758" y="0" font-family="'ArialMT'" font-size="4.8354"> </tspan><tspan x="61.31" y="0" font-family="'ArialMT'" font-size="4.8354">size</tspan><tspan x="69.909" y="0" font-family="'ArialMT'" font-size="4.8354"> </tspan><tspan x="71.46" y="0" font-family="'ArialMT'" font-size="4.8354">and</tspan><tspan x="79.528" y="0" font-family="'ArialMT'" font-size="4.8354"> </tspan><tspan x="81.079" y="0" font-family="'ArialMT'" font-size="4.8354">position</tspan><tspan x="97.746" y="0" font-family="'ArialMT'" font-size="4.8354"> </tspan><tspan x="99.297" y="0" font-family="'ArialMT'" font-size="4.8354">of</tspan><tspan x="103.33" y="0" font-family="'ArialMT'" font-size="4.8354"> </tspan><tspan x="104.881" y="0" font-family="'ArialMT'" font-size="4.8354">the</tspan><tspan x="111.603" y="0" font-family="'ArialMT'" font-size="4.8354"> </tspan><tspan x="113.154" y="0" font-family="'ArialMT'" font-size="4.8354">formatting</tspan><tspan x="134.654" y="0" font-family="'ArialMT'" font-size="4.8354"> </tspan><tspan x="136.206" y="0" font-family="'ArialMT'" font-size="4.8354">objects</tspan><tspan x="151.526" y="0" font-family="'ArialMT'" font-size="4.8354"> </tspan><tspan x="153.078" y="0" font-family="'ArialMT'" font-size="4.8354">starting</tspan><tspan x="168.934" y="0" font-family="'ArialMT'" font-size="4.8354"> </tspan><tspan x="170.485" y="0" font-family="'ArialMT'" font-size="4.8354">with</tspan><tspan x="179.084" y="0" font-family="'ArialMT'" font-size="4.8354"> </tspan><tspan x="180.635" y="0" font-family="'ArialMT'" font-size="4.8354">the</tspan><tspan x="187.358" y="0" font-family="'ArialMT'" font-size="4.8354"> </tspan><tspan x="188.909" y="0" font-family="'ArialMT'" font-size="4.8354">size</tspan><tspan x="197.507" y="0" font-family="'ArialMT'" font-size="4.8354"> </tspan><tspan x="199.059" y="0" font-family="'ArialMT'" font-size="4.8354">of </tspan></text>
		</g>
		<g clip-path="url(#XMLID_18_)">
			<text transform="matrix(1 0 0 1 181.6074 676.958)" font-family="'ArialMT'" font-size="4.8354">its characters.</text>
		</g>
		<g clip-path="url(#XMLID_18_)">
			<text transform="matrix(1 0 0 1 181.6055 570.4756)" font-family="'ArialMT'" font-size="4.2982">Introduction to CSS for Paged Media</text>
		</g>
		<g clip-path="url(#XMLID_18_)">
			<text transform="matrix(1 0 0 1 181.6055 718.2031)" font-family="'ArialMT'" font-size="4.2982">2</text>
		</g>
	</g>
</g>
</svg>
