<?xml version="1.0" encoding="utf-8"?>
<!-- Generator: Adobe Illustrator 12.0.0, SVG Export Plug-In  -->
<!DOCTYPE svg PUBLIC "-//W3C//DTD SVG 1.1//EN" "http://www.w3.org/Graphics/SVG/1.1/DTD/svg11.dtd" [
	<!ENTITY ns_flows "http://ns.adobe.com/Flows/1.0/">
	<!ENTITY ns_svg "http://www.w3.org/2000/svg">
	<!ENTITY ns_xlink "http://www.w3.org/1999/xlink">
]>
<svg  version="1.1" xmlns="&ns_svg;" xmlns:xlink="&ns_xlink;" xmlns:a="http://ns.adobe.com/AdobeSVGViewerExtensions/3.0/"
	 width="437" height="362" viewBox="-0.369 -0.5 437 362" enable-background="new -0.369 -0.5 437 362" xml:space="preserve">
<defs>
</defs>
<polygon fill="#FFFFFF" stroke="#000000" points="435.48,360.135 0.631,360.135 0.5,0.5 435.349,0.5 "/>
<polygon fill="#FFFFFF" stroke="#939598" points="328.98,287.384 107.877,287.384 107.747,73.525 328.849,73.525 "/>
<rect x="11.5" y="293.053" fill="#FFFFFF" stroke="#939598" stroke-dasharray="4" width="90.708" height="56.693"/>
<rect x="11.5" y="237.16" fill="#FFFFFF" stroke="#939598" stroke-dasharray="4" width="90.708" height="50.224"/>
<rect x="11.369" y="73.525" fill="#FFFFFF" stroke="#939598" stroke-dasharray="4" width="90.708" height="56.063"/>
<polygon fill="#FFFFFF" stroke="#939598" stroke-dasharray="4" points="102.077,135.257 11.369,135.257 11.5,231.491 
	102.208,231.491 "/>
<rect x="334.236" y="237.035" fill="#FFFFFF" stroke="#939598" stroke-dasharray="4" width="90.709" height="50.224"/>
<rect x="334.105" y="73.4" fill="#FFFFFF" stroke="#939598" stroke-dasharray="4" width="90.709" height="56.063"/>
<polygon fill="#FFFFFF" stroke="#939598" stroke-dasharray="4" points="424.814,135.132 334.105,135.132 334.236,231.366 
	424.945,231.366 "/>
<rect x="260.949" y="293.053" fill="#FFFFFF" stroke="#939598" stroke-dasharray="4" width="68.031" height="56.693"/>
<rect x="181.579" y="293.053" fill="#FFFFFF" stroke="#939598" stroke-dasharray="4" width="73.7" height="56.693"/>
<rect x="107.877" y="293.053" fill="#FFFFFF" stroke="#939598" stroke-dasharray="4" width="68.031" height="56.693"/>
<rect x="260.818" y="11.162" fill="#FFFFFF" stroke="#939598" stroke-dasharray="4" width="68.031" height="56.693"/>
<rect x="181.448" y="11.162" fill="#FFFFFF" stroke="#939598" stroke-dasharray="4" width="73.7" height="56.693"/>
<rect x="107.747" y="11.162" fill="#FFFFFF" stroke="#939598" stroke-dasharray="4" width="68.031" height="56.693"/>
<rect x="11.369" y="11.162" fill="#FFFFFF" stroke="#939598" stroke-dasharray="4" width="90.708" height="56.693"/>
<rect x="333.98" y="11.162" fill="#FFFFFF" stroke="#939598" stroke-dasharray="4" width="90.709" height="56.693"/>
<rect x="334.236" y="293.053" fill="#FFFFFF" stroke="#939598" stroke-dasharray="4" width="90.709" height="56.693"/>
<text transform="matrix(1 0 0 1 111.8491 42.0645)" font-family="'SourceSansPro-Regular'" font-size="9.5">@top-left</text>
<text transform="matrix(1 0 0 1 193.2378 42.0645)" font-family="'SourceSansPro-Regular'" font-size="9.5">@top-center</text>
<text transform="matrix(1 0 0 1 30.9976 42.0645)" font-family="'SourceSansPro-Regular'" font-size="9.5">@top-left-corner</text>
<text transform="matrix(1 0 0 1 282.9175 42.0645)" font-family="'SourceSansPro-Regular'" font-size="9.5">@top-right</text>
<text transform="matrix(1 0 0 1 334.6714 42.0645)" font-family="'SourceSansPro-Regular'" font-size="9.5">@top-right-corner</text>
<text transform="matrix(1 0 0 1 111.98 323.9551)" font-family="'SourceSansPro-Regular'" font-size="9.5">@bottom-left</text>
<text transform="matrix(1 0 0 1 185.2607 323.9551)" font-family="'SourceSansPro-Regular'" font-size="9.5">@bottom-center</text>
<text transform="matrix(1 0 0 1 14.9121 323.9551)" font-family="'SourceSansPro-Regular'" font-size="9.5">@bottom-left-corner</text>
<text transform="matrix(1 0 0 1 266.8315 323.9551)" font-family="'SourceSansPro-Regular'" font-size="9.5">@bottom-right</text>
<text transform="matrix(1 0 0 1 38.0176 86.374)" font-family="'SourceSansPro-Regular'" font-size="9.5">@left-top</text>
<text transform="matrix(1 0 0 1 31.0195 185.8047)" font-family="'SourceSansPro-Regular'" font-size="9.5">@left-middle</text>
<text transform="matrix(1 0 0 1 30.0405 279.3359)" font-family="'SourceSansPro-Regular'" font-size="9.5">@left-bottom</text>
<text transform="matrix(1 0 0 1 357.7427 86.374)" font-family="'SourceSansPro-Regular'" font-size="9.5">@right-top</text>
<text transform="matrix(1 0 0 1 350.7437 185.8047)" font-family="'SourceSansPro-Regular'" font-size="9.5">@right-middle</text>
<text transform="matrix(1 0 0 1 195.501 183.0098)" font-family="'SourceSansPro-Regular'" font-size="9.5">(page-area)</text>
<text transform="matrix(1 0 0 1 349.7651 279.3359)" font-family="'SourceSansPro-Regular'" font-size="9.5">@right-bottom</text>
<text transform="matrix(1 0 0 1 334.394 323.9551)" font-family="'SourceSansPro-Regular'" font-size="9.5">@bottom-right-corner</text>
</svg>
