<?xml version="1.0" encoding="utf-8"?>
<!-- Generator: Adobe Illustrator 12.0.0, SVG Export Plug-In  -->
<!DOCTYPE svg PUBLIC "-//W3C//DTD SVG 1.1//EN" "http://www.w3.org/Graphics/SVG/1.1/DTD/svg11.dtd" [
	<!ENTITY ns_flows "http://ns.adobe.com/Flows/1.0/">
	<!ENTITY ns_svg "http://www.w3.org/2000/svg">
	<!ENTITY ns_xlink "http://www.w3.org/1999/xlink">
]>
<svg  version="1.1" xmlns="&ns_svg;" xmlns:xlink="&ns_xlink;" xmlns:a="http://ns.adobe.com/AdobeSVGViewerExtensions/3.0/"
	 width="511" height="228" viewBox="-0.236 -0.015 511 228" enable-background="new -0.236 -0.015 511 228" xml:space="preserve">
<defs>
</defs>
<g id="XMLID_4_">
	<g>
		<path fill="#00FF00" d="M197.777,79.595c23.611,13.663,39.514,39.18,39.514,68.412c0,43.646-35.381,79.014-79.014,79.014
			c-14.4,0-27.882-3.868-39.5-10.588c23.611-13.663,39.5-39.18,39.5-68.426v-0.014C181.874,134.33,197.777,108.827,197.777,79.595z"
			/>
		<path fill="#FF0000" d="M197.777,79.567c0,0.014,0,0.014,0,0.028c-11.618-6.734-25.1-10.602-39.5-10.602
			c-14.4,0-27.882,3.868-39.514,10.602c-11.618-6.72-25.1-10.602-39.5-10.602c-14.4,0-27.882,3.881-39.514,10.602
			c0,0,0-0.014,0-0.028c0-43.632,35.382-79.014,79.014-79.014C162.409,0.553,197.777,35.935,197.777,79.567z"/>
		<path fill="#FFFF00" d="M197.777,79.595c0,29.232-15.903,54.735-39.5,68.398c-0.014-29.232-15.903-54.735-39.514-68.398
			c11.632-6.734,25.114-10.602,39.514-10.602C172.677,68.993,186.159,72.861,197.777,79.595z"/>
		<path fill="#00FFFF" d="M158.277,147.993v0.014c0,29.246-15.889,54.763-39.5,68.426c-23.611-13.663-39.514-39.18-39.514-68.426
			c0,0,0,0,0-0.014c11.618,6.72,25.114,10.588,39.5,10.588C133.164,158.581,146.646,154.713,158.277,147.993z"/>
		<path fill="#FFFFFF" d="M118.763,79.595c23.611,13.663,39.5,39.166,39.514,68.398c-11.631,6.72-25.113,10.588-39.514,10.588
			c-14.386,0-27.882-3.868-39.5-10.588C79.277,118.761,95.167,93.258,118.763,79.595z"/>
		<path fill="#0000FF" d="M118.777,216.432c-11.632,6.72-25.114,10.588-39.514,10.588c-43.632,0-79.013-35.368-79.013-79.014
			c0-29.231,15.889-54.749,39.5-68.412c0.014,29.232,15.903,54.735,39.514,68.398c0,0.014,0,0.014,0,0.014
			C79.263,177.252,95.167,202.77,118.777,216.432z"/>
		<path fill="#FF00FF" d="M79.263,68.993c14.4,0,27.882,3.881,39.5,10.602c-23.597,13.663-39.486,39.166-39.5,68.398
			c-23.611-13.663-39.5-39.166-39.514-68.398C51.381,72.875,64.863,68.993,79.263,68.993z"/>
	</g>
	<g>
	</g>
</g>
<g id="XMLID_2_">
	<g>
		<polygon fill="#EC008C" points="453.843,170.33 453.843,141.99 453.843,56.95 453.843,28.6 397.153,28.6 397.153,0.25 
			510.543,0.25 510.543,170.33 		"/>
		<polygon fill="#363639" points="453.843,56.95 453.843,141.99 397.153,141.99 397.153,58.28 397.153,56.95 		"/>
		<polygon fill="#FFF200" points="453.843,170.33 453.843,227.02 340.453,227.02 340.453,141.99 368.803,141.99 397.153,141.99 
			397.153,143.32 397.153,170.33 		"/>
		<polygon fill="#ED1C24" points="453.843,141.99 453.843,170.33 397.153,170.33 397.153,143.32 397.153,141.99 		"/>
		<polygon fill="#00A650" points="368.803,141.99 340.453,141.99 340.453,56.95 368.803,56.95 397.153,56.95 397.153,58.28 
			397.153,141.99 		"/>
		<rect x="397.153" y="28.6" fill="#2E3292" width="56.69" height="28.35"/>
		<polygon fill="#00ADED" points="368.803,28.6 397.153,28.6 397.153,56.95 368.803,56.95 340.453,56.95 340.453,141.99 
			283.763,141.99 283.763,28.6 		"/>
	</g>
	<g>
	</g>
</g>
<text transform="matrix(1 0 0 1 407.2642 20.8535)" font-family="'CourierNewPSMT'" font-size="12">cmyk(0,1,0,0)</text>
<text transform="matrix(1 0 0 1 354.2515 215.187)" font-family="'CourierNewPSMT'" font-size="12">cmyk(0,0,1,0)</text>
<text transform="matrix(1 0 0 1 289.252 45.5205)" font-family="'CourierNewPSMT'" font-size="12">cmyk(1,0,0,0)</text>
<text transform="matrix(1 0 0 1 104.3608 51.1108)" font-family="'CourierNewPSMT'" font-size="12">#F00</text>
<text transform="matrix(1 0 0 1 171.9233 167.9141)" font-family="'CourierNewPSMT'" font-size="12">#0F0</text>
<text transform="matrix(1 0 0 1 37.5342 167.9209)" font-family="'CourierNewPSMT'" font-size="12">#00F</text>
<text transform="matrix(1 0 0 1 104.3608 129.3867)" font-family="'CourierNewPSMT'" font-size="12">#FFF</text>
<text transform="matrix(1 0 0 1 104.375 188.749)" font-family="'CourierNewPSMT'" font-size="12">#0FF</text>
<text transform="matrix(1 0 0 1 155.5581 99.8286)" font-family="'CourierNewPSMT'" font-size="12">#FF0</text>
<text transform="matrix(1 0 0 1 53.1514 99.7944)" font-family="'CourierNewPSMT'" font-size="12">#F0F</text>
<line fill="none" x1="34.395" y1="76.476" x2="224.171" y2="186.043"/>
</svg>
