<?xml version="1.0" encoding="utf-8"?>
<!-- Generator: Adobe Illustrator 26.5.3, SVG Export Plug-In . SVG Version: 6.00 Build 0)  -->
<svg version="1.0" id="Ebene_1" xmlns="http://www.w3.org/2000/svg" xmlns:xlink="http://www.w3.org/1999/xlink" x="0px" y="0px"
	 width="393.5px" height="213.7px" viewBox="0 0 393.5 213.7" style="enable-background:new 0 0 393.5 213.7;" xml:space="preserve"
	>
<style type="text/css">
	.st0{clip-path:url(#SVGID_00000116225394507669365310000010583865912624012419_);fill:#FFFFFF;}
	.st1{clip-path:url(#SVGID_00000116225394507669365310000010583865912624012419_);fill:none;stroke:#000000;}
	.st2{font-family:'Helvetica';}
	.st3{font-size:10px;}
	.st4{fill:#FFFFFF;}
	.st5{fill:none;stroke:#000000;}
	.st6{clip-path:url(#SVGID_00000111902800454754060550000003302872919621550520_);fill:#FFFFFF;}
	.st7{clip-path:url(#SVGID_00000111902800454754060550000003302872919621550520_);fill:none;stroke:#000000;}
	.st8{fill:none;stroke:#000000;stroke-dasharray:4.172,4.172;}
	.st9{fill:none;stroke:#000000;stroke-dasharray:4.577,4.577;}
</style>
<g>
	<defs>
		<rect id="SVGID_1_" x="8.4" y="17.4" width="377.9" height="196.3"/>
	</defs>
	<clipPath id="SVGID_00000011746173605014280740000017242932029916937344_">
		<use xlink:href="#SVGID_1_"  style="overflow:visible;"/>
	</clipPath>
	<path style="clip-path:url(#SVGID_00000011746173605014280740000017242932029916937344_);fill:#FFFFFF;" d="M180.4,19.1
		c-6.6,0-12,5.4-12,12v37.4c0,6.6,5.4,12,12,12H242c6.6,0,12-5.4,12-12V31.1c0-6.6-5.4-12-12-12H180.4z"/>
	<path style="clip-path:url(#SVGID_00000011746173605014280740000017242932029916937344_);fill:none;stroke:#000000;" d="
		M180.4,19.1c-6.6,0-12,5.4-12,12v37.4c0,6.6,5.4,12,12,12H242c6.6,0,12-5.4,12-12V31.1c0-6.6-5.4-12-12-12H180.4z"/>
</g>
<text transform="matrix(1 0 0 1 184.5368 53.3938)" class="st2 st3">PassiveTeX</text>
<polygon class="st4" points="190.4,127.7 190.4,184.4 232.9,184.4 232.9,140.6 220,127.7 "/>
<polygon class="st5" points="190.4,127.7 190.4,184.4 232.9,184.4 232.9,140.6 220,127.7 "/>
<line class="st5" x1="220" y1="127.7" x2="220" y2="140.8"/>
<line class="st5" x1="219.5" y1="140.7" x2="232.9" y2="140.7"/>
<text transform="matrix(1 0 0 1 204.676 203.8489)" class="st2 st3">FO</text>
<g>
	<defs>
		<rect id="SVGID_00000115512703935424987100000008151180867730955671_" x="8.4" y="17.4" width="377.9" height="196.3"/>
	</defs>
	<clipPath id="SVGID_00000101801866316024201400000017008529695729548163_">
		<use xlink:href="#SVGID_00000115512703935424987100000008151180867730955671_"  style="overflow:visible;"/>
	</clipPath>
	<path style="clip-path:url(#SVGID_00000101801866316024201400000017008529695729548163_);fill:#FFFFFF;" d="M43.1,17.9
		c-6.6,0-12,5.4-12,12v37.4c0,6.6,5.4,12,12,12h61.6c6.6,0,12-5.4,12-12V29.9c0-6.6-5.4-12-12-12H43.1z"/>
	<path style="clip-path:url(#SVGID_00000101801866316024201400000017008529695729548163_);fill:none;stroke:#000000;" d="M43.1,17.9
		c-6.6,0-12,5.4-12,12v37.4c0,6.6,5.4,12,12,12h61.6c6.6,0,12-5.4,12-12V29.9c0-6.6-5.4-12-12-12H43.1z"/>
</g>
<text transform="matrix(1 0 0 1 55.8474 52.2591)" class="st2 st3">XSL-FO</text>
<line class="st5" x1="151.3" y1="50" x2="128.4" y2="50"/>
<polygon points="156.7,50 149.7,47.5 149.7,52.6 "/>
<polygon class="st4" points="17.9,127.7 17.9,184.4 60.4,184.4 60.4,140.6 47.5,127.7 "/>
<polygon class="st5" points="17.9,127.7 17.9,184.4 60.4,184.4 60.4,140.6 47.5,127.7 "/>
<line class="st5" x1="47.5" y1="127.7" x2="47.5" y2="140.8"/>
<line class="st5" x1="47" y1="140.7" x2="60.4" y2="140.7"/>
<text transform="matrix(1 0 0 1 28.8483 205.2972)" class="st2 st3">XML</text>
<line class="st8" x1="176.1" y1="144.9" x2="120" y2="88.8"/>
<polygon points="180,148.7 176.8,142 173.2,145.6 "/>
<line class="st9" x1="74.3" y1="93.9" x2="74.3" y2="116.8"/>
<polygon points="74.3,88.5 71.7,95.5 76.8,95.5 "/>
<polygon class="st4" points="85.4,127.7 85.4,184.4 127.9,184.4 127.9,140.6 115,127.7 "/>
<polygon class="st5" points="85.4,127.7 85.4,184.4 127.9,184.4 127.9,140.6 115,127.7 "/>
<line class="st5" x1="115" y1="127.7" x2="115" y2="140.8"/>
<line class="st5" x1="114.5" y1="140.7" x2="127.9" y2="140.7"/>
<text transform="matrix(1 0 0 1 94.1223 205.2972)" class="st2 st3">XSLT</text>
<line class="st9" x1="210.1" y1="95.7" x2="210.1" y2="118.6"/>
<polygon points="210.1,90.2 207.5,97.3 212.6,97.3 "/>
<polygon class="st4" points="334.2,127.3 334.2,184 376.8,184 376.8,140.2 363.9,127.3 "/>
<polygon class="st5" points="334.2,127.3 334.2,184 376.8,184 376.8,140.2 363.9,127.3 "/>
<line class="st5" x1="363.9" y1="127.3" x2="363.9" y2="140.4"/>
<line class="st5" x1="363.4" y1="140.2" x2="376.8" y2="140.2"/>
<text transform="matrix(1 0 0 1 345.4943 203.637)" class="st2 st3">PDF</text>
<line class="st8" x1="320" y1="144.4" x2="263.9" y2="88.4"/>
<polygon points="323.8,148.3 320.7,141.5 317.1,145.2 "/>
</svg>
