<?xml version="1.0" encoding="utf-8"?>
<!-- Generator: Adobe Illustrator 26.5.3, SVG Export Plug-In . SVG Version: 6.00 Build 0)  -->
<svg version="1.0" id="Ebene_1" xmlns="http://www.w3.org/2000/svg" xmlns:xlink="http://www.w3.org/1999/xlink" x="0px" y="0px"
	 width="266.7px" height="340px" viewBox="0 0 266.7 340" style="enable-background:new 0 0 266.7 340;" xml:space="preserve">
<style type="text/css">
	.st0{clip-path:url(#SVGID_00000029734547512571586780000005681963364453286558_);fill:#FFFFFF;}
	.st1{clip-path:url(#SVGID_00000029734547512571586780000005681963364453286558_);fill:none;stroke:#000000;}
	.st2{font-family:'Helvetica';}
	.st3{font-size:10px;}
	.st4{fill:#FFFFFF;}
	.st5{fill:none;stroke:#000000;}
	.st6{fill:none;stroke:#000000;stroke-dasharray:4.577,4.577;}
	.st7{fill:none;stroke:#000000;stroke-dasharray:4.136,4.136;}
</style>
<g>
	<defs>
		<rect id="SVGID_1_" x="9" width="249.8" height="332.8"/>
	</defs>
	<clipPath id="SVGID_00000128444468051361175590000000032272806040352943_">
		<use xlink:href="#SVGID_1_"  style="overflow:visible;"/>
	</clipPath>
	<path style="clip-path:url(#SVGID_00000128444468051361175590000000032272806040352943_);fill:#FFFFFF;" d="M44.8,137
		c-6.6,0-12,5.4-12,12v37.4c0,6.6,5.4,12,12,12h61.6c6.6,0,12-5.4,12-12V149c0-6.6-5.4-12-12-12H44.8z"/>
	<path style="clip-path:url(#SVGID_00000128444468051361175590000000032272806040352943_);fill:none;stroke:#000000;" d="M44.8,137
		c-6.6,0-12,5.4-12,12v37.4c0,6.6,5.4,12,12,12h61.6c6.6,0,12-5.4,12-12V149c0-6.6-5.4-12-12-12H44.8z"/>
</g>
<text transform="matrix(1 0 0 1 61.1957 171.2897)" class="st2 st3">xmltex</text>
<polygon class="st4" points="19.6,246.7 19.6,303.4 62.1,303.4 62.1,259.6 49.3,246.7 "/>
<polygon class="st5" points="19.6,246.7 19.6,303.4 62.1,303.4 62.1,259.6 49.3,246.7 "/>
<line class="st5" x1="49.2" y1="246.7" x2="49.2" y2="259.9"/>
<line class="st5" x1="48.7" y1="259.7" x2="62.2" y2="259.7"/>
<text transform="matrix(1 0 0 1 31.6942 324.3278)" class="st2 st3">TeX</text>
<line class="st6" x1="76" y1="213" x2="76" y2="235.8"/>
<polygon points="76,207.5 73.5,214.5 78.6,214.5 "/>
<polygon class="st4" points="87.1,246.7 87.1,303.4 129.6,303.4 129.6,259.6 116.8,246.7 "/>
<polygon class="st5" points="87.1,246.7 87.1,303.4 129.6,303.4 129.6,259.6 116.8,246.7 "/>
<line class="st5" x1="116.7" y1="246.7" x2="116.7" y2="259.9"/>
<line class="st5" x1="116.2" y1="259.7" x2="129.7" y2="259.7"/>
<text transform="matrix(1 0 0 1 98.0814 324.3278)" class="st2 st3">XML</text>
<polygon class="st4" points="206.8,139.1 206.8,195.8 249.3,195.8 249.3,152 236.4,139.1 "/>
<polygon class="st5" points="206.8,139.1 206.8,195.8 249.3,195.8 249.3,152 236.4,139.1 "/>
<line class="st5" x1="236.4" y1="139.1" x2="236.4" y2="152.2"/>
<line class="st5" x1="235.9" y1="152.1" x2="249.3" y2="152.1"/>
<text transform="matrix(1 0 0 1 218.0277 215.4508)" class="st2 st3">PDF</text>
<line class="st7" x1="192.2" y1="170.2" x2="130.1" y2="170.2"/>
<polygon points="197.6,170.2 190.6,167.6 190.6,172.8 "/>
<polygon class="st4" points="18.5,35.6 18.5,92.2 61,92.2 61,48.4 48.1,35.6 "/>
<polygon class="st5" points="18.5,35.6 18.5,92.2 61,92.2 61,48.4 48.1,35.6 "/>
<line class="st5" x1="48.1" y1="35.6" x2="48.1" y2="48.7"/>
<line class="st5" x1="47.6" y1="48.5" x2="61" y2="48.5"/>
<text transform="matrix(1 0 0 1 29.1595 21.7291)" class="st2 st3">XMT</text>
<polygon class="st4" points="86,35.6 86,92.2 128.5,92.2 128.5,48.4 115.6,35.6 "/>
<polygon class="st5" points="86,35.6 86,92.2 128.5,92.2 128.5,48.4 115.6,35.6 "/>
<line class="st5" x1="115.6" y1="35.6" x2="115.6" y2="48.7"/>
<line class="st5" x1="115.1" y1="48.5" x2="128.5" y2="48.5"/>
<text transform="matrix(1 0 0 1 96.6576 21.7291)" class="st2 st3">CFG</text>
<line class="st6" x1="73.5" y1="122.3" x2="73.5" y2="99.5"/>
<polygon points="73.5,127.8 76,120.8 70.9,120.8 "/>
</svg>
