<?xml version="1.0" encoding="UTF-8"?>
<svg xmlns="http://www.w3.org/2000/svg" xmlns:xlink="http://www.w3.org/1999/xlink" width="397" height="85.304" viewBox="0 0 397 85.304" aria-labelledby="title3 desc"><title id="title3">Elemental Logo</title><defs><linearGradient id="linear-gradient" x1="0.007" y1="0.75" x2="0.993" y2="0.25" gradientUnits="objectBoundingBox"><stop offset="0" stop-color="#4c3c90"></stop><stop offset="0.118" stop-color="#514495"></stop><stop offset="0.31" stop-color="#605da5"></stop><stop offset="0.553" stop-color="#7884bf"></stop><stop offset="0.834" stop-color="#99bbe2"></stop><stop offset="1" stop-color="#afdff9"></stop></linearGradient></defs><g id="elemental_logo" data-name="elemental logo" transform="translate(198.5 42.652)"><g id="Logo" transform="translate(-198.5 -42.652)"><path id="Text" d="M491.562,90.937a1.786,1.786,0,0,1-1.783-1.783V70h-4.654V89.154a6.448,6.448,0,0,0,6.437,6.437H513.65V90.937ZM474.416,70h-18.1a6.443,6.443,0,0,0-6.437,6.437V95.591h4.654V85.12H476.2V95.591h4.617V76.437A6.429,6.429,0,0,0,474.416,70ZM476.2,80.472H454.529V76.437a1.807,1.807,0,0,1,1.783-1.82h18.1a1.807,1.807,0,0,1,1.789,1.82ZM414.863,70v4.617h13.162V95.591h4.654V74.617h13.13V70Zm-8.839,0V90.862L387.589,71.439A4.276,4.276,0,0,0,384.48,70h-1.627a3.141,3.141,0,0,0-3.152,3.121v22.47h4.648V74.729l18.4,19.423a4.29,4.29,0,0,0,3.115,1.439h1.657a3.141,3.141,0,0,0,3.122-3.153V70Zm-54.236,4.617H375.5V70H351.789a6.443,6.443,0,0,0-6.437,6.437V89.154a6.443,6.443,0,0,0,6.437,6.437H375.5V90.937H351.789a1.786,1.786,0,0,1-1.783-1.783V85.12h25.5V80.472h-25.5V76.437A1.807,1.807,0,0,1,351.789,74.617ZM337.908,70H336.25a4.274,4.274,0,0,0-3.1,1.426L323.089,82.155,313.036,71.439A4.288,4.288,0,0,0,309.921,70H308.3a3.142,3.142,0,0,0-3.159,3.121v22.47H309.8V74.735l11.078,11.923a2.846,2.846,0,0,0,4.417.013L336.413,74.7V95.591h4.617V73.121A3.126,3.126,0,0,0,337.908,70Zm-60.679,4.617h23.715V70H277.229a6.448,6.448,0,0,0-6.437,6.437V89.154a6.448,6.448,0,0,0,6.437,6.437h23.715V90.937H277.229a1.786,1.786,0,0,1-1.783-1.783V85.12h25.5V80.472h-25.5V76.437A1.806,1.806,0,0,1,277.229,74.617Zm-33.035,16.32a1.786,1.786,0,0,1-1.783-1.783V70h-4.654V89.154a6.444,6.444,0,0,0,6.437,6.437h22.088V90.937Zm-34.349-16.32H233.56V70H209.845a6.448,6.448,0,0,0-6.437,6.437V89.154a6.448,6.448,0,0,0,6.437,6.437H233.56V90.937H209.845a1.786,1.786,0,0,1-1.783-1.783V85.12h25.5V80.472h-25.5V76.437A1.806,1.806,0,0,1,209.845,74.617Z" transform="translate(-116.65 -40.144)" fill="#082c51"></path><path id="Icon" d="M51.554,50.028h-.005l-31.1,17.951L7.005,60.212,7,25.093l37.4-21.6L39.159.47a3.515,3.515,0,0,0-3.5,0L1.751,20.047A3.518,3.518,0,0,0,0,23.076V61.969a3.965,3.965,0,0,0,1.975,3.425l16.5,9.523a3.977,3.977,0,0,0,3.951,0L58.543,54.062ZM72.835,19.912l-16.5-9.523a3.984,3.984,0,0,0-3.951,0L16.262,31.243l6.995,4.034,31.1-17.951L67.8,25.093,67.816,60.2l-37.4,21.6,5.275,3.039a3.464,3.464,0,0,0,3.471-.015L73.064,65.258a3.506,3.506,0,0,0,1.751-3.033V23.336A3.97,3.97,0,0,0,72.835,19.912ZM58.543,34.49,23.257,54.865,16.262,50.82l35.3-20.375Z" transform="translate(0 0)" fill="url(#linear-gradient)"></path></g></g></svg>
