<?xml version="1.0" encoding="utf-8"?>
<!-- Generator: Adobe Illustrator 21.0.0, SVG Export Plug-In . SVG Version: 6.00 Build 0)  -->
<svg version="1.1" id="Layer_1" xmlns="http://www.w3.org/2000/svg" xmlns:xlink="http://www.w3.org/1999/xlink" x="0px" y="0px" height="100%"
	 viewBox="0 0 1606 806.2" style="enable-background:new 0 0 1606 806.2;" xml:space="preserve">
<style type="text/css">
	.st0{fill:#3B4063;}
	.st1{fill:#7D8CA3;}
	.st2{fill:#CA4D5E;}
</style>
<g>
	<g>
		<path class="st0" d="M741,331.2l-16.7,87.4l-1.3,10.2h-0.5l-1.3-10.2l-16.6-87.4h-34.3v191.2h26V394.1h1.6l1,8.1l18,120.2h12
			l17.9-120.2l1-8.1h1.6v128.2h26V331.2H741z"/>
		<path class="st0" d="M862.2,497.7v-87.4c0-9.4-3.6-17.4-9.6-23.1s-13.8-9.1-22.4-9.1c-10.1,0-19,4.2-25.2,11.2
			c-6.2,7-10.1,16.4-10.1,26.8v6h26.3v-6.8c0-2.3,0.3-4.7,0.5-6.8c0.8-4.2,2.6-7.5,7-7.5c3.4,0,5.5,1.8,6.5,4.4
			c0.8,2.6,0.8,6.2,0.8,8.6v15.6c-1,2.9-6,5.2-12.5,8.6s-14.3,8.3-20.6,16.1c-6.2,7.8-10.9,19.2-10.9,35.1c0,14.8,3.6,23.7,8.1,28.6
			c4.2,5.2,9.6,6.5,13,6.5c5.2,0,10.2-2.1,13.8-4.9c3.6-2.9,6-6.3,7.3-8.6h1.8c0,1.8,0,8.6,2.3,11.5h25.8
			C863,516.1,862.2,510.4,862.2,497.7z M836,490.1c0,4.9-4.9,8.6-10.9,8.6c-3.1,0-4.9-2.3-6-5.5c-1-2.9-1.3-6-1.3-7.8
			c0-13.5,5.5-26.3,18.2-31.7V490.1z"/>
		<path class="st0" d="M911.9,385.6c-4.2,4.2-6,8.6-6.2,10.4v-15.9h-26.3v142.3h26.3v-98.9c0-4.4,0.8-8.8,5.7-13
			c4.2-3.9,9.1-4.4,13.3-4.4c2.3,0,4.9,0.3,7.3,1.1V378C922.3,378,916.1,381.7,911.9,385.6z"/>
		<path class="st0" d="M990,426.4l19-46.3h-23.7l-12.7,37.2L971,422h-1.3v-90.8h-26.3v191.2h26.3v-49.2l3.4-8.3l0.8-2.1h1.3l0.5,2.1
			l13,57.5h25.2L990,426.4z"/>
		<path class="st0" d="M1065.4,380.1v112.1c-0.8,1.3-1.6,2.6-2.4,3.4c-1.8,1.8-3.4,3.4-6.2,3.4c-3.1,0-6.3-0.8-6.3-6.2V380.1h-26.3
			v116.5c0,6,1.6,13,4.7,18.2c3.1,5.4,8.1,9.6,15.1,9.6c2.3,0,4.7-0.8,7-2.1c4.7-2.6,8.3-6.3,11.4-9.4c1.3-1.3,2.3-2.3,2.9-2.6v12
			h26.3V380.1H1065.4z"/>
		<path class="st0" d="M1175.2,387.4c-3.4-5.2-8.3-9.4-15.6-9.4c-2.3,0-4.9,0.5-7.3,1.8c-5.2,2.3-9.1,5.5-13.5,9.6v-9.4h-26.3v191.2
			h26.3V513c2.3,2.1,4.4,3.9,6.8,5.7c3.9,2.9,9.1,5.7,14.1,5.7c7.3,0,12.2-4.2,15.6-9.6c3.1-5.2,4.7-12.2,4.7-18.2v-90.8
			C1179.9,399.9,1178.3,392.8,1175.2,387.4z M1153.6,491.2c0,4.9-3.1,8.6-7,8.6c-3.9,0-7.8-4.4-7.8-8.6v-79.9c0-4.9,3.9-8.6,7.8-8.6
			c3.9,0,7,3.6,7,8.6V491.2z"/>
		<path class="st2" d="M1286.2,331.2v151.9c0,2.9-0.3,5.2-1,7c-1,3.9-3.4,7-8.3,7c-2.3,0-4.2-0.8-5.5-2.1c-2.6-2.9-3.9-6.5-3.9-12
			V331.2h-28.1v151.9c0.3,7.8,1.8,14.8,4.7,20.8c2.3,5.2,5.7,10.1,10.9,14c5.2,4.2,12.5,6.5,21.9,6.5c9.4,0,16.4-2.3,21.6-6.5
			c5.2-3.9,8.8-8.9,11.2-14c2.9-6,4.4-13,4.7-20.8V331.2H1286.2z"/>
		<path class="st2" d="M1390.3,394.1l25.8-63h-27.3l-23.4,63.7l-1.3,3.1h-1v-66.8h-28.1v191.2h28.1v-67.6l6.5-15.6l1.6-3.9h0.8
			l0.8,3.9l19.5,83.2h27.3L1390.3,394.1z"/>
	</g>
	<rect x="620.1" y="289" class="st1" width="4.4" height="275.5"/>
	<g>
		<path class="st1" d="M303.4,349.2l-0.3,0c0,0,0,0,0.1-0.1C303.2,349.1,303.3,349.1,303.4,349.2z"/>
		<g>
			<g>
				<path class="st1" d="M360.5,341.9l-2.3,0.1c-0.1,0.3-0.2,0.5-0.2,0.8l0,0c-0.3,0.8-0.7,1.6-1.1,2.4c-0.1,0.2-0.2,0.4-0.3,0.6
					c0,0.1-0.1,0.1-0.1,0.2c-1.3,1.8-3,3.6-5.2,5.2c-0.3,0.8-0.6,1.7-1,2.5c0,0.1,0,0.1-0.1,0.2c-0.2,0.3-0.3,0.7-0.5,1v0
					c-0.1,0.1-0.1,0.2-0.2,0.3c0,0.1-0.1,0.1-0.1,0.2c-0.1,0.2-0.3,0.5-0.4,0.7v0c0.7-0.3,1.3-0.6,1.9-1c0.3-0.2,0.6-0.3,0.8-0.5
					c0.2-0.1,0.4-0.2,0.6-0.4c1.9-1.2,3.6-2.5,4.9-4c2.3-2.5,3.5-5.3,3.5-8.3C360.5,342,360.5,341.9,360.5,341.9z M355.8,332.6
					c1.3,1.6,2.2,3.3,2.5,5.2c0,0.2,0.1,0.5,0.1,0.7l0,0.1l-1.8,0.1l-4.4,0.2c0,0,0,0.1,0,0.1l7.7-0.3
					C359.3,336.5,357.8,334.5,355.8,332.6z M349.1,342.4l-1.5,0.1c0,0.2-0.1,0.4-0.1,0.6v0c-0.1,0.4-0.2,0.9-0.3,1.3
					c-0.2,0.6-0.4,1.2-0.6,1.8c-1.6,3.8-4.6,7.2-8.5,9.6c-0.3,1.1-0.7,2.1-1.1,3c1.2-0.5,2.3-1,3.3-1.6c0.4-0.2,0.7-0.4,1-0.6
					c0.5-0.3,0.9-0.6,1.3-1c0,0,0,0,0,0c0,0,0.1,0,0.1-0.1c0,0,0,0,0,0c0,0,0,0,0,0l0,0c0,0,0.1,0,0.1-0.1c0.1-0.1,0.1-0.1,0.2-0.2
					c0,0,0,0,0,0c1.2-1,2.3-2.1,3.2-3.4c1.1-1.6,2-3.4,2.4-5.3c0.3-1.3,0.5-2.6,0.5-4C349.1,342.5,349.1,342.4,349.1,342.4z
					 M345.5,332.4c0.1,0.1,0.2,0.3,0.3,0.4c0.3,0.4,0.5,0.8,0.7,1.3c0.1,0.4,0.3,0.7,0.4,1c0.2,0.6,0.4,1.3,0.6,1.9
					c0.2,0.6,0.3,1.3,0.3,2l0,0.1l-8,0.4l5.1-0.2l1.9-0.1l2-0.1C348.2,336.8,347,334.5,345.5,332.4z M337.7,342.9l-0.7,0
					c0,1.1-0.2,2.3-0.3,3.3c0,0.1,0,0.2-0.1,0.3c-0.3,1.4-0.6,2.8-1.1,4.1c-0.2,0.7-0.5,1.4-0.8,2c-1.7,3.5-4.1,6-7,6.6
					c-0.1,0-0.2,0-0.2,0c-0.4,0-0.8,0.1-1.1,0.1c-0.2,0-0.5,0-0.7,0l0,0c-0.1,0-0.1,0-0.2,0c-1.4-0.2-2.8-0.9-4.1-2.1
					c1.7,1.8,3.7,2.9,5.7,3.1c0.1,0,0.2,0,0.3,0c0.4,0,0.8,0,1.2,0c0.3,0,0.5-0.1,0.7-0.1h0c0,0,0,0,0,0c0,0,0.1,0,0.2-0.1
					c1.5-0.4,2.9-1.3,4.1-2.7c0.8-0.9,1.5-2,2.1-3.3c0.2-0.3,0.3-0.7,0.4-1c0-0.1,0-0.1,0.1-0.2c0.1-0.3,0.3-0.7,0.4-1
					c0.4-1.4,0.7-2.9,1-4.5c0.2-1.4,0.2-2.9,0.2-4.5L337.7,342.9z M334.7,330.6c0.5,1,0.9,2.1,1.2,3.3c0.3,1,0.6,2.1,0.7,3.3
					c0.2,0.8,0.3,1.7,0.3,2.5l0.5,0C337,336.4,336,333.3,334.7,330.6z M335,324.9C335,325,335,325,335,324.9
					c0.3,0.2,0.6,0.2,0.8,0.3C335.5,325.1,335.2,325,335,324.9z M325.9,323.2l-0.3,0l-1.2,0c-2.7,0.3-5.1,2.3-6.7,5.4
					c-0.9,1.6-1.5,3.6-1.9,5.8c-0.2,1.1-0.4,2.3-0.4,3.6c-0.1,0.9-0.1,1.8,0,2.7l0.7,0c0.2-4.2,1.3-8.1,2.9-11
					c1.6-2.9,3.8-4.8,6.3-5.4l0.2,0l1.1-0.1c1.9,0,3.7,0.9,5.2,2.5C330.1,324.7,328.1,323.5,325.9,323.2z M318,358.6
					c-0.3-0.1-0.7-0.2-1-0.3C317.4,358.5,317.7,358.6,318,358.6C318.1,358.7,318,358.7,318,358.6z M316.7,348.2
					c-0.3-1.3-0.5-2.7-0.6-4.2l0-0.1l-0.6,0c0.2,1.3,0.4,2.5,0.7,3.6c0,0.1,0.1,0.2,0.1,0.3c0.4,1.5,0.9,2.9,1.5,4.2
					c0,0.1,0,0.1,0.1,0.2C317.5,351,317.1,349.7,316.7,348.2z M306.8,331.9c-0.6,0.8-1.1,1.6-1.5,2.5c-0.2,0.4-0.4,0.9-0.6,1.4
					c-0.1,0.4-0.2,0.8-0.3,1.1c-0.2,0.6-0.3,1.1-0.3,1.7c0,0.1,0,0.3-0.1,0.4c-0.1,0.7-0.1,1.4-0.1,2.1l0,0.2l1.5-0.1
					c0.4-2.5,1.3-4.9,2.8-7c1.2-1.8,2.7-3.4,4.5-4.8c0.7-0.5,1.4-1,2.2-1.5c0.1-0.2,0.1-0.4,0.2-0.5c0.1-0.2,0.1-0.4,0.2-0.6
					c0.2-0.7,0.5-1.3,0.7-1.8C312.1,326.4,308.9,328.8,306.8,331.9z M313.8,344l-9.6,0.4c0.1,0.3,0.2,0.6,0.3,0.9v0
					c0.1,0.5,0.3,0.9,0.5,1.3c0.2,0.6,0.5,1.2,0.8,1.8c0.5,1,1.1,1.9,1.8,2.7c-0.6-0.9-1.1-1.9-1.4-2.9c-0.4-1.2-0.7-2.4-0.8-3.7
					c0,0,0-0.1,0-0.1L313.8,344L313.8,344z M299.9,330.1c-0.8,0.6-1.6,1.1-2.3,1.8c-0.2,0.2-0.4,0.3-0.6,0.5
					c-0.2,0.2-0.4,0.4-0.6,0.7c-2.2,2.3-3.6,5-3.8,7.8c0,0.3,0,0.5,0,0.8v0.2l1.9-0.1l0.5,0c0.9-3.3,3.3-6.5,6.9-9.2
					c0.2-0.6,0.4-1.2,0.7-1.7c0.5-1.1,1.1-2.2,1.7-3.2C302.7,328.3,301.2,329.2,299.9,330.1z M300.7,344.7
					C300.7,344.7,300.7,344.7,300.7,344.7C300.7,344.6,300.7,344.6,300.7,344.7c0-0.1,0-0.1,0-0.1l-0.2,0l-0.6,0l-0.3,0l-1,0.1
					l-0.3,0l-1.8,0.1h0l0,0c0,0,0,0,0,0.1c-0.1,0-0.2,0-0.3,0h0l-3.1,0.2c0,0.1,0.1,0.2,0.1,0.3c0.1,0.3,0.2,0.6,0.3,0.9l0,0
					c0.3,0.8,0.8,1.5,1.3,2.2c0,0.1,0.1,0.1,0.1,0.2c0.1,0.2,0.3,0.4,0.4,0.6c0.1,0.1,0.1,0.1,0.2,0.2c0.6,0.7,1.2,1.3,1.9,1.9
					c-0.9-1.1-1.6-2.2-2.1-3.4c-0.3-0.9-0.5-1.8-0.6-2.7c0,0,0-0.1,0-0.1l3.5-0.2L300.7,344.7z"/>
				<path class="st1" d="M534.3,512.7c-1.7,5.6-5.9,10.9-12,15.4c-0.6,1.8-1.4,3.5-2.2,5.2c-0.5,0.9-1,1.8-1.5,2.7c0,0,0,0,0,0v0
					c-0.3,0.5-0.6,0.9-0.8,1.4c-0.4,0.6-0.8,1.1-1.2,1.7c0.8-0.3,1.6-0.7,2.4-1h0c0.8-0.4,1.6-0.8,2.4-1.2c1.6-0.8,3-1.7,4.4-2.5
					c8.9-5.6,14.3-13,14.6-21.3c0-0.1,0-0.2,0-0.3H534.3z M539.7,506.6c-1.7-5.9-5.9-11.5-12.1-16.3c-3.5-2.7-7.6-5.2-12.3-7.4
					c0.3,0.4,0.6,0.8,0.9,1.2c1.3,0.6,2.5,1.3,3.6,1.9c0.8,0.5,1.5,0.9,2.3,1.4c1.8,1.1,3.3,2.4,4.8,3.7c0.7,0.6,1.3,1.3,2,1.9
					c3.7,4,5.9,8.6,6.1,13.6v0.1H539.7z M518.5,512.7h-4.1c-0.4,2.3-1.2,4.4-2.1,6.5c-1.4,3.2-3.5,6.2-5.9,8.9c0,0,0,0,0,0
					c-0.9,1-1.8,1.9-2.8,2.8c-2.2,1.9-4.5,3.7-7.1,5.2c-0.1,0.3-0.2,0.6-0.3,0.9c-0.1,0.3-0.2,0.6-0.3,1c0,0,0,0.1,0,0.1
					c0,0,0,0,0,0c-0.6,1.8-1.3,3.4-2.1,5c0.9-0.3,1.7-0.6,2.5-0.9c1.9-0.8,3.8-1.7,5.5-2.7c0.5-0.3,0.9-0.5,1.4-0.8
					c0.6-0.4,1.3-0.9,1.9-1.3c1.3-0.9,2.5-1.9,3.7-3c0.3-0.3,0.5-0.5,0.8-0.8c0.1-0.1,0.2-0.2,0.3-0.3c0.3-0.4,0.7-0.7,1-1.1
					c0.1-0.1,0.2-0.2,0.3-0.3c0.3-0.3,0.6-0.7,0.8-1c0.2-0.3,0.4-0.6,0.7-0.9c1.1-1.5,2-3,2.8-4.7c0.2-0.4,0.4-0.9,0.6-1.3v0
					c0.1-0.1,0.1-0.2,0.2-0.3c1.4-3.3,2.1-6.8,2.2-10.5C518.5,512.9,518.5,512.8,518.5,512.7z M518,506.6c-0.3-1.6-0.7-3.2-1.3-4.8
					v0c0,0,0,0,0,0c-2.4-6.7-7-12.7-13-17.4c0,0,0,0,0,0h0l0,0c-0.8-0.6-1.6-1.2-2.4-1.8c0,0-0.1,0-0.1-0.1c0,0-0.1,0-0.1-0.1
					c-0.8-0.5-1.5-1-2.3-1.5c-0.1,0-0.1-0.1-0.2-0.1c-0.1,0-0.1-0.1-0.2-0.1c-0.8-0.5-1.6-0.9-2.4-1.3c-0.1-0.1-0.3-0.1-0.4-0.2
					c-0.9-0.5-1.8-0.9-2.8-1.3c0.2,0.5,0.5,1,0.7,1.5c0,0,0,0,0,0c1.3,0.5,2.6,1,3.8,1.6c2.1,1.1,4.1,2.3,5.9,3.7
					c3.4,2.6,6.2,5.8,8.2,9.4c1.7,3,2.8,6.3,3.2,9.9c0,0.3,0.1,0.6,0.1,0.8v0c0.1,0.6,0.1,1.2,0.1,1.7v0.1H518z M494.5,512.7
					c-0.6,6.6-2.4,12.7-5,17.7c-0.1,0.2-0.2,0.3-0.2,0.4c-2.3,4.2-5.2,7.6-8.4,9.6c-0.5,0.3-1,0.6-1.6,0.9c-1.2,0.6-2.5,1-3.8,1.2
					c-0.1,0-0.3,0.1-0.4,0.1h0c-0.3,0-0.6,0-0.9,0h0c-0.4,0-0.8,0-1.3,0c-5.8-0.4-12-7.4-15.2-14.7c0,0,1.1,3.7,1.6,4.3c0,0,0,0,0,0
					c2.5,4.8,5.8,8.7,9.4,11c1.8,1.2,3.8,2,5.8,2.3c0.2,0,0.3,0,0.5,0.1h0c0.1,0,0.2,0,0.3,0c0.3,0,0.5,0,0.7,0h0c0.5,0,0.9,0,1.4,0
					c7.5-0.5,13.8-7.5,17-18c0,0,0,0,0,0c0-0.1,0.1-0.2,0.1-0.3c0.2-0.8,0.5-1.6,0.7-2.5c0,0,0-0.1,0-0.1v0l0,0c0,0,0,0,0,0
					c0,0,0,0,0,0c0.1-0.3,0.1-0.6,0.2-1c0,0,0,0,0-0.1c0-0.1,0-0.2,0.1-0.3c0-0.1,0-0.1,0-0.2c0-0.3,0.1-0.5,0.1-0.8c0,0,0,0,0-0.1
					c0-0.1,0-0.2,0-0.3c0.1-0.4,0.2-0.9,0.2-1.4c0.1-0.3,0.1-0.6,0.1-0.9c0.1-0.8,0.2-1.7,0.3-2.5c0-0.3,0-0.6,0.1-0.9v0
					c0,0,0,0,0,0c0-0.1,0-0.2,0-0.3c0-0.4,0-0.8,0.1-1.2c0-0.5,0-1,0-1.5v-0.3H494.5z M496.1,504.7c-1.7-14.1-8.4-25.9-16.8-29.8
					c-0.1,0-0.2-0.1-0.3-0.1c-1.1-0.5-2.3-0.9-3.5-1.1c-0.2,0-0.3,0-0.5,0c-0.8,0-1.6,0-2.4-0.1c-5.3,0.3-10,4-13.4,9.9
					c-1.4,2.3-2.5,5-3.4,7.9c-1.4,4.5-2.2,9.6-2.3,15.1h1.9c0-0.5,0.1-1,0.2-1.5c1.6-12.9,7.7-23.8,15.4-27.3c0.1,0,0.2-0.1,0.3-0.1
					c1-0.4,2.1-0.8,3.2-0.9c0.1,0,0.3,0,0.4,0h0c0.7,0,1.5,0,2.2-0.1c4.9,0.3,9.2,3.7,12.3,9c1.2,2.1,2.3,4.6,3.1,7.3
					c1.3,4.1,2,8.7,2.1,13.6h1.7C496.2,506,496.2,505.4,496.1,504.7z M457.2,541.3c-0.2-0.5-0.5-0.9-0.7-1.4c-0.4-0.1-0.7-0.3-1-0.4
					c-2.3-0.9-4.4-2-6.3-3.3c-1.8-1.2-3.6-2.5-5.1-4c-2.9-2.8-5.2-6-6.8-9.6v0c-0.1-0.1-0.1-0.2-0.2-0.3c-1.2-3-2-6.2-2-9.6v0H432
					c0.5,2.5,1.3,5,2.4,7.4c0.6,1.4,1.4,2.8,2.2,4.1c0.2,0.3,0.4,0.6,0.6,0.9c0,0,0,0,0.1,0.1c0.5,0.8,1.1,1.5,1.6,2.3
					c0.3,0.3,0.6,0.7,0.8,1c0.1,0.1,0.2,0.2,0.3,0.4c0.3,0.3,0.5,0.6,0.8,0.9c0,0,0,0,0,0c0,0,0,0,0,0c0.4,0.4,0.8,0.8,1.2,1.3
					c0.6,0.6,1.2,1.2,1.8,1.7c1.3,1.2,2.8,2.4,4.3,3.4C450.9,538.3,454,540,457.2,541.3C457.3,541.4,457.2,541.4,457.2,541.3z
					 M455.3,512.7L455.3,512.7l-0.7,0c0.3,1,0.1,5.3,0.4,6.3C455,519.1,455.4,513.2,455.3,512.7z M450.7,478.5
					c-2.3,1.2-4.5,2.5-6.5,4h0c-0.4,0.3-0.8,0.6-1.1,0.9c-0.2,0.2-0.4,0.3-0.6,0.5l0,0c-0.2,0.1-0.4,0.3-0.5,0.5
					c-0.6,0.5-1.1,1-1.6,1.5c-0.4,0.4-0.7,0.8-1.1,1.2c-0.2,0.2-0.4,0.4-0.5,0.6c-0.1,0.2-0.3,0.3-0.4,0.5c-0.1,0.2-0.3,0.3-0.4,0.5
					c-0.5,0.6-0.9,1.2-1.3,1.8c-0.1,0.1-0.2,0.2-0.2,0.3c-0.4,0.6-0.8,1.2-1.1,1.8c0,0,0,0.1,0,0.1c-0.9,1.6-1.6,3.3-2.2,5
					c-0.7,2.1-1.2,4.4-1.4,6.7v0c0,0.3,0,0.5,0,0.8c0,0.4-0.1,0.8-0.1,1.1c0,0.1,0,0.2,0,0.3h4.1c0.3-1.4,0.6-2.8,1.1-4.2v0
					c2.2-6.1,6.4-11.7,12-16c0,0,0,0,0,0c1.5-1.2,3.1-2.3,4.8-3.3c0.8-2.5,1.7-4.8,2.7-7C454.3,476.8,452.5,477.6,450.7,478.5z
					 M433.8,535.2c-0.5-0.2-0.9-0.4-1.3-0.6c-1.4-0.7-2.8-1.5-4.1-2.3c-8.1-5.2-13.1-11.9-13.4-19.5v0h-4.8
					c2.3,8.3,9.7,15.8,20.4,21.6c1.3,0.7,2.7,1.4,4.1,2.1C434.4,536,434.1,535.6,433.8,535.2z M431.3,481.3c-0.7,0.3-1.3,0.6-2,1
					c-0.2,0.1-0.4,0.2-0.7,0.3c-0.9,0.4-1.7,0.9-2.5,1.3c-0.9,0.5-1.7,1-2.5,1.5c-2.8,1.8-5.3,3.9-7.3,6.1
					c-4.1,4.4-6.5,9.4-6.7,14.8c0,0.1,0,0.2,0,0.3h6.1c1.6-5.3,5.5-10.4,11.1-14.7c0.3-0.2,0.6-0.5,1-0.7c0,0,0,0,0,0
					c0.1-0.2,0.1-0.4,0.2-0.6c0.2-0.5,0.4-1,0.6-1.5c0.1-0.2,0.1-0.4,0.2-0.5s0.2-0.3,0.2-0.5c0.2-0.4,0.4-0.9,0.6-1.3
					c0.1-0.2,0.2-0.4,0.3-0.6c0.1-0.2,0.2-0.4,0.3-0.6c0.2-0.4,0.4-0.7,0.6-1.1c0.1-0.2,0.2-0.4,0.3-0.7c0.2-0.3,0.3-0.6,0.5-0.8
					c0-0.1,0.1-0.2,0.1-0.2c0,0,0,0,0-0.1c0.2-0.3,0.3-0.5,0.5-0.7c0.1-0.2,0.2-0.3,0.3-0.5c0.3-0.4,0.6-0.8,0.8-1.2
					C432.7,480.6,432,480.9,431.3,481.3z"/>
				<path class="st1" d="M386.8,375.2c-0.4,0.2-0.8,0.3-1.2,0.5c0,0,0,0,0,0c-1.2,0.6-2.3,1.2-3.4,1.8c-0.5,0.3-1,0.6-1.5,1
					c-2.7,1.8-5,3.8-6.7,6.1c-1.6,2.1-2.6,4.3-3.1,6.6c0,0.1,0,0.3-0.1,0.4c0,0.2-0.1,0.4-0.1,0.7c0,0.1,0,0.2,0,0.4
					c0,0.3-0.1,0.6-0.1,0.9v0.2h5.1c1.1-3.7,3.8-7.2,7.7-10.3c0.3-0.9,0.6-1.9,1-2.8c0.5-1.3,1.2-2.5,1.9-3.7
					c0.1-0.2,0.2-0.4,0.4-0.6c0.1-0.1,0.2-0.3,0.3-0.4c0.1-0.1,0.1-0.2,0.2-0.2c0-0.1,0.1-0.1,0.1-0.2c0-0.1,0.1-0.1,0.2-0.2
					c0.1-0.1,0.1-0.2,0.2-0.3c0.1-0.1,0.2-0.2,0.2-0.3C387.5,374.9,387.2,375.1,386.8,375.2z M387.9,414
					C387.8,413.9,387.8,413.9,387.9,414c-0.1-0.2-0.2-0.3-0.3-0.4l-0.1,0c-1.3-0.7-2.6-1.4-3.7-2.2c-1.5-1-2.8-2.1-3.9-3.2
					c-2.8-2.9-4.5-6.3-4.6-9.9h-4.1v0c0.1,0.3,0.2,0.6,0.3,0.9c0.1,0.2,0.1,0.4,0.2,0.6c0,0.1,0.1,0.2,0.1,0.3
					c0.2,0.6,0.5,1.1,0.8,1.7c0.1,0.2,0.2,0.4,0.3,0.6c0.1,0.2,0.2,0.4,0.3,0.6c0.1,0.1,0.2,0.3,0.3,0.4c0,0,0,0,0,0.1
					c0.1,0.1,0.2,0.3,0.3,0.4c0.1,0.1,0.2,0.3,0.3,0.4c0.1,0.1,0.1,0.2,0.2,0.3s0.1,0.2,0.2,0.3c0,0,0.1,0.1,0.1,0.1
					c0.1,0.1,0.1,0.1,0.2,0.2c0.1,0.2,0.3,0.3,0.4,0.5c0.1,0.2,0.3,0.4,0.5,0.5c0.1,0.1,0.2,0.3,0.4,0.4c0,0,0,0,0,0
					c0.4,0.4,0.8,0.8,1.2,1.2c0.2,0.2,0.4,0.3,0.6,0.5c0.2,0.2,0.3,0.3,0.5,0.5c0.4,0.3,0.7,0.6,1.1,0.9c0.1,0.1,0.2,0.2,0.3,0.3
					c0.3,0.2,0.5,0.4,0.8,0.6c0.1,0.1,0.3,0.2,0.4,0.3c0.3,0.2,0.6,0.5,0.9,0.7c0.1,0.1,0.2,0.1,0.2,0.2c0.4,0.3,0.8,0.6,1.3,0.8h0
					c0.6,0.4,1.3,0.8,1.9,1.2c0.4,0.2,0.8,0.4,1.2,0.7c0.4,0.2,0.9,0.4,1.3,0.6c0.3,0.2,0.7,0.3,1,0.5
					C388.5,414.8,388.2,414.4,387.9,414z M403,374.9c0.1-0.4,0.3-0.7,0.4-1.1c0.3-0.7,0.6-1.4,0.9-2.1c-0.8,0.3-1.6,0.5-2.3,0.9
					c-0.6,0.3-1.2,0.5-1.8,0.8c-0.1,0-0.1,0.1-0.2,0.1c-0.4,0.2-0.9,0.4-1.3,0.7c-0.3,0.2-0.7,0.4-1,0.6c0,0-0.1,0.1-0.1,0.1
					c0,0-0.1,0-0.1,0.1c-0.1,0.1-0.3,0.2-0.4,0.3c-0.5,0.3-0.9,0.6-1.4,1c-2.2,1.7-4.1,3.7-5.6,5.9c-0.3,0.5-0.6,0.9-0.9,1.4
					c-1.7,3-2.7,6.3-2.8,9.9c0,0.1,0,0.2,0,0.2h3.4c1.3-6.6,5.9-12.5,12.4-16.4c0.1-0.2,0.1-0.5,0.2-0.7c0-0.2,0.1-0.4,0.2-0.6
					c0.4-0.3,0.7-0.5,1.1-0.8C403.5,375.2,403.3,375,403,374.9L403,374.9z M404.3,417.3c-0.1,0-0.1,0-0.2-0.1
					c-1.7-0.7-3.3-1.5-4.7-2.4c-1.7-1.1-3.2-2.3-4.5-3.8c-0.1-0.1-0.2-0.2-0.3-0.3c-0.2-0.2-0.4-0.5-0.6-0.7
					c-2.7-3.3-4.3-7.3-4.5-11.7c0-0.1,0-0.1,0-0.2h-2.8c1.2,6.6,5.4,12.7,11.5,16.9c0,0,0,0,0,0c0.7,0.5,1.4,1,2.2,1.4
					c0,0,0,0,0.1,0c1.4,0.9,2.9,1.6,4.5,2.3C404.8,418.4,404.6,417.8,404.3,417.3z M430.9,383.3c-2.7-7.2-7.3-12.4-12.6-13.2
					c-0.1,0-0.2,0-0.3-0.1h0c-0.6,0-1.2,0-1.7-0.1c-1.3,0.1-2.5,0.4-3.6,1c-2.2,1.1-4.2,3.1-5.8,5.7c-0.1,0.1-0.2,0.3-0.3,0.4
					c-0.3,0.5-0.6,1.1-0.9,1.7c-0.4,0.8-0.7,1.6-1,2.4c0,0.1,0,0.1,0,0.2c-1.2,3.2-1.9,7-2.1,11.1c0,0.4,0,0.8,0,1.3h1.6
					c0.3-3.3,1.1-6.4,2.1-9.2c2.5-6.5,6.6-11.2,11.4-11.9c0.1,0,0.2,0,0.3,0h0c0.5,0,1,0,1.5,0c1.1,0.1,2.2,0.4,3.3,0.9
					c2,1,3.8,2.8,5.2,5.2c0.1,0.1,0.2,0.2,0.2,0.4c0.3,0.5,0.6,1,0.8,1.5c0.3,0.7,0.6,1.4,0.9,2.1c0,0.1,0,0.1,0,0.1
					c1.1,2.9,1.8,6.3,1.9,10.1c0,0.3,0,0.6,0,0.9h1.4C432.9,390,432.1,386.4,430.9,383.3z M431.8,398.1c-1.1,11-6.7,20.1-13.5,21.2
					c-0.1,0-0.2,0-0.3,0h0c-0.5,0-1,0-1.5,0c-3.4-0.2-6.4-2.4-8.6-6c-1-1.6-1.8-3.4-2.4-5.4c-0.7-2-1.1-4.3-1.3-6.6
					c0-0.1,0-0.2,0-0.2v0c0-0.1,0-0.1,0-0.2c-0.1-0.9-0.1-1.8-0.1-2.7h-1.4c1.1,12.3,7.4,22.5,15,23.7c0.1,0,0.2,0,0.3,0h0
					c0.6,0,1.1,0,1.7,0c3.7-0.2,7-2.7,9.5-6.7c1.1-1.8,2-3.8,2.7-6c0.7-2.2,1.2-4.7,1.4-7.4c0-0.1,0-0.2,0-0.2v0c0-0.1,0-0.1,0-0.2
					c0.1-1,0.2-2,0.2-3v-0.2H431.8z M430.7,373c0.3,0.5,0.5,1.1,0.7,1.6c0.3,0.1,0.5,0.2,0.7,0.3c0.5,0.2,1.1,0.5,1.6,0.8
					c0.4,0.2,0.9,0.5,1.3,0.7c0.3,0.2,0.6,0.4,0.9,0.6c0,0,0.1,0,0.1,0.1c0,0,0.1,0.1,0.1,0.1c0.1,0.1,0.3,0.2,0.4,0.3
					c0.4,0.3,0.8,0.6,1.2,0.9c2,1.5,3.7,3.3,5,5.3c0.3,0.4,0.6,0.8,0.8,1.3c1.5,2.7,2.4,5.7,2.5,8.9h2.8
					C447.3,384.9,440.3,377.1,430.7,373z M445.9,398.1c-1.2,5.9-4.9,11.3-10.3,15.1c-0.6,0.5-1.3,0.9-2,1.3
					c-0.4,1.4-0.8,2.7-1.3,3.9c-0.2,0.6-0.5,1.1-0.8,1.7c0.6-0.2,1.2-0.4,1.7-0.6c1.9-0.7,3.6-1.6,5.2-2.7c1.9-1.2,3.6-2.6,5-4.2
					c0.1-0.1,0.2-0.2,0.3-0.3c0.2-0.3,0.5-0.5,0.7-0.8c3-3.7,4.8-8.1,5-12.9c0-0.1,0-0.2,0-0.2c0-0.1,0-0.1,0-0.2H445.9z M447,376.6
					c0.4,0.6,0.8,1.1,1.2,1.7c0.6,0.3,1.2,0.7,1.8,1c0.5,0.3,0.9,0.6,1.4,0.9c2.5,1.6,4.5,3.5,6,5.5c1.4,1.9,2.4,3.8,2.8,6
					c0.1,0.7,0.2,1.3,0.3,2.1h4.1C462.8,387,456.3,381,447,376.6z M460,398.1c-0.1,0.2-0.1,0.4-0.2,0.6c-1.2,3.5-3.8,6.8-7.5,9.7
					c-0.6,1.9-1.4,3.8-2.4,5.5c-0.4,0.7-0.8,1.4-1.2,2c-0.2,0.3-0.4,0.6-0.6,0.9c-0.1,0.1-0.1,0.2-0.2,0.3c0.5-0.2,1-0.4,1.4-0.6
					c0.4-0.2,0.9-0.4,1.3-0.6c0.3-0.1,0.6-0.3,0.9-0.4c0,0,0,0,0,0c0.7-0.4,1.4-0.7,2.1-1.1c0,0,0,0,0,0c0.7-0.4,1.4-0.8,2-1.3
					c1.6-1.1,3.1-2.3,4.3-3.6c3.2-3.3,5-7,5.2-11c0-0.1,0-0.1,0-0.2H460z"/>
			</g>
			<path class="st0" d="M403.8,375.3c-0.4,0.3-0.8,0.5-1.1,0.8v0c0.1-0.3,0.2-0.5,0.3-0.8c0-0.1,0.1-0.2,0.1-0.3
				C403.3,375,403.5,375.2,403.8,375.3z"/>
			<path class="st0" d="M419.5,397.9h12.2c0,0.1,0,0.1,0,0.2h-11.9C419.7,398.1,419.6,398,419.5,397.9z"/>
			<path class="st0" d="M431.8,393.7c0,0.1,0,0.1,0,0.2h-17.5c-0.1-0.1-0.2-0.1-0.3-0.2H431.8z"/>
			<path class="st0" d="M438.8,398.1h-4.9c0-0.1,0-0.1,0-0.2h4.6C438.7,398,438.8,398.1,438.8,398.1z"/>
			<path class="st0" d="M494.6,506.6h-39.1c0,0.1,0,0.2,0,0.3h39.2C494.6,506.8,494.6,506.7,494.6,506.6z M455.3,512.5v0.3h39.1v0
				c0-0.1,0-0.2,0-0.2H455.3z M403,374.9c0,0.1-0.1,0.2-0.1,0.3c-0.1,0.3-0.2,0.5-0.3,0.8v0c0.4-0.3,0.7-0.5,1.1-0.8
				C403.5,375.2,403.3,375,403,374.9z M438.6,397.9H434c0,0.1,0,0.1,0,0.2h4.9C438.8,398.1,438.7,398,438.6,397.9z M431.8,393.7
				C431.8,393.7,431.8,393.7,431.8,393.7l-27.8,0c0,0.1,0,0.1,0,0.2h27.8C431.8,393.9,431.8,393.8,431.8,393.7z M403.9,397.9v0.2
				h27.8v0c0-0.1,0-0.1,0-0.2H403.9z M344.1,330.7c-2.1-2.4-5-4.3-8.4-5.4c4,1.6,7.3,4.1,9.7,7.2
				C345.1,331.8,344.6,331.2,344.1,330.7z M339.2,339.7c-0.6-5.7-2.1-10.8-4.2-14.6c-0.1,0-0.1,0-0.2-0.1c0.4,0.7,0.7,1.4,1.1,2.2
				c0.8,1.8,1.4,3.8,1.8,6c0.2,1,0.4,2.1,0.5,3.3c0.1,0.8,0.2,1.6,0.2,2.4c0,0.1,0,0.3,0,0.4v0.4L339.2,339.7z M325.1,343.4
				l-4.6,0.2l-4.4,0.2v0l12.1-0.5l4.8-0.2l4-0.2c0-0.1,0-0.1,0-0.2L325.1,343.4z M333.1,339.9l-0.9,0l-16.1,0.8c0,0,0,0.1,0,0.2
				l4.2-0.2l0.8-0.1l10.1-0.5l5.8-0.3v0L333.1,339.9z M333.5,328.7c-0.5-0.7-1-1.4-1.5-1.9c0.4,0.5,0.8,1,1.2,1.5
				c0.5,0.7,1,1.5,1.5,2.4C334.3,329.9,333.9,329.3,333.5,328.7z M319,354.1c-0.4-0.6-0.7-1.2-1-1.8c0.2,0.4,0.4,0.8,0.5,1.1
				c0.1,0.3,0.3,0.6,0.5,0.9c0.6,1.1,1.4,2,2.1,2.7C320.4,356.2,319.7,355.3,319,354.1z M317,356c0-0.1-0.1-0.2-0.1-0.3
				c-0.2-0.4-0.3-0.9-0.5-1.4c0,0,0,0,0,0c-0.1-0.1-0.1-0.3-0.1-0.4c0-0.1-0.1-0.2-0.1-0.3c-0.4-1.4-0.8-2.9-1-4.4
				c-0.3-1.6-0.5-3.2-0.6-4.8l0-0.4l-0.7,0c0.1,1.1,0.3,2.1,0.4,3.1c0,0.1,0,0.2,0.1,0.3c0.2,1.3,0.5,2.6,0.8,3.8
				c0.1,0.3,0.2,0.6,0.3,0.9c0.7,2.4,1.6,4.6,2.7,6.5c0.1,0,0.1,0,0.2,0.1C317.8,357.8,317.4,356.9,317,356z M307.6,351.2
				c0.4,0.6,0.9,1.3,1.4,1.8c1,1.1,2.1,2,3.3,2.9c0,0,0.1,0,0.1,0.1c0,0,0.1,0.1,0.1,0.1c0,0,0,0,0.1,0.1c0,0,0.1,0,0.1,0.1
				c0.4,0.3,0.9,0.6,1.3,0.8h0c0.3,0.2,0.7,0.3,1,0.5c0.6,0.3,1.3,0.6,2,0.8C313.2,356.7,309.9,354.2,307.6,351.2z"/>
			<path class="st0" d="M550.4,509.7c-0.1-1-0.2-2-0.4-3c-1.6-9-6.8-17.3-15-24.2c0,0,0,0,0,0c-7.9-6.7-18.5-12.1-31-15.6
				c-3.1-0.9-6.4-1.7-9.8-2.3c0,0,0,0,0,0h0c-0.2-0.3-0.3-0.6-0.5-0.9c-2.1-3.6-3.9-7.4-6.2-10.9l-6.9-10.4
				c-4.9-6.9-10.2-13.4-15.8-19.7c-0.4-0.4-0.7-0.8-1.1-1.2c-0.9-0.9-1.7-1.9-2.6-2.8c1.4-1.1,2.7-2.3,3.9-3.5
				c4.5-4.7,7-10.4,7.2-16.4c0-0.2,0-0.4,0-0.6c0-0.8,0-2.2,0-2.2c-0.1-0.7-0.1-1.5-0.3-2.2c-2.9-17.1-24.4-30.4-52.8-31.9
				c-0.4,0-0.9-0.1-1.3-0.1h0c-0.4,0-0.7-0.1-1.1-0.1c-0.1,0-0.3,0-0.4,0h-0.1c-0.3,0-0.5,0-0.7,0h-1.2c-5.5,0-10.8,0.5-15.8,1.4
				c-2.2,0.4-4.3,0.9-6.3,1.5c-1.6,0.4-3.1,0.9-4.6,1.5c-0.5,0.2-1,0.4-1.6,0.6c0,0-0.1,0-0.1,0h0c-7.7-3.4-15.6-6.5-23.5-9.1
				c-1.3-0.4-2.6-0.9-3.8-1.3l0,0c1.3-1.1,2.4-2.4,3.3-3.6c2.4-3.2,3.6-6.8,3.6-10.6c0-0.1,0-0.3,0-0.4c0-0.5-0.1-1.6-0.1-1.6
				c-0.1-0.5-0.2-1-0.3-1.6c-0.8-3.7-2.9-7.1-5.9-10.1c-1.1-1.1-2.4-2.1-3.7-3.1c-1.8-1.2-3.7-2.4-5.9-3.3c-0.1-0.1-0.3-0.1-0.4-0.2
				c-6.4-2.9-14.3-4.5-23-4.6c-0.3,0-0.6,0-1,0c0,0,0,0,0,0c-0.3,0-0.5,0-0.8,0c-0.1,0-0.2,0-0.3,0h-0.1c-0.2,0-0.3,0-0.5,0
				c-0.1,0-0.2,0-0.3,0c-0.2,0-0.4,0-0.5,0c-9.1,0.4-17.6,2.7-24,6.5c-2.3,1.3-4.3,2.9-5.9,4.5c-0.5,0.5-1,1-1.4,1.6
				c-0.1,0.1-0.1,0.1-0.1,0.2c-0.1,0.2-0.3,0.3-0.4,0.5c-1.9,2.5-3.1,5.2-3.5,8.1c-0.2,0.9-0.2,1.7-0.2,2.6l0,0.2c0,0.1,0,0.2,0,0.4
				c0,0,0,0,0,0c-1.1-0.1-2.2-0.2-3.2-0.3c-5.4-0.4-10.8-0.6-16.2-0.6c5.4,0.4,10.9,1,16.2,1.7c1.1,0.2,2.2,0.3,3.3,0.5v0
				c0,0,0,0,0,0l0,0.3l-0.1,0c0,0.1,0,0.3,0.1,0.4c0.1,0.4,0.1,0.8,0.2,1.1v0c0.6,2.5,1.7,4.9,3.4,7.1c0,0.1,0.1,0.1,0.1,0.2
				c0.1,0.2,0.3,0.4,0.4,0.6c0.2,0.3,0.4,0.5,0.7,0.8c-0.2-0.1-0.4-0.1-0.6-0.2c-2.5-0.7-5-1.4-7.5-2.1c-8.9-2.4-17.9-4.3-27-6
				c-2.3-0.4-4.5-0.8-6.8-1.1c-13.6-2.1-27.4-3.4-41.1-3.5c13.1,0.9,26,3,38.8,5.8c2.8,0.6,5.6,1.3,8.4,1.9c9,2.3,18,4.9,26.7,7.8
				c3.1,1.1,6.2,2.2,9.3,3.3c2.8,1,5.5,2.1,8.2,3.3c0.3,0.1,0.7,0.3,1,0.4c2.9,1.2,5.8,2.5,8.7,3.8c6.5,2.9,12.8,6.1,19,9.6
				c12.4,6.9,24.1,14.7,34.9,23.6c0,0,0,0,0,0c0,0,0,0,0,0c2.2,7.6,8.1,14.4,16.7,19.5c2.2,1.3,4.7,2.6,7.3,3.7c0,0,0,0,0,0
				c0,0,0,0,0,0c0.3,0.4,0.7,0.8,1,1.1c3.5,4.1,6.9,8.3,10,12.7c3.2,4.4,6.3,9,9.1,13.6l5.7,10c1.8,3.4,3.3,6.9,5,10.4
				c0.4,0.8,0.7,1.5,1.1,2.3c0.1,0.2,0.2,0.4,0.2,0.5c0,0,0,0,0,0c0,0,0,0,0,0c-0.5,0.3-1,0.6-1.4,0.9c-2.6,1.7-5,3.5-7.1,5.4
				c-7.6,7-11.9,15.6-12.3,25c0,0.3,0,0.6,0,0.8c0,1,0,2,0.1,3h-0.1c0.1,1,0.2,2,0.4,3.1c2.6,14.9,15.4,27.8,34.3,35.8
				c1.3,0.5,2.6,1.1,4,1.6h0c0,0,0,0,0,0c0.1,1.8,0.3,3.6,0.4,5.4c0.6,9.5,0.7,19,0.3,28.5h26.1c-0.3-8.1-0.8-16.2-1.7-24.2
				c-0.1-1.3-0.3-2.5-0.4-3.8c0,0,0,0,0,0c0,0,0,0,0,0c0.7,0.1,1.4,0.2,2.1,0.3c1.7,0.2,3.5,0.4,5.2,0.5c0.9,0.1,1.8,0.1,2.7,0.2
				c0.6,0,1.2,0.1,1.8,0.1c0,0,0,0,0,0c0.2,0,0.4,0,0.5,0.1c0.3,0.1,0.7,0.1,1,0.1c0.2,0,0.4,0,0.5,0h0.1c0.3,0,0.7,0,1,0
				c0.2,0,0.4,0,0.6,0c0.4,0,0.7,0,1,0c6,0,12-0.4,17.6-1.3h0c0.3,4.3,0.4,8.6,0.5,13c0.1,5.1,0,10.2-0.1,15.2h26.1
				c-0.4-11.5-1.4-23.1-3-34.6l0,0c0,0,0,0,0,0c1.4-0.6,2.7-1.2,4-1.8c0.6-0.3,1.1-0.6,1.7-0.9c0.4-0.2,0.8-0.4,1.2-0.6
				c13.7-7.7,21.6-18.7,22.6-31.3c0-0.4,0.1-0.7,0.1-1.1v-0.1c0-0.3,0-0.6,0-0.8C550.4,511.7,550.4,509.7,550.4,509.7z M527.6,490.3
				c6.2,4.8,10.5,10.4,12.1,16.3h-14.9c-0.4-3.7-1.3-7.3-2.5-10.8c0,0,0,0,0,0c-1.5-4.2-3.6-8.1-6.2-11.7c-0.3-0.4-0.6-0.8-0.9-1.2
				C520,485.1,524.1,487.6,527.6,490.3z M516.7,501.8C516.7,501.8,516.8,501.8,516.7,501.8L516.7,501.8c0.6,1.6,1,3.2,1.3,4.9h-6.5
				c0,0,0,0,0,0h-11.9c-0.1-1.2-0.2-2.5-0.3-3.7c0-0.2,0-0.4-0.1-0.6c-0.1-0.9-0.2-1.7-0.3-2.5c0-0.2-0.1-0.5-0.1-0.7
				c-0.1-0.4-0.1-0.9-0.2-1.3c0-0.1,0-0.2-0.1-0.3c-0.1-0.4-0.1-0.7-0.2-1.1c0-0.1,0-0.3-0.1-0.4c-0.1-0.4-0.1-0.8-0.2-1.2
				c-0.2-0.8-0.3-1.6-0.5-2.4c-0.6-2.5-1.2-4.9-2-7.2c-0.1-0.3-0.2-0.7-0.3-1c0-0.1-0.1-0.2-0.1-0.4c-0.5-1.4-1-2.7-1.6-3.9
				c-0.1-0.1-0.1-0.3-0.2-0.4c0,0,0,0,0,0c-0.2-0.5-0.5-1-0.7-1.5c1,0.4,1.9,0.8,2.8,1.3c0.1,0.1,0.3,0.1,0.4,0.2
				c0.8,0.4,1.6,0.8,2.4,1.3c0.1,0,0.1,0.1,0.2,0.1c0.1,0,0.1,0.1,0.2,0.1c0.8,0.5,1.6,1,2.4,1.5c0,0,0.1,0.1,0.1,0.1
				c0,0,0.1,0,0.1,0.1c0.8,0.6,1.6,1.2,2.4,1.8l0,0h0c0,0,0,0,0,0C509.8,489.1,514.4,495.1,516.7,501.8z M443.8,532.9
				c-0.6-0.6-1.2-1.1-1.8-1.7c-0.4-0.4-0.8-0.8-1.2-1.3c0,0,0,0,0,0c0,0,0,0,0,0c-0.3-0.3-0.5-0.6-0.8-0.9c-0.1-0.1-0.2-0.2-0.3-0.4
				c-0.3-0.3-0.6-0.7-0.9-1c-0.6-0.7-1.1-1.5-1.6-2.3c0,0,0-0.1-0.1-0.1c-0.2-0.3-0.4-0.6-0.6-0.9c-0.8-1.3-1.6-2.7-2.2-4.1
				c0,0,0,0,0,0c0,0,0,0,0,0c-1.1-2.4-1.9-4.9-2.4-7.4h18.4c0,0,0,0.1,0,0.1c0.1,1.1,0.2,2.2,0.3,3.3c0,0.4,0.1,0.8,0.1,1.2
				c0,0.2,0,0.3,0,0.5c0,0.4,0.1,0.8,0.1,1.3c0.1,0.5,0.1,0.9,0.2,1.4c0,0.3,0.1,0.6,0.1,0.8c0,0.3,0.1,0.6,0.1,0.9
				c0.1,0.4,0.1,0.8,0.2,1.2c0.1,0.3,0.1,0.7,0.2,1c0,0,0,0.1,0,0.1c0.1,0.3,0.1,0.6,0.2,0.9c0.1,0.4,0.1,0.8,0.2,1.1
				c0.3,1.2,0.6,2.4,0.9,3.6c0.1,0.6,0.3,1.1,0.5,1.7c0.2,0.6,0.3,1.1,0.5,1.7c0.1,0.4,0.3,0.9,0.4,1.3c0.1,0.3,0.2,0.6,0.3,0.8
				c0.1,0.4,0.3,0.8,0.4,1.1c0.1,0.3,0.2,0.5,0.3,0.8c0.1,0.2,0.1,0.3,0.2,0.5c0.1,0.3,0.2,0.6,0.4,0.8c0.1,0.3,0.3,0.7,0.4,1
				c0.2,0.5,0.5,1,0.7,1.4c0,0,0,0.1,0,0.1c-3.3-1.4-6.4-3.1-9.2-5.1C446.6,535.2,445.2,534.1,443.8,532.9z M435.3,492.7
				C435.3,492.7,435.3,492.7,435.3,492.7c0.4-0.7,0.8-1.3,1.2-1.9c0.1-0.1,0.1-0.2,0.2-0.3c0.4-0.6,0.8-1.2,1.3-1.8
				c0.1-0.2,0.3-0.3,0.4-0.5c0.1-0.2,0.3-0.3,0.4-0.5c0.2-0.2,0.4-0.4,0.5-0.6c0.4-0.4,0.7-0.8,1.1-1.2c0.5-0.5,1.1-1.1,1.6-1.5
				c0.2-0.2,0.4-0.3,0.5-0.5l0,0c0.2-0.2,0.4-0.3,0.6-0.5c0.4-0.3,0.7-0.6,1.1-0.9c0,0,0,0,0,0c0,0,0,0,0,0c2-1.5,4.1-2.9,6.5-4
				c1.8-0.9,3.6-1.7,5.5-2.3c-1,2.1-1.9,4.5-2.7,7c-0.1,0.4-0.2,0.8-0.4,1.2c-1.3,4.6-2.2,9.7-2.6,15.1c0,0.3,0,0.6-0.1,0.8
				c-0.1,1.8-0.2,3.6-0.2,5.4c0,0.3,0,0.6,0,0.8h-18.8c0-0.1,0-0.2,0-0.3c0-0.4,0-0.8,0.1-1.1c0-0.3,0-0.5,0.1-0.8v0
				c0.2-2.3,0.7-4.5,1.4-6.7C433.6,496,434.4,494.3,435.3,492.7z M453.6,506.6c0.1-5.5,0.9-10.6,2.3-15.2c0.9-2.9,2.1-5.6,3.4-7.9
				c3.4-5.9,8.1-9.5,13.4-9.9c0.8,0,1.6,0,2.4,0.1c0.2,0,0.3,0,0.4,0.1c1.2,0.2,2.4,0.5,3.5,1c0.1,0,0.2,0.1,0.3,0.1
				c8.4,3.8,15,15.6,16.8,29.7c0.1,0.6,0.2,1.3,0.2,1.9H490c0,0,0,0,0,0H453.6z M467.4,451.8L467.4,451.8l5.4,9.5
				c0.2,0.3,0.4,0.7,0.5,1c0,0,0,0,0,0c-0.1,0-0.2,0-0.3,0h-0.1c-0.3,0-0.7,0-1,0c-0.2,0-0.4,0-0.6,0c-0.1,0-0.3,0-0.4,0
				c-0.2,0-0.4,0-0.6,0c-9,0-17.7,1-25.7,2.8c-2.6,0.6-5.1,1.3-7.5,2c0,0,0,0,0,0c0,0,0,0,0,0c-0.6-1.2-1.3-2.3-1.9-3.5
				c-1.6-2.8-3.1-5.7-4.8-8.6v0L467.4,451.8z M398.3,415.1C398.3,415.1,398.3,415.1,398.3,415.1
				C398.3,415.1,398.3,415.1,398.3,415.1c-6.1-4.3-10.3-10.3-11.5-17h13.3c0.2,4.2,0.8,8.2,1.8,11.8c0.7,2.6,1.5,5.1,2.5,7.3
				c0.2,0.5,0.5,1.1,0.7,1.6c-1.6-0.7-3.1-1.4-4.5-2.3c0,0,0,0-0.1,0C399.8,416.1,399,415.6,398.3,415.1z M386.5,414.1
				c-0.4-0.2-0.8-0.4-1.2-0.7c-0.7-0.4-1.3-0.8-1.9-1.2h0c-0.4-0.3-0.9-0.6-1.3-0.8c-0.1-0.1-0.2-0.1-0.2-0.2
				c-0.3-0.2-0.6-0.4-0.9-0.7c-0.1-0.1-0.3-0.2-0.4-0.3c-0.3-0.2-0.5-0.4-0.8-0.6c-0.1-0.1-0.2-0.2-0.3-0.3
				c-0.4-0.3-0.7-0.6-1.1-0.9c-0.2-0.1-0.3-0.3-0.5-0.4c-0.2-0.2-0.4-0.3-0.6-0.5c-0.4-0.4-0.8-0.8-1.2-1.2c0,0,0,0,0,0
				c-0.1-0.1-0.3-0.3-0.4-0.4c-0.2-0.2-0.3-0.4-0.5-0.5s-0.3-0.4-0.4-0.5c-0.1-0.1-0.1-0.1-0.1-0.2c0,0-0.1-0.1-0.1-0.1
				c-0.1-0.1-0.1-0.2-0.2-0.3c-0.1-0.1-0.1-0.2-0.2-0.2c-0.1-0.1-0.2-0.3-0.3-0.4c-0.1-0.1-0.2-0.3-0.3-0.4c0,0,0,0,0-0.1
				c-0.1-0.1-0.2-0.3-0.3-0.4c-0.1-0.2-0.2-0.4-0.3-0.6c-0.1-0.2-0.2-0.4-0.3-0.6c-0.3-0.5-0.6-1.1-0.8-1.7
				c-0.1-0.1-0.1-0.2-0.1-0.3c-0.1-0.2-0.2-0.4-0.2-0.6c-0.1-0.3-0.2-0.6-0.3-0.9v0h10.7c0.1,1.2,0.3,2.4,0.6,3.6c0,0,0,0,0,0
				c0,0,0,0,0,0c0.4,1.9,1,3.8,1.7,5.5c0.1,0.1,0.1,0.3,0.2,0.4c0.1,0.3,0.2,0.5,0.3,0.8c0.7,1.6,1.6,3.2,2.6,4.7
				c0.1,0.1,0.1,0.2,0.2,0.3c0,0.1,0.1,0.1,0.1,0.2c0.1,0.1,0.1,0.2,0.2,0.3c0,0,0,0,0,0.1c0.3,0.4,0.6,0.9,0.9,1.3
				c-0.4-0.2-0.7-0.3-1-0.5C387.3,414.5,386.9,414.3,386.5,414.1z M380.7,378.5c0.5-0.3,1-0.7,1.5-1c1.1-0.6,2.2-1.2,3.4-1.8
				c0,0,0,0,0,0c0,0,0,0,0,0c0.4-0.2,0.8-0.4,1.2-0.5c0.3-0.2,0.7-0.3,1-0.5c-0.1,0.1-0.1,0.2-0.2,0.3c-0.1,0.1-0.1,0.2-0.2,0.3
				c0,0.1-0.1,0.1-0.1,0.2c0,0.1-0.1,0.1-0.1,0.2c-0.1,0.1-0.1,0.2-0.1,0.2c-0.1,0.1-0.2,0.3-0.3,0.4c0,0,0,0,0,0l0,0
				c-0.1,0.2-0.3,0.4-0.4,0.6c-0.7,1.2-1.4,2.4-1.9,3.7c-0.4,0.9-0.7,1.8-1,2.7c-0.8,2.4-1.3,4.9-1.6,7.4c-0.1,1-0.2,1.9-0.2,2.9
				h-11.1v-0.2c0-0.3,0-0.6,0.1-0.9c0-0.1,0-0.2,0-0.4c0-0.2,0.1-0.4,0.1-0.6c0-0.1,0-0.3,0.1-0.4c0.5-2.4,1.5-4.6,3.1-6.6
				C375.7,382.3,378,380.3,380.7,378.5z M402.5,398.1h30.9v0.2c0,1-0.1,2.1-0.2,3c0,0.1,0,0.1,0,0.2v0c0,0.1,0,0.2,0,0.2
				c-0.2,2.7-0.7,5.1-1.4,7.4c-0.7,2.2-1.6,4.3-2.7,6c-2.4,4-5.8,6.5-9.5,6.7c-0.6,0-1.1,0-1.7,0h0c-0.1,0-0.2,0-0.3-0.1
				C409.9,420.6,403.7,410.4,402.5,398.1z M432.2,418.4c0.5-1.2,1-2.5,1.3-3.9c0.3-0.8,0.5-1.7,0.7-2.6c0.6-2.5,1-5.1,1.2-7.8
				c0-0.2,0-0.4,0.1-0.5v-0.1c0.1-1.5,0.2-3.1,0.2-4.8c0-0.2,0-0.4,0-0.6h13.6c0,0.1,0,0.1,0,0.2c0,0.1,0,0.2,0,0.2
				c-0.2,4.9-2,9.3-5,12.9c-0.2,0.3-0.5,0.6-0.7,0.8c-0.1,0.1-0.2,0.2-0.3,0.3c-1.5,1.6-3.1,3-5,4.2c-1.6,1.1-3.3,2-5.2,2.7
				c-0.6,0.2-1.1,0.4-1.7,0.6C431.7,419.6,431.9,419,432.2,418.4z M465.1,398.4c-0.2,4-2,7.8-5.2,11c-1.2,1.3-2.7,2.5-4.3,3.6
				c-0.6,0.4-1.3,0.9-2,1.3c0,0,0,0,0,0c-0.7,0.4-1.4,0.8-2.1,1.1c0,0,0,0,0,0c-0.3,0.2-0.6,0.3-0.9,0.4c-0.4,0.2-0.9,0.4-1.3,0.6
				c-0.5,0.2-0.9,0.4-1.4,0.6c0.1-0.1,0.1-0.2,0.2-0.3c0.2-0.3,0.4-0.6,0.6-0.9c0.4-0.6,0.8-1.3,1.2-2c1-1.7,1.7-3.6,2.4-5.5
				c0.6-1.8,1-3.7,1.3-5.6c0.3-1.5,0.4-3.1,0.4-4.7h11.1C465.2,398.2,465.1,398.3,465.1,398.4z M464.7,393.7h-10.7
				c-0.6-5.6-2.6-10.9-5.7-15.4c-0.4-0.6-0.8-1.1-1.2-1.7C456.3,381,462.8,387,464.7,393.7z M449,393.7h-13.3
				c-0.2-2.6-0.4-5.1-0.8-7.5c-0.8-4.3-1.9-8.3-3.4-11.7c-0.2-0.5-0.5-1.1-0.7-1.6C440.3,377.1,447.3,384.9,449,393.7z M404.6,381.2
				c0.3-0.8,0.7-1.6,1-2.4c0.3-0.6,0.6-1.2,0.9-1.7c0.1-0.1,0.2-0.3,0.3-0.4c1.6-2.6,3.6-4.6,5.8-5.7c1.2-0.6,2.4-0.9,3.6-1
				c0.6,0,1.1,0,1.7,0.1h0c0.1,0,0.2,0,0.3,0c5.3,0.8,9.9,6,12.7,13.2c1.2,3.2,2,6.7,2.4,10.5h-30.8c0-0.4,0-0.8,0-1.3
				c0.2-4.1,0.9-7.9,2.1-11.1C404.6,381.3,404.6,381.2,404.6,381.2z M402.1,372.6c0.8-0.3,1.5-0.6,2.3-0.9c-0.3,0.7-0.6,1.4-0.9,2.1
				c-0.1,0.4-0.3,0.7-0.4,1.1c0,0.1-0.1,0.2-0.1,0.3c-0.1,0.3-0.2,0.5-0.3,0.8c-0.1,0.2-0.1,0.4-0.2,0.6c-0.1,0.2-0.1,0.5-0.2,0.7
				c-0.1,0.4-0.3,0.8-0.4,1.3c-0.1,0.3-0.2,0.7-0.2,1c-0.8,3.4-1.3,7.2-1.5,11.2v0c0,0.8-0.1,1.5-0.1,2.3v0.6h-13.6
				c0-0.1,0-0.1,0-0.2c0.1-3.6,1.1-6.9,2.7-9.9c0.3-0.5,0.6-1,0.9-1.4c1.5-2.2,3.4-4.2,5.6-5.9c0.4-0.4,0.9-0.7,1.4-1
				c0.1-0.1,0.3-0.2,0.4-0.3c0,0,0.1,0,0.1-0.1c0,0,0.1-0.1,0.1-0.1c0.3-0.2,0.7-0.4,1-0.6c0.4-0.2,0.8-0.5,1.3-0.7
				c0.1,0,0.1-0.1,0.2-0.1C400.8,373.1,401.4,372.9,402.1,372.6z M296.2,344.8L296.2,344.8L296.2,344.8c0.1,0,0.2,0,0.3,0.1
				c0,0,0,0,0-0.1c0,0,0,0,0,0l0,0l1.8-0.1l0.3,0l1-0.1l0.4,0l0.6,0l0.2,0c0,0,0,0,0,0c0,0,0,0,0,0c0,0,0,0,0,0.1c0,0,0,0,0,0
				c0.1,0.9,0.3,1.7,0.6,2.5v0c0.7,2.6,1.9,5,3.4,7.3c0.5,0.7,1,1.4,1.6,2.1c0,0,0,0-0.1,0c0,0,0,0,0,0c-3.5-1.5-6.5-3.3-8.8-5.4
				c-0.7-0.6-1.3-1.3-1.9-1.9c-0.1-0.1-0.1-0.1-0.1-0.2c-0.1-0.2-0.3-0.4-0.4-0.6c0-0.1-0.1-0.1-0.1-0.2c-0.5-0.7-1-1.5-1.3-2.2l0,0
				c-0.1-0.3-0.3-0.5-0.4-0.9c-0.1-0.1-0.1-0.2-0.1-0.3L296.2,344.8z M314.2,347.1c0,0.1,0,0.2,0.1,0.3c0.2,1.3,0.5,2.6,0.8,3.8
				c0.1,0.3,0.2,0.6,0.3,0.9c0.7,2.4,1.6,4.6,2.6,6.5c0,0,0,0.1,0.1,0.1c-0.3-0.1-0.7-0.3-1-0.4h0c-3.9-1.6-7.1-4.1-9.4-7.1
				c-0.7-0.9-1.3-1.8-1.8-2.7c-0.3-0.6-0.6-1.2-0.8-1.8c-0.2-0.4-0.3-0.9-0.5-1.3v0c-0.1-0.3-0.2-0.6-0.3-0.9l9.6-0.4v0
				C313.9,345.1,314.1,346.1,314.2,347.1z M321.4,357.3c0-0.1-0.1-0.1-0.1-0.2c-0.8-0.9-1.5-1.8-2.2-3c-0.3-0.6-0.7-1.2-1-1.8
				c0,0,0,0,0-0.1c0-0.1-0.1-0.1-0.1-0.2c-0.6-1.3-1.1-2.7-1.6-4.2c0-0.1-0.1-0.2-0.1-0.4c-0.3-1.2-0.6-2.4-0.7-3.6l0.6,0l12.1-0.5
				l4.8-0.2l3.9-0.2l0.7,0l0,0.2c0.1,1.6,0,3.1-0.2,4.5c-0.2,1.6-0.5,3.1-1,4.5c-0.1,0.4-0.2,0.7-0.4,1c0,0.1-0.1,0.1-0.1,0.2
				c-0.1,0.3-0.3,0.7-0.4,1c-0.6,1.2-1.3,2.4-2.1,3.2c-1.2,1.4-2.6,2.3-4.1,2.7c-0.1,0-0.1,0-0.2,0.1c0,0,0,0,0,0h0
				c-0.3,0.1-0.5,0.1-0.7,0.1c-0.4,0-0.8,0-1.2,0c-0.1,0-0.2,0-0.3,0C325,360.2,323.1,359.1,321.4,357.3z M338.1,355.7
				c0-0.1,0.1-0.2,0.1-0.3c0.1-0.5,0.3-1,0.4-1.5c0-0.1,0-0.2,0.1-0.2c0-0.1,0-0.2,0.1-0.2c0-0.1,0-0.2,0.1-0.3
				c0.2-1.1,0.4-2.2,0.5-3.3c0.1-0.5,0.1-1,0.1-1.5c0.1-1.7,0.2-3.4,0.1-5.2l0-0.4l0.3,0l6.5-0.3l1.5-0.1l1.5-0.1c0,0.1,0,0.1,0,0.2
				c0,1.4-0.1,2.7-0.5,4c-0.5,1.9-1.3,3.7-2.4,5.3c-0.9,1.2-1.9,2.4-3.2,3.4c0,0,0,0,0,0c-0.1,0.1-0.1,0.1-0.2,0.2c0,0,0,0-0.1,0.1
				c0,0,0,0,0,0c0,0,0,0,0,0c0,0,0,0,0,0c0,0-0.1,0-0.1,0.1c0,0,0,0,0,0c-0.4,0.3-0.9,0.7-1.3,1h0c-0.3,0.2-0.6,0.4-1,0.6
				c-1,0.6-2.1,1.2-3.3,1.6C337.4,357.8,337.8,356.8,338.1,355.7z M360.5,342c0,3-1.2,5.8-3.5,8.3c-1.3,1.5-3,2.8-4.9,4
				c-0.2,0.1-0.4,0.3-0.6,0.4c-0.3,0.2-0.5,0.3-0.8,0.5c-0.6,0.3-1.3,0.7-1.9,1v0c0.2-0.2,0.3-0.5,0.4-0.7c0-0.1,0.1-0.1,0.1-0.2
				c0.1-0.1,0.1-0.2,0.2-0.3c0,0,0,0,0,0c0.2-0.3,0.4-0.7,0.5-1c0-0.1,0.1-0.1,0.1-0.1c0.4-0.8,0.7-1.6,1-2.5c0.4-1,0.6-2.1,0.9-3.2
				c0.4-1.9,0.6-3.8,0.5-5.8l5.6-0.3l2.4-0.1C360.5,341.9,360.5,342,360.5,342z M355.7,332.4c0.1,0,0.1,0.1,0.2,0.2
				c2,1.8,3.4,3.9,4.1,6.1l-7.7,0.3c0,0,0-0.1,0-0.1c-0.1-0.8-0.3-1.6-0.5-2.4c-1-3.6-2.7-6.8-5-9.6
				C350.3,328.5,353.4,330.3,355.7,332.4z M335.7,325.3c4,1.6,7.3,4.1,9.7,7.2c1.6,2,2.7,4.3,3.3,6.8l-2,0.1l-1.9,0.1l-5.1,0.2
				l-0.5,0c-0.6-5.7-2.1-10.8-4.2-14.6c0,0,0-0.1-0.1-0.1C335.2,325,335.5,325.1,335.7,325.3z M324.5,323.2l1.2,0l0.2,0
				c2.2,0.2,4.2,1.5,6,3.4c0,0,0.1,0.1,0.1,0.1c0.4,0.5,0.8,1,1.2,1.5c0.5,0.7,1,1.5,1.5,2.4c0,0,0,0,0,0c1.3,2.6,2.4,5.7,2.8,9.1
				l-0.5,0l-3.9,0.2l-0.9,0l-10.7,0.5l-5.4,0.3l-0.7,0c0-0.9,0-1.8,0-2.7c0.1-1.3,0.2-2.4,0.4-3.6c0.4-2.2,1.1-4.2,1.9-5.8
				C319.4,325.5,321.7,323.5,324.5,323.2z M304.7,335.8c0.2-0.5,0.3-0.9,0.6-1.4c0.4-0.9,0.9-1.7,1.5-2.5c2.1-3.1,5.3-5.5,9.2-7
				c-0.3,0.6-0.5,1.2-0.7,1.8c-0.1,0.2-0.1,0.4-0.2,0.6c-0.1,0.2-0.1,0.4-0.2,0.5c-0.5,1.8-0.9,3.8-1.1,6c-0.1,1.1-0.2,2.3-0.2,3.5
				c0,0.8,0,1.7,0,2.5c0,0.1,0,0.3,0,0.5l0,0.4l-8.2,0.4l-1.5,0.1l0-0.2c0-0.7,0-1.4,0.1-2.1c0-0.1,0-0.3,0.1-0.4
				c0.1-0.6,0.2-1.1,0.3-1.7C304.5,336.5,304.6,336.2,304.7,335.8z M292.5,341.6c0-0.3,0-0.5,0-0.8c0.2-2.8,1.5-5.5,3.8-7.8
				c0.2-0.2,0.4-0.4,0.6-0.7c0.2-0.2,0.4-0.4,0.6-0.5c0.7-0.6,1.5-1.2,2.3-1.8c1.3-0.9,2.8-1.7,4.4-2.5c-0.7,1-1.2,2.1-1.7,3.2
				c-0.3,0.6-0.5,1.1-0.7,1.7c-0.1,0.2-0.2,0.4-0.2,0.6c-0.1,0.4-0.2,0.7-0.3,1.1c-0.1,0.3-0.2,0.7-0.2,1c-0.4,2-0.6,4.1-0.6,6.1
				l-5.5,0.3l-0.5,0l-1.9,0.1V341.6z M335.5,370.4c-2.9-1.4-5.9-2.8-8.9-4.1h0.1c0.3,0,0.6,0,0.9,0h0c0.3,0,0.6,0,0.8,0
				c0.1,0,0.2,0,0.3,0h0.1c0.2,0,0.3,0,0.5,0c0.1,0,0.2,0,0.3,0c0.2,0,0.4,0,0.5,0c2.5-0.1,4.9-0.4,7.2-0.7c3.5-0.6,6.8-1.4,9.8-2.5
				c0.5-0.2,0.9-0.3,1.4-0.5c1.1-0.4,2.2-0.9,3.2-1.4c0.3-0.1,0.6-0.3,0.8-0.4c0,0,0,0,0,0c2.6,1,5.2,2,7.8,3.1
				c3.3,1.4,6.5,2.8,9.7,4.3l-33.6,3C336.2,370.7,335.8,370.6,335.5,370.4z M346.2,375.9l28.2-2.5l0,0c-0.3,0.2-0.6,0.5-0.9,0.7l0,0
				c-0.1,0.1-0.2,0.1-0.3,0.2c-2.1,1.8-3.8,3.7-5.3,5.8c-1.4,2-2.5,4.2-3.2,6.4c0,0.1-0.1,0.2-0.1,0.3c0,0,0,0,0,0
				c-4.7-3.1-9.4-6-14.3-8.7C349,377.4,347.6,376.6,346.2,375.9z M412.3,429.7C412.3,429.7,412.3,429.7,412.3,429.7L412.3,429.7
				c1.4,0.1,2.8,0.2,4.2,0.3c0.4,0,0.9,0,1.3,0c0,0,0,0,0,0c0.2,0,0.3,0,0.4,0c0.2,0,0.4,0,0.7,0c0.1,0,0.3,0,0.4,0h0.1
				c0.2,0,0.5,0,0.7,0c0.1,0,0.3,0,0.5,0c0.2,0,0.5,0,0.7,0c6.7,0,13.2-0.8,19.2-2.2c0.9-0.2,1.8-0.4,2.7-0.7h0c1-0.3,2-0.6,3-0.9
				c0.7-0.3,1.5-0.5,2.2-0.8h0c0,0,0,0,0,0c0.5,0.5,0.9,1.1,1.4,1.7h0c0.2,0.2,0.4,0.5,0.6,0.7c3.4,4.1,6.6,8.3,9.6,12.6
				c0,0,0,0,0,0l-37,3.3l0,0l-1-1.5c-0.3-0.4-0.6-0.9-1-1.3C418.3,437.1,415.4,433.4,412.3,429.7z M409.6,506.3
				c0.2-5.4,2.6-10.4,6.7-14.8c2-2.2,4.5-4.2,7.4-6.1c0.8-0.5,1.6-1,2.5-1.5c0.8-0.5,1.7-0.9,2.5-1.3c0.2-0.1,0.4-0.2,0.7-0.3
				c0.7-0.3,1.3-0.6,2-1c0.7-0.3,1.4-0.6,2.2-1c-0.3,0.4-0.6,0.8-0.8,1.2c-0.1,0.2-0.2,0.3-0.3,0.5c-0.2,0.2-0.3,0.5-0.5,0.7
				c0,0,0,0,0,0.1c0,0.1-0.1,0.1-0.1,0.2c-0.2,0.3-0.4,0.6-0.5,0.8c-0.1,0.2-0.2,0.4-0.3,0.7c-0.2,0.4-0.4,0.7-0.6,1.1
				c-0.1,0.2-0.2,0.4-0.3,0.6c-0.1,0.2-0.2,0.4-0.3,0.6c-0.2,0.4-0.4,0.9-0.6,1.3c-0.1,0.2-0.2,0.3-0.2,0.5
				c-0.1,0.2-0.1,0.3-0.2,0.5c-0.2,0.5-0.4,1-0.6,1.5c-0.1,0.2-0.1,0.4-0.2,0.6c0,0,0,0,0,0c-0.1,0.3-0.2,0.7-0.4,1.1
				c0,0.1-0.1,0.2-0.1,0.2c0,0,0,0,0,0c-0.1,0.3-0.2,0.5-0.2,0.8c-1.3,4.3-2,8.8-2.2,13.4h-15.3
				C409.6,506.5,409.6,506.4,409.6,506.3z M430.6,534.3c-10.7-5.8-18.1-13.4-20.4-21.6h14.9c0.9,8.3,4,15.9,8.7,22.5
				c0.3,0.4,0.6,0.8,0.9,1.2C433.3,535.7,431.9,535.1,430.6,534.3z M477.3,545.6c-0.4,0-0.9,0-1.4,0h0c-0.2,0-0.5,0-0.7,0
				c-0.1,0-0.2,0-0.3,0h0c-0.2,0-0.3,0-0.4-0.1c-2-0.3-4-1.1-5.9-2.3c-3.6-2.3-6.9-6.1-9.4-11c0,0,0,0,0,0
				c-5.1-14.9-4.3-18.5-4.6-19.5h41.8v0.3c0,0.5,0,1,0,1.6c0,0.4,0,0.8-0.1,1.2c0,0.1,0,0.2,0,0.3c0,0,0,0,0,0c0,0,0,0,0,0
				c0,0.3,0,0.6-0.1,0.9c-0.1,0.9-0.2,1.7-0.3,2.5c0,0.3-0.1,0.6-0.1,0.9c-0.1,0.5-0.1,0.9-0.2,1.4c0,0.1,0,0.2,0,0.2c0,0,0,0,0,0.1
				c0,0.3-0.1,0.5-0.1,0.8c0,0.1,0,0.1,0,0.2c0,0.1,0,0.2-0.1,0.3c0,0,0,0,0,0.1c-0.1,0.3-0.1,0.6-0.2,1c0,0,0,0,0,0c0,0,0,0,0,0
				l0,0v0c0,0,0,0.1,0,0.1c-0.2,0.9-0.4,1.7-0.7,2.5c0,0.1-0.1,0.2-0.1,0.3c0,0,0,0,0,0C491.2,538.1,484.8,545.2,477.3,545.6z
				 M493.7,543.2c0.8-1.6,1.4-3.2,2.1-5c0,0,0,0,0,0c0,0,0-0.1,0-0.1c0.1-0.3,0.2-0.6,0.3-1c0.1-0.3,0.2-0.6,0.3-0.9
				c0,0,0-0.1,0-0.1c0.1-0.3,0.1-0.5,0.2-0.8c0.1-0.4,0.2-0.8,0.3-1.2c0.1-0.5,0.3-1,0.4-1.6c0-0.2,0.1-0.4,0.1-0.6c0,0,0-0.1,0-0.1
				c0.2-0.7,0.3-1.4,0.5-2.1c0.2-0.7,0.3-1.5,0.4-2.3s0.3-1.6,0.4-2.3s0.2-1.6,0.3-2.4c0-0.3,0.1-0.6,0.1-0.9c0-0.1,0-0.2,0-0.4
				c0-0.4,0.1-0.8,0.1-1.2l0-0.1v-0.1c0-0.1,0-0.2,0-0.3c0-0.2,0-0.5,0-0.7c0-0.1,0-0.1,0-0.2c0-0.2,0-0.3,0-0.5c0-0.1,0-0.2,0-0.4
				c0-0.2,0-0.4,0-0.5c0-0.6,0.1-1.2,0.1-1.8c0-0.7,0-1.4,0.1-2.1c0-0.3,0-0.5,0-0.8h18.8c0,0.1,0,0.2,0,0.3
				c-0.1,3.7-0.9,7.2-2.2,10.5c0,0.1-0.1,0.2-0.2,0.3v0c-0.2,0.4-0.4,0.9-0.6,1.3c-0.8,1.6-1.7,3.2-2.8,4.7
				c-0.2,0.3-0.4,0.6-0.7,0.9c-0.3,0.3-0.5,0.7-0.8,1c-0.1,0.1-0.2,0.2-0.3,0.3c-0.3,0.4-0.7,0.8-1,1.1c-0.1,0.1-0.2,0.2-0.3,0.3
				c-0.3,0.3-0.5,0.5-0.8,0.8h0c-1.1,1.1-2.4,2.1-3.7,3c-0.6,0.4-1.2,0.9-1.9,1.3c-0.4,0.3-0.9,0.6-1.4,0.8c-1.7,1-3.6,1.9-5.5,2.7
				C495.4,542.6,494.6,542.9,493.7,543.2z M540.4,513c-0.3,8.3-5.8,15.6-14.6,21.3c-1.4,0.9-2.9,1.7-4.4,2.5
				c-0.8,0.4-1.6,0.8-2.4,1.2c0,0,0,0,0,0c0,0,0,0,0,0c-0.8,0.4-1.6,0.7-2.4,1c0.4-0.5,0.8-1.1,1.2-1.7c0.3-0.4,0.6-0.9,0.8-1.4
				c0,0,0,0,0,0c0,0,0,0,0,0c0,0,0,0,0,0c0.5-0.9,1-1.8,1.5-2.7c0.8-1.7,1.6-3.4,2.2-5.2c0.5-1.5,1-3,1.4-4.6
				c0.9-3.5,1.4-7.2,1.5-10.8h15.3C540.4,512.8,540.4,512.9,540.4,513z"/>
		</g>
		<g>
			<path class="st2" d="M389.8,289.4L389.8,289.4l-29.4,29.4c0,0,0,0-0.1,0c0,0,0,0,0,0c-1.9-1.4-4-2.6-6.2-3.6
				c-0.3-0.2-0.7-0.3-1-0.5c0,0-0.1,0-0.1-0.1c0,0-0.1,0-0.1,0c-0.1,0-0.2-0.1-0.2-0.1c-0.1,0-0.1,0-0.2-0.1c-2.5-1.1-5.2-2-8-2.8
				l58-58l11.5,11.5L389.8,289.4z"/>
			<path class="st2" d="M569.6,432.7L532,470.3c-4.6-2.9-9.8-5.5-15.4-7.7l35.8-35.8L405.9,280.3l11.6-11.6l152.1,152.1
				C572.9,424.1,572.9,429.4,569.6,432.7z"/>
			<path class="st2" d="M398.9,573.2l-11.6,11.6L235.3,432.7c-3.3-3.3-3.3-8.6,0-11.8l53.6-53.6c0,0,0,0,0,0
				c2.9,1.1,5.8,2.2,8.7,3.4c0.1,0,0.2,0.1,0.3,0.1c0.2,0.1,0.4,0.2,0.6,0.2c0,0,0.1,0,0.1,0.1c2.1,0.8,4.2,1.8,6.7,2.9l-52.8,52.8
				L398.9,573.2z"/>
			<path class="st2" d="M431.2,571.1l-28.8,28.8l-11.6-11.6l35-34.9c1.6,0.8,3.2,1.5,4.9,2.2c0,0,0,0,0,0
				C431,560.6,431.2,565.8,431.2,571.1z"/>
		</g>
	</g>
</g>
</svg>
