<?xml version="1.0" encoding="UTF-8" standalone="no"?>
<svg xmlns="http://www.w3.org/2000/svg" version="1.1" id="Layer_1" x="0px" y="0px" viewBox="0 0 400 400" height="100%">
  <defs id="defs43"/>
  <style type="text/css" xml:space="preserve" id="style2">
  	.st0{fill:#3B4063;}
  	.st1{fill:#7D8CA3;}
  	.st2{fill:#CA4D5E;}
  </style>
  <g id="g38" transform="translate(-209.1,-196.69995)">
    <!--<rect id="rect3722" width="380" height="380" x="209.10004" y="235.89996" style="fill:#ffffff;stroke-width:28.5599308" inkscape:label="rect3722"/>-->
    <g id="g36">
      <g id="g24">
        <g id="g34">
          <path class="st2" d="m 389.8,289.4 v 0 l -29.4,29.4 c 0,0 0,0 -0.1,0 0,0 0,0 0,0 -1.9,-1.4 -4,-2.6 -6.2,-3.6 -0.3,-0.2 -0.7,-0.3 -1,-0.5 0,0 -0.1,0 -0.1,-0.1 0,0 -0.1,0 -0.1,0 -0.1,0 -0.2,-0.1 -0.2,-0.1 -0.1,0 -0.1,0 -0.2,-0.1 -2.5,-1.1 -5.2,-2 -8,-2.8 l 58,-58 11.5,11.5 z" id="path26" style="fill:#ca4d5e"/>
          <path class="st2" d="M 569.6,432.7 532,470.3 c -4.6,-2.9 -9.8,-5.5 -15.4,-7.7 l 35.8,-35.8 -146.5,-146.5 11.6,-11.6 152.1,152.1 c 3.3,3.3 3.3,8.6 0,11.9 z" id="path28" style="fill:#ca4d5e"/>
          <path class="st2" d="m 398.9,573.2 -11.6,11.6 -152,-152.1 c -3.3,-3.3 -3.3,-8.6 0,-11.8 l 53.6,-53.6 c 0,0 0,0 0,0 2.9,1.1 5.8,2.2 8.7,3.4 0.1,0 0.2,0.1 0.3,0.1 0.2,0.1 0.4,0.2 0.6,0.2 0,0 0.1,0 0.1,0.1 2.1,0.8 4.2,1.8 6.7,2.9 l -52.8,52.8 z" id="path30" style="fill:#ca4d5e"/>
          <path class="st2" d="m 431.2,571.1 -28.8,28.8 -11.6,-11.6 35,-34.9 c 1.6,0.8 3.2,1.5 4.9,2.2 0,0 0,0 0,0 0.3,5 0.5,10.2 0.5,15.5 z" id="path32" style="fill:#ca4d5e"/>
        </g>
        <g id="g10">
          <path class="st1" d="m 360.5,341.9 -2.3,0.1 c -0.1,0.3 -0.2,0.5 -0.2,0.8 v 0 c -0.3,0.8 -0.7,1.6 -1.1,2.4 -0.1,0.2 -0.2,0.4 -0.3,0.6 0,0.1 -0.1,0.1 -0.1,0.2 -1.3,1.8 -3,3.6 -5.2,5.2 -0.3,0.8 -0.6,1.7 -1,2.5 0,0.1 0,0.1 -0.1,0.2 -0.2,0.3 -0.3,0.7 -0.5,1 v 0 c -0.1,0.1 -0.1,0.2 -0.2,0.3 0,0.1 -0.1,0.1 -0.1,0.2 -0.1,0.2 -0.3,0.5 -0.4,0.7 v 0 c 0.7,-0.3 1.3,-0.6 1.9,-1 0.3,-0.2 0.6,-0.3 0.8,-0.5 0.2,-0.1 0.4,-0.2 0.6,-0.4 1.9,-1.2 3.6,-2.5 4.9,-4 2.3,-2.5 3.5,-5.3 3.5,-8.3 -0.2,0.1 -0.2,0 -0.2,0 z m -4.7,-9.3 c 1.3,1.6 2.2,3.3 2.5,5.2 0,0.2 0.1,0.5 0.1,0.7 v 0.1 l -1.8,0.1 -4.4,0.2 c 0,0 0,0.1 0,0.1 l 7.7,-0.3 c -0.6,-2.2 -2.1,-4.2 -4.1,-6.1 z m -6.7,9.8 -1.5,0.1 c 0,0.2 -0.1,0.4 -0.1,0.6 v 0 c -0.1,0.4 -0.2,0.9 -0.3,1.3 -0.2,0.6 -0.4,1.2 -0.6,1.8 -1.6,3.8 -4.6,7.2 -8.5,9.6 -0.3,1.1 -0.7,2.1 -1.1,3 1.2,-0.5 2.3,-1 3.3,-1.6 0.4,-0.2 0.7,-0.4 1,-0.6 0.5,-0.3 0.9,-0.6 1.3,-1 0,0 0,0 0,0 0,0 0.1,0 0.1,-0.1 0,0 0,0 0,0 0,0 0,0 0,0 v 0 c 0,0 0.1,0 0.1,-0.1 0.1,-0.1 0.1,-0.1 0.2,-0.2 0,0 0,0 0,0 1.2,-1 2.3,-2.1 3.2,-3.4 1.1,-1.6 2,-3.4 2.4,-5.3 0.3,-1.3 0.5,-2.6 0.5,-4 0,0 0,-0.1 0,-0.1 z m -3.6,-10 c 0.1,0.1 0.2,0.3 0.3,0.4 0.3,0.4 0.5,0.8 0.7,1.3 0.1,0.4 0.3,0.7 0.4,1 0.2,0.6 0.4,1.3 0.6,1.9 0.2,0.6 0.3,1.3 0.3,2 v 0.1 l -8,0.4 5.1,-0.2 1.9,-0.1 2,-0.1 c -0.6,-2.3 -1.8,-4.6 -3.3,-6.7 z m -7.8,10.5 H 337 c 0,1.1 -0.2,2.3 -0.3,3.3 0,0.1 0,0.2 -0.1,0.3 -0.3,1.4 -0.6,2.8 -1.1,4.1 -0.2,0.7 -0.5,1.4 -0.8,2 -1.7,3.5 -4.1,6 -7,6.6 -0.1,0 -0.2,0 -0.2,0 -0.4,0 -0.8,0.1 -1.1,0.1 -0.2,0 -0.5,0 -0.7,0 v 0 c -0.1,0 -0.1,0 -0.2,0 -1.4,-0.2 -2.8,-0.9 -4.1,-2.1 1.7,1.8 3.7,2.9 5.7,3.1 0.1,0 0.2,0 0.3,0 0.4,0 0.8,0 1.2,0 0.3,0 0.5,-0.1 0.7,-0.1 v 0 c 0,0 0,0 0,0 0,0 0.1,0 0.2,-0.1 1.5,-0.4 2.9,-1.3 4.1,-2.7 0.8,-0.9 1.5,-2 2.1,-3.3 0.2,-0.3 0.3,-0.7 0.4,-1 0,-0.1 0,-0.1 0.1,-0.2 0.1,-0.3 0.3,-0.7 0.4,-1 0.4,-1.4 0.7,-2.9 1,-4.5 0.2,-1.4 0.2,-2.9 0.2,-4.5 z m -3,-12.3 c 0.5,1 0.9,2.1 1.2,3.3 0.3,1 0.6,2.1 0.7,3.3 0.2,0.8 0.3,1.7 0.3,2.5 h 0.5 c -0.4,-3.3 -1.4,-6.4 -2.7,-9.1 z m 0.3,-5.7 c 0,0.1 0,0.1 0,0 0.3,0.2 0.6,0.2 0.8,0.3 -0.3,-0.1 -0.6,-0.2 -0.8,-0.3 z m -9.1,-1.7 h -0.3 -1.2 c -2.7,0.3 -5.1,2.3 -6.7,5.4 -0.9,1.6 -1.5,3.6 -1.9,5.8 -0.2,1.1 -0.4,2.3 -0.4,3.6 -0.1,0.9 -0.1,1.8 0,2.7 h 0.7 c 0.2,-4.2 1.3,-8.1 2.9,-11 1.6,-2.9 3.8,-4.8 6.3,-5.4 h 0.2 l 1.1,-0.1 c 1.9,0 3.7,0.9 5.2,2.5 -1.7,-2 -3.7,-3.2 -5.9,-3.5 z m -7.9,35.4 c -0.3,-0.1 -0.7,-0.2 -1,-0.3 0.4,0.2 0.7,0.3 1,0.3 0.1,0.1 0,0.1 0,0 z m -1.3,-10.4 c -0.3,-1.3 -0.5,-2.7 -0.6,-4.2 v -0.1 h -0.6 c 0.2,1.3 0.4,2.5 0.7,3.6 0,0.1 0.1,0.2 0.1,0.3 0.4,1.5 0.9,2.9 1.5,4.2 0,0.1 0,0.1 0.1,0.2 -0.4,-1.2 -0.8,-2.5 -1.2,-4 z m -9.9,-16.3 c -0.6,0.8 -1.1,1.6 -1.5,2.5 -0.2,0.4 -0.4,0.9 -0.6,1.4 -0.1,0.4 -0.2,0.8 -0.3,1.1 -0.2,0.6 -0.3,1.1 -0.3,1.7 0,0.1 0,0.3 -0.1,0.4 -0.1,0.7 -0.1,1.4 -0.1,2.1 v 0.2 l 1.5,-0.1 c 0.4,-2.5 1.3,-4.9 2.8,-7 1.2,-1.8 2.7,-3.4 4.5,-4.8 0.7,-0.5 1.4,-1 2.2,-1.5 0.1,-0.2 0.1,-0.4 0.2,-0.5 0.1,-0.2 0.1,-0.4 0.2,-0.6 0.2,-0.7 0.5,-1.3 0.7,-1.8 -3.9,1.4 -7.1,3.8 -9.2,6.9 z m 7,12.1 -9.6,0.4 c 0.1,0.3 0.2,0.6 0.3,0.9 v 0 c 0.1,0.5 0.3,0.9 0.5,1.3 0.2,0.6 0.5,1.2 0.8,1.8 0.5,1 1.1,1.9 1.8,2.7 -0.6,-0.9 -1.1,-1.9 -1.4,-2.9 -0.4,-1.2 -0.7,-2.4 -0.8,-3.7 0,0 0,-0.1 0,-0.1 z m -13.9,-13.9 c -0.8,0.6 -1.6,1.1 -2.3,1.8 -0.2,0.2 -0.4,0.3 -0.6,0.5 -0.2,0.2 -0.4,0.4 -0.6,0.7 -2.2,2.3 -3.6,5 -3.8,7.8 0,0.3 0,0.5 0,0.8 v 0.2 l 1.9,-0.1 h 0.5 c 0.9,-3.3 3.3,-6.5 6.9,-9.2 0.2,-0.6 0.4,-1.2 0.7,-1.7 0.5,-1.1 1.1,-2.2 1.7,-3.2 -1.6,0.6 -3.1,1.5 -4.4,2.4 z m 0.8,14.6 c 0,0 0,0 0,0 0,-0.1 0,-0.1 0,0 0,-0.1 0,-0.1 0,-0.1 h -0.2 -0.6 -0.3 l -1,0.1 h -0.3 l -1.8,0.1 v 0 0 c 0,0 0,0 0,0.1 -0.1,0 -0.2,0 -0.3,0 v 0 l -3.1,0.2 c 0,0.1 0.1,0.2 0.1,0.3 0.1,0.3 0.2,0.6 0.3,0.9 v 0 c 0.3,0.8 0.8,1.5 1.3,2.2 0,0.1 0.1,0.1 0.1,0.2 0.1,0.2 0.3,0.4 0.4,0.6 0.1,0.1 0.1,0.1 0.2,0.2 0.6,0.7 1.2,1.3 1.9,1.9 -0.9,-1.1 -1.6,-2.2 -2.1,-3.4 -0.3,-0.9 -0.5,-1.8 -0.6,-2.7 0,0 0,-0.1 0,-0.1 l 3.5,-0.2 z" id="path4" style="fill:#7d8ca3"/>
          <path class="st1" d="m 534.3,512.7 c -1.7,5.6 -5.9,10.9 -12,15.4 -0.6,1.8 -1.4,3.5 -2.2,5.2 -0.5,0.9 -1,1.8 -1.5,2.7 0,0 0,0 0,0 v 0 c -0.3,0.5 -0.6,0.9 -0.8,1.4 -0.4,0.6 -0.8,1.1 -1.2,1.7 0.8,-0.3 1.6,-0.7 2.4,-1 v 0 c 0.8,-0.4 1.6,-0.8 2.4,-1.2 1.6,-0.8 3,-1.7 4.4,-2.5 8.9,-5.6 14.3,-13 14.6,-21.3 0,-0.1 0,-0.2 0,-0.3 h -6.1 z m 5.4,-6.1 c -1.7,-5.9 -5.9,-11.5 -12.1,-16.3 -3.5,-2.7 -7.6,-5.2 -12.3,-7.4 0.3,0.4 0.6,0.8 0.9,1.2 1.3,0.6 2.5,1.3 3.6,1.9 0.8,0.5 1.5,0.9 2.3,1.4 1.8,1.1 3.3,2.4 4.8,3.7 0.7,0.6 1.3,1.3 2,1.9 3.7,4 5.9,8.6 6.1,13.6 v 0.1 h 4.7 z m -21.2,6.1 h -4.1 c -0.4,2.3 -1.2,4.4 -2.1,6.5 -1.4,3.2 -3.5,6.2 -5.9,8.9 0,0 0,0 0,0 -0.9,1 -1.8,1.9 -2.8,2.8 -2.2,1.9 -4.5,3.7 -7.1,5.2 -0.1,0.3 -0.2,0.6 -0.3,0.9 -0.1,0.3 -0.2,0.6 -0.3,1 0,0 0,0.1 0,0.1 0,0 0,0 0,0 -0.6,1.8 -1.3,3.4 -2.1,5 0.9,-0.3 1.7,-0.6 2.5,-0.9 1.9,-0.8 3.8,-1.7 5.5,-2.7 0.5,-0.3 0.9,-0.5 1.4,-0.8 0.6,-0.4 1.3,-0.9 1.9,-1.3 1.3,-0.9 2.5,-1.9 3.7,-3 0.3,-0.3 0.5,-0.5 0.8,-0.8 0.1,-0.1 0.2,-0.2 0.3,-0.3 0.3,-0.4 0.7,-0.7 1,-1.1 0.1,-0.1 0.2,-0.2 0.3,-0.3 0.3,-0.3 0.6,-0.7 0.8,-1 0.2,-0.3 0.4,-0.6 0.7,-0.9 1.1,-1.5 2,-3 2.8,-4.7 0.2,-0.4 0.4,-0.9 0.6,-1.3 v 0 c 0.1,-0.1 0.1,-0.2 0.2,-0.3 1.4,-3.3 2.1,-6.8 2.2,-10.5 0,-0.3 0,-0.4 0,-0.5 z m -0.5,-6.1 c -0.3,-1.6 -0.7,-3.2 -1.3,-4.8 v 0 c 0,0 0,0 0,0 -2.4,-6.7 -7,-12.7 -13,-17.4 0,0 0,0 0,0 v 0 0 c -0.8,-0.6 -1.6,-1.2 -2.4,-1.8 0,0 -0.1,0 -0.1,-0.1 0,0 -0.1,0 -0.1,-0.1 -0.8,-0.5 -1.5,-1 -2.3,-1.5 -0.1,0 -0.1,-0.1 -0.2,-0.1 -0.1,0 -0.1,-0.1 -0.2,-0.1 -0.8,-0.5 -1.6,-0.9 -2.4,-1.3 -0.1,-0.1 -0.3,-0.1 -0.4,-0.2 -0.9,-0.5 -1.8,-0.9 -2.8,-1.3 0.2,0.5 0.5,1 0.7,1.5 0,0 0,0 0,0 1.3,0.5 2.6,1 3.8,1.6 2.1,1.1 4.1,2.3 5.9,3.7 3.4,2.6 6.2,5.8 8.2,9.4 1.7,3 2.8,6.3 3.2,9.9 0,0.3 0.1,0.6 0.1,0.8 v 0 c 0.1,0.6 0.1,1.2 0.1,1.7 v 0.1 z m -23.5,6.1 c -0.6,6.6 -2.4,12.7 -5,17.7 -0.1,0.2 -0.2,0.3 -0.2,0.4 -2.3,4.2 -5.2,7.6 -8.4,9.6 -0.5,0.3 -1,0.6 -1.6,0.9 -1.2,0.6 -2.5,1 -3.8,1.2 -0.1,0 -0.3,0.1 -0.4,0.1 v 0 c -0.3,0 -0.6,0 -0.9,0 v 0 c -0.4,0 -0.8,0 -1.3,0 -5.8,-0.4 -12,-7.4 -15.2,-14.7 0,0 1.1,3.7 1.6,4.3 0,0 0,0 0,0 2.5,4.8 5.8,8.7 9.4,11 1.8,1.2 3.8,2 5.8,2.3 0.2,0 0.3,0 0.5,0.1 v 0 c 0.1,0 0.2,0 0.3,0 0.3,0 0.5,0 0.7,0 v 0 c 0.5,0 0.9,0 1.4,0 7.5,-0.5 13.8,-7.5 17,-18 0,0 0,0 0,0 0,-0.1 0.1,-0.2 0.1,-0.3 0.2,-0.8 0.5,-1.6 0.7,-2.5 0,0 0,-0.1 0,-0.1 v 0 0 c 0,0 0,0 0,0 0,0 0,0 0,0 0.1,-0.3 0.1,-0.6 0.2,-1 0,0 0,0 0,-0.1 0,-0.1 0,-0.2 0.1,-0.3 0,-0.1 0,-0.1 0,-0.2 0,-0.3 0.1,-0.5 0.1,-0.8 0,0 0,0 0,-0.1 0,-0.1 0,-0.2 0,-0.3 0.1,-0.4 0.2,-0.9 0.2,-1.4 0.1,-0.3 0.1,-0.6 0.1,-0.9 0.1,-0.8 0.2,-1.7 0.3,-2.5 0,-0.3 0,-0.6 0.1,-0.9 v 0 c 0,0 0,0 0,0 0,-0.1 0,-0.2 0,-0.3 0,-0.4 0,-0.8 0.1,-1.2 0,-0.5 0,-1 0,-1.5 v -0.3 h -1.9 z m 1.6,-8 c -1.7,-14.1 -8.4,-25.9 -16.8,-29.8 -0.1,0 -0.2,-0.1 -0.3,-0.1 -1.1,-0.5 -2.3,-0.9 -3.5,-1.1 -0.2,0 -0.3,0 -0.5,0 -0.8,0 -1.6,0 -2.4,-0.1 -5.3,0.3 -10,4 -13.4,9.9 -1.4,2.3 -2.5,5 -3.4,7.9 -1.4,4.5 -2.2,9.6 -2.3,15.1 h 1.9 c 0,-0.5 0.1,-1 0.2,-1.5 1.6,-12.9 7.7,-23.8 15.4,-27.3 0.1,0 0.2,-0.1 0.3,-0.1 1,-0.4 2.1,-0.8 3.2,-0.9 0.1,0 0.3,0 0.4,0 v 0 c 0.7,0 1.5,0 2.2,-0.1 4.9,0.3 9.2,3.7 12.3,9 1.2,2.1 2.3,4.6 3.1,7.3 1.3,4.1 2,8.7 2.1,13.6 h 1.7 c -0.1,-0.5 -0.1,-1.1 -0.2,-1.8 z m -38.9,36.6 c -0.2,-0.5 -0.5,-0.9 -0.7,-1.4 -0.4,-0.1 -0.7,-0.3 -1,-0.4 -2.3,-0.9 -4.4,-2 -6.3,-3.3 -1.8,-1.2 -3.6,-2.5 -5.1,-4 -2.9,-2.8 -5.2,-6 -6.8,-9.6 v 0 c -0.1,-0.1 -0.1,-0.2 -0.2,-0.3 -1.2,-3 -2,-6.2 -2,-9.6 v 0 H 432 c 0.5,2.5 1.3,5 2.4,7.4 0.6,1.4 1.4,2.8 2.2,4.1 0.2,0.3 0.4,0.6 0.6,0.9 0,0 0,0 0.1,0.1 0.5,0.8 1.1,1.5 1.6,2.3 0.3,0.3 0.6,0.7 0.8,1 0.1,0.1 0.2,0.2 0.3,0.4 0.3,0.3 0.5,0.6 0.8,0.9 0,0 0,0 0,0 0,0 0,0 0,0 0.4,0.4 0.8,0.8 1.2,1.3 0.6,0.6 1.2,1.2 1.8,1.7 1.3,1.2 2.8,2.4 4.3,3.4 2.8,2.1 5.9,3.8 9.1,5.1 0.1,0.1 0,0.1 0,0 z m -1.9,-28.6 v 0 h -0.7 c 0.3,1 0.1,5.3 0.4,6.3 0,0.1 0.4,-5.8 0.3,-6.3 z m -4.6,-34.2 c -2.3,1.2 -4.5,2.5 -6.5,4 v 0 c -0.4,0.3 -0.8,0.6 -1.1,0.9 -0.2,0.2 -0.4,0.3 -0.6,0.5 v 0 c -0.2,0.1 -0.4,0.3 -0.5,0.5 -0.6,0.5 -1.1,1 -1.6,1.5 -0.4,0.4 -0.7,0.8 -1.1,1.2 -0.2,0.2 -0.4,0.4 -0.5,0.6 -0.1,0.2 -0.3,0.3 -0.4,0.5 -0.1,0.2 -0.3,0.3 -0.4,0.5 -0.5,0.6 -0.9,1.2 -1.3,1.8 -0.1,0.1 -0.2,0.2 -0.2,0.3 -0.4,0.6 -0.8,1.2 -1.1,1.8 0,0 0,0.1 0,0.1 -0.9,1.6 -1.6,3.3 -2.2,5 -0.7,2.1 -1.2,4.4 -1.4,6.7 v 0 c 0,0.3 0,0.5 0,0.8 0,0.4 -0.1,0.8 -0.1,1.1 0,0.1 0,0.2 0,0.3 h 4.1 c 0.3,-1.4 0.6,-2.8 1.1,-4.2 v 0 c 2.2,-6.1 6.4,-11.7 12,-16 0,0 0,0 0,0 1.5,-1.2 3.1,-2.3 4.8,-3.3 0.8,-2.5 1.7,-4.8 2.7,-7 -2.1,0.7 -3.9,1.5 -5.7,2.4 z m -16.9,56.7 c -0.5,-0.2 -0.9,-0.4 -1.3,-0.6 -1.4,-0.7 -2.8,-1.5 -4.1,-2.3 -8.1,-5.2 -13.1,-11.9 -13.4,-19.5 v 0 h -4.8 c 2.3,8.3 9.7,15.8 20.4,21.6 1.3,0.7 2.7,1.4 4.1,2.1 -0.3,-0.5 -0.6,-0.9 -0.9,-1.3 z m -2.5,-53.9 c -0.7,0.3 -1.3,0.6 -2,1 -0.2,0.1 -0.4,0.2 -0.7,0.3 -0.9,0.4 -1.7,0.9 -2.5,1.3 -0.9,0.5 -1.7,1 -2.5,1.5 -2.8,1.8 -5.3,3.9 -7.3,6.1 -4.1,4.4 -6.5,9.4 -6.7,14.8 0,0.1 0,0.2 0,0.3 h 6.1 c 1.6,-5.3 5.5,-10.4 11.1,-14.7 0.3,-0.2 0.6,-0.5 1,-0.7 0,0 0,0 0,0 0.1,-0.2 0.1,-0.4 0.2,-0.6 0.2,-0.5 0.4,-1 0.6,-1.5 0.1,-0.2 0.1,-0.4 0.2,-0.5 0.1,-0.1 0.2,-0.3 0.2,-0.5 0.2,-0.4 0.4,-0.9 0.6,-1.3 0.1,-0.2 0.2,-0.4 0.3,-0.6 0.1,-0.2 0.2,-0.4 0.3,-0.6 0.2,-0.4 0.4,-0.7 0.6,-1.1 0.1,-0.2 0.2,-0.4 0.3,-0.7 0.2,-0.3 0.3,-0.6 0.5,-0.8 0,-0.1 0.1,-0.2 0.1,-0.2 0,0 0,0 0,-0.1 0.2,-0.3 0.3,-0.5 0.5,-0.7 0.1,-0.2 0.2,-0.3 0.3,-0.5 0.3,-0.4 0.6,-0.8 0.8,-1.2 -0.6,0.3 -1.3,0.6 -2,1 z" id="path9" style="fill:#7d8ca3"/>
          <path class="st1" d="m 386.8,375.2 c -0.4,0.2 -0.8,0.3 -1.2,0.5 0,0 0,0 0,0 -1.2,0.6 -2.3,1.2 -3.4,1.8 -0.5,0.3 -1,0.6 -1.5,1 -2.7,1.8 -5,3.8 -6.7,6.1 -1.6,2.1 -2.6,4.3 -3.1,6.6 0,0.1 0,0.3 -0.1,0.4 0,0.2 -0.1,0.4 -0.1,0.7 0,0.1 0,0.2 0,0.4 0,0.3 -0.1,0.6 -0.1,0.9 v 0.2 h 5.1 c 1.1,-3.7 3.8,-7.2 7.7,-10.3 0.3,-0.9 0.6,-1.9 1,-2.8 0.5,-1.3 1.2,-2.5 1.9,-3.7 0.1,-0.2 0.2,-0.4 0.4,-0.6 0.1,-0.1 0.2,-0.3 0.3,-0.4 0.1,-0.1 0.1,-0.2 0.2,-0.2 0,-0.1 0.1,-0.1 0.1,-0.2 0,-0.1 0.1,-0.1 0.2,-0.2 0.1,-0.1 0.1,-0.2 0.2,-0.3 0.1,-0.1 0.2,-0.2 0.2,-0.3 -0.4,0.1 -0.7,0.3 -1.1,0.4 z m 1.1,38.8 c -0.1,-0.1 -0.1,-0.1 0,0 -0.1,-0.2 -0.2,-0.3 -0.3,-0.4 h -0.1 c -1.3,-0.7 -2.6,-1.4 -3.7,-2.2 -1.5,-1 -2.8,-2.1 -3.9,-3.2 -2.8,-2.9 -4.5,-6.3 -4.6,-9.9 h -4.1 v 0 c 0.1,0.3 0.2,0.6 0.3,0.9 0.1,0.2 0.1,0.4 0.2,0.6 0,0.1 0.1,0.2 0.1,0.3 0.2,0.6 0.5,1.1 0.8,1.7 0.1,0.2 0.2,0.4 0.3,0.6 0.1,0.2 0.2,0.4 0.3,0.6 0.1,0.1 0.2,0.3 0.3,0.4 0,0 0,0 0,0.1 0.1,0.1 0.2,0.3 0.3,0.4 0.1,0.1 0.2,0.3 0.3,0.4 0.1,0.1 0.1,0.2 0.2,0.3 0.1,0.1 0.1,0.2 0.2,0.3 0,0 0.1,0.1 0.1,0.1 0.1,0.1 0.1,0.1 0.2,0.2 0.1,0.2 0.3,0.3 0.4,0.5 0.1,0.2 0.3,0.4 0.5,0.5 0.1,0.1 0.2,0.3 0.4,0.4 0,0 0,0 0,0 0.4,0.4 0.8,0.8 1.2,1.2 0.2,0.2 0.4,0.3 0.6,0.5 0.2,0.2 0.3,0.3 0.5,0.5 0.4,0.3 0.7,0.6 1.1,0.9 0.1,0.1 0.2,0.2 0.3,0.3 0.3,0.2 0.5,0.4 0.8,0.6 0.1,0.1 0.3,0.2 0.4,0.3 0.3,0.2 0.6,0.5 0.9,0.7 0.1,0.1 0.2,0.1 0.2,0.2 0.4,0.3 0.8,0.6 1.3,0.8 v 0 c 0.6,0.4 1.3,0.8 1.9,1.2 0.4,0.2 0.8,0.4 1.2,0.7 0.4,0.2 0.9,0.4 1.3,0.6 0.3,0.2 0.7,0.3 1,0.5 -0.3,-0.8 -0.6,-1.2 -0.9,-1.6 z M 403,374.9 c 0.1,-0.4 0.3,-0.7 0.4,-1.1 0.3,-0.7 0.6,-1.4 0.9,-2.1 -0.8,0.3 -1.6,0.5 -2.3,0.9 -0.6,0.3 -1.2,0.5 -1.8,0.8 -0.1,0 -0.1,0.1 -0.2,0.1 -0.4,0.2 -0.9,0.4 -1.3,0.7 -0.3,0.2 -0.7,0.4 -1,0.6 0,0 -0.1,0.1 -0.1,0.1 0,0 -0.1,0 -0.1,0.1 -0.1,0.1 -0.3,0.2 -0.4,0.3 -0.5,0.3 -0.9,0.6 -1.4,1 -2.2,1.7 -4.1,3.7 -5.6,5.9 -0.3,0.5 -0.6,0.9 -0.9,1.4 -1.7,3 -2.7,6.3 -2.8,9.9 0,0.1 0,0.2 0,0.2 h 3.4 c 1.3,-6.6 5.9,-12.5 12.4,-16.4 0.1,-0.2 0.1,-0.5 0.2,-0.7 0,-0.2 0.1,-0.4 0.2,-0.6 0.4,-0.3 0.7,-0.5 1.1,-0.8 -0.2,0 -0.4,-0.2 -0.7,-0.3 z m 1.3,42.4 c -0.1,0 -0.1,0 -0.2,-0.1 -1.7,-0.7 -3.3,-1.5 -4.7,-2.4 -1.7,-1.1 -3.2,-2.3 -4.5,-3.8 -0.1,-0.1 -0.2,-0.2 -0.3,-0.3 -0.2,-0.2 -0.4,-0.5 -0.6,-0.7 -2.7,-3.3 -4.3,-7.3 -4.5,-11.7 0,-0.1 0,-0.1 0,-0.2 h -2.8 c 1.2,6.6 5.4,12.7 11.5,16.9 0,0 0,0 0,0 0.7,0.5 1.4,1 2.2,1.4 0,0 0,0 0.1,0 1.4,0.9 2.9,1.6 4.5,2.3 -0.2,-0.3 -0.4,-0.9 -0.7,-1.4 z m 26.6,-34 c -2.7,-7.2 -7.3,-12.4 -12.6,-13.2 -0.1,0 -0.2,0 -0.3,-0.1 v 0 c -0.6,0 -1.2,0 -1.7,-0.1 -1.3,0.1 -2.5,0.4 -3.6,1 -2.2,1.1 -4.2,3.1 -5.8,5.7 -0.1,0.1 -0.2,0.3 -0.3,0.4 -0.3,0.5 -0.6,1.1 -0.9,1.7 -0.4,0.8 -0.7,1.6 -1,2.4 0,0.1 0,0.1 0,0.2 -1.2,3.2 -1.9,7 -2.1,11.1 0,0.4 0,0.8 0,1.3 h 1.6 c 0.3,-3.3 1.1,-6.4 2.1,-9.2 2.5,-6.5 6.6,-11.2 11.4,-11.9 0.1,0 0.2,0 0.3,0 v 0 c 0.5,0 1,0 1.5,0 1.1,0.1 2.2,0.4 3.3,0.9 2,1 3.8,2.8 5.2,5.2 0.1,0.1 0.2,0.2 0.2,0.4 0.3,0.5 0.6,1 0.8,1.5 0.3,0.7 0.6,1.4 0.9,2.1 0,0.1 0,0.1 0,0.1 1.1,2.9 1.8,6.3 1.9,10.1 0,0.3 0,0.6 0,0.9 h 1.4 c -0.3,-3.8 -1.1,-7.4 -2.3,-10.5 z m 0.9,14.8 c -1.1,11 -6.7,20.1 -13.5,21.2 -0.1,0 -0.2,0 -0.3,0 v 0 c -0.5,0 -1,0 -1.5,0 -3.4,-0.2 -6.4,-2.4 -8.6,-6 -1,-1.6 -1.8,-3.4 -2.4,-5.4 -0.7,-2 -1.1,-4.3 -1.3,-6.6 0,-0.1 0,-0.2 0,-0.2 v 0 c 0,-0.1 0,-0.1 0,-0.2 -0.1,-0.9 -0.1,-1.8 -0.1,-2.7 h -1.4 c 1.1,12.3 7.4,22.5 15,23.7 0.1,0 0.2,0 0.3,0 v 0 c 0.6,0 1.1,0 1.7,0 3.7,-0.2 7,-2.7 9.5,-6.7 1.1,-1.8 2,-3.8 2.7,-6 0.7,-2.2 1.2,-4.7 1.4,-7.4 0,-0.1 0,-0.2 0,-0.2 v 0 c 0,-0.1 0,-0.1 0,-0.2 0.1,-1 0.2,-2 0.2,-3 v -0.2 h -1.7 z M 430.7,373 c 0.3,0.5 0.5,1.1 0.7,1.6 0.3,0.1 0.5,0.2 0.7,0.3 0.5,0.2 1.1,0.5 1.6,0.8 0.4,0.2 0.9,0.5 1.3,0.7 0.3,0.2 0.6,0.4 0.9,0.6 0,0 0.1,0 0.1,0.1 0,0 0.1,0.1 0.1,0.1 0.1,0.1 0.3,0.2 0.4,0.3 0.4,0.3 0.8,0.6 1.2,0.9 2,1.5 3.7,3.3 5,5.3 0.3,0.4 0.6,0.8 0.8,1.3 1.5,2.7 2.4,5.7 2.5,8.9 h 2.8 c -1.5,-9 -8.5,-16.8 -18.1,-20.9 z m 15.2,25.1 c -1.2,5.9 -4.9,11.3 -10.3,15.1 -0.6,0.5 -1.3,0.9 -2,1.3 -0.4,1.4 -0.8,2.7 -1.3,3.9 -0.2,0.6 -0.5,1.1 -0.8,1.7 0.6,-0.2 1.2,-0.4 1.7,-0.6 1.9,-0.7 3.6,-1.6 5.2,-2.7 1.9,-1.2 3.6,-2.6 5,-4.2 0.1,-0.1 0.2,-0.2 0.3,-0.3 0.2,-0.3 0.5,-0.5 0.7,-0.8 3,-3.7 4.8,-8.1 5,-12.9 0,-0.1 0,-0.2 0,-0.2 0,-0.1 0,-0.1 0,-0.2 h -3.5 z m 1.1,-21.5 c 0.4,0.6 0.8,1.1 1.2,1.7 0.6,0.3 1.2,0.7 1.8,1 0.5,0.3 0.9,0.6 1.4,0.9 2.5,1.6 4.5,3.5 6,5.5 1.4,1.9 2.4,3.8 2.8,6 0.1,0.7 0.2,1.3 0.3,2.1 h 4.1 C 462.8,387 456.3,381 447,376.6 Z m 13,21.5 c -0.1,0.2 -0.1,0.4 -0.2,0.6 -1.2,3.5 -3.8,6.8 -7.5,9.7 -0.6,1.9 -1.4,3.8 -2.4,5.5 -0.4,0.7 -0.8,1.4 -1.2,2 -0.2,0.3 -0.4,0.6 -0.6,0.9 -0.1,0.1 -0.1,0.2 -0.2,0.3 0.5,-0.2 1,-0.4 1.4,-0.6 0.4,-0.2 0.9,-0.4 1.3,-0.6 0.3,-0.1 0.6,-0.3 0.9,-0.4 0,0 0,0 0,0 0.7,-0.4 1.4,-0.7 2.1,-1.1 0,0 0,0 0,0 0.7,-0.4 1.4,-0.8 2,-1.3 1.6,-1.1 3.1,-2.3 4.3,-3.6 3.2,-3.3 5,-7 5.2,-11 0,-0.1 0,-0.1 0,-0.2 H 460 Z" id="path8" style="fill:#7d8ca3"/>
        </g>
        <path class="st0" d="m 403.8,375.3 c -0.4,0.3 -0.8,0.5 -1.1,0.8 v 0 c 0.1,-0.3 0.2,-0.5 0.3,-0.8 0,-0.1 0.1,-0.2 0.1,-0.3 0.2,0 0.4,0.2 0.7,0.3 z" id="path12" style="fill:#3b4063"/>
        <path class="st0" d="m 419.5,397.9 h 12.2 c 0,0.1 0,0.1 0,0.2 h -11.9 c -0.1,0 -0.2,-0.1 -0.3,-0.2 z" id="path14" style="fill:#3b4063"/>
        <path class="st0" d="m 431.8,393.7 c 0,0.1 0,0.1 0,0.2 h -17.5 c -0.1,-0.1 -0.2,-0.1 -0.3,-0.2 z" id="path16" style="fill:#3b4063"/>
        <path class="st0" d="m 438.8,398.1 h -4.9 c 0,-0.1 0,-0.1 0,-0.2 h 4.6 c 0.2,0.1 0.3,0.2 0.3,0.2 z" id="path18" style="fill:#3b4063"/>
        <path class="st0" d="m 494.6,506.6 h -39.1 c 0,0.1 0,0.2 0,0.3 h 39.2 c -0.1,-0.1 -0.1,-0.2 -0.1,-0.3 z m -39.3,5.9 v 0.3 h 39.1 v 0 c 0,-0.1 0,-0.2 0,-0.2 H 455.3 Z M 403,374.9 c 0,0.1 -0.1,0.2 -0.1,0.3 -0.1,0.3 -0.2,0.5 -0.3,0.8 v 0 c 0.4,-0.3 0.7,-0.5 1.1,-0.8 -0.2,0 -0.4,-0.2 -0.7,-0.3 z m 35.6,23 H 434 c 0,0.1 0,0.1 0,0.2 h 4.9 c -0.1,0 -0.2,-0.1 -0.3,-0.2 z m -6.8,-4.2 c 0,0 0,0 0,0 H 404 c 0,0.1 0,0.1 0,0.2 h 27.8 c 0,0 0,-0.1 0,-0.2 z m -27.9,4.2 v 0.2 h 27.8 v 0 c 0,-0.1 0,-0.1 0,-0.2 z m -59.8,-67.2 c -2.1,-2.4 -5,-4.3 -8.4,-5.4 4,1.6 7.3,4.1 9.7,7.2 -0.3,-0.7 -0.8,-1.3 -1.3,-1.8 z m -4.9,9 c -0.6,-5.7 -2.1,-10.8 -4.2,-14.6 -0.1,0 -0.1,0 -0.2,-0.1 0.4,0.7 0.7,1.4 1.1,2.2 0.8,1.8 1.4,3.8 1.8,6 0.2,1 0.4,2.1 0.5,3.3 0.1,0.8 0.2,1.6 0.2,2.4 0,0.1 0,0.3 0,0.4 v 0.4 z m -14.1,3.7 -4.6,0.2 -4.4,0.2 v 0 l 12.1,-0.5 4.8,-0.2 4,-0.2 c 0,-0.1 0,-0.1 0,-0.2 z m 8,-3.5 h -0.9 l -16.1,0.8 c 0,0 0,0.1 0,0.2 l 4.2,-0.2 0.8,-0.1 10.1,-0.5 5.8,-0.3 v 0 z m 0.4,-11.2 c -0.5,-0.7 -1,-1.4 -1.5,-1.9 0.4,0.5 0.8,1 1.2,1.5 0.5,0.7 1,1.5 1.5,2.4 -0.4,-0.8 -0.8,-1.4 -1.2,-2 z M 319,354.1 c -0.4,-0.6 -0.7,-1.2 -1,-1.8 0.2,0.4 0.4,0.8 0.5,1.1 0.1,0.3 0.3,0.6 0.5,0.9 0.6,1.1 1.4,2 2.1,2.7 -0.7,-0.8 -1.4,-1.7 -2.1,-2.9 z m -2,1.9 c 0,-0.1 -0.1,-0.2 -0.1,-0.3 -0.2,-0.4 -0.3,-0.9 -0.5,-1.4 0,0 0,0 0,0 -0.1,-0.1 -0.1,-0.3 -0.1,-0.4 0,-0.1 -0.1,-0.2 -0.1,-0.3 -0.4,-1.4 -0.8,-2.9 -1,-4.4 -0.3,-1.6 -0.5,-3.2 -0.6,-4.8 V 344 h -0.7 c 0.1,1.1 0.3,2.1 0.4,3.1 0,0.1 0,0.2 0.1,0.3 0.2,1.3 0.5,2.6 0.8,3.8 0.1,0.3 0.2,0.6 0.3,0.9 0.7,2.4 1.6,4.6 2.7,6.5 0.1,0 0.1,0 0.2,0.1 -0.6,-0.9 -1,-1.8 -1.4,-2.7 z m -9.4,-4.8 c 0.4,0.6 0.9,1.3 1.4,1.8 1,1.1 2.1,2 3.3,2.9 0,0 0.1,0 0.1,0.1 0,0 0.1,0.1 0.1,0.1 0,0 0,0 0.1,0.1 0,0 0.1,0 0.1,0.1 0.4,0.3 0.9,0.6 1.3,0.8 v 0 c 0.3,0.2 0.7,0.3 1,0.5 0.6,0.3 1.3,0.6 2,0.8 -3.8,-1.7 -7.1,-4.2 -9.4,-7.2 z" id="path20" style="fill:#3b4063"/>
        <path class="st0" d="m 550.4,509.7 c -0.1,-1 -0.2,-2 -0.4,-3 -1.6,-9 -6.8,-17.3 -15,-24.2 0,0 0,0 0,0 -7.9,-6.7 -18.5,-12.1 -31,-15.6 -3.1,-0.9 -6.4,-1.7 -9.8,-2.3 0,0 0,0 0,0 v 0 c -0.2,-0.3 -0.3,-0.6 -0.5,-0.9 -2.1,-3.6 -3.9,-7.4 -6.2,-10.9 l -6.9,-10.4 c -4.9,-6.9 -10.2,-13.4 -15.8,-19.7 -0.4,-0.4 -0.7,-0.8 -1.1,-1.2 -0.9,-0.9 -1.7,-1.9 -2.6,-2.8 1.4,-1.1 2.7,-2.3 3.9,-3.5 4.5,-4.7 7,-10.4 7.2,-16.4 0,-0.2 0,-0.4 0,-0.6 0,-0.8 0,-2.2 0,-2.2 -0.1,-0.7 -0.1,-1.5 -0.3,-2.2 -2.9,-17.1 -24.4,-30.4 -52.8,-31.9 -0.4,0 -0.9,-0.1 -1.3,-0.1 v 0 c -0.4,0 -0.7,-0.1 -1.1,-0.1 -0.1,0 -0.3,0 -0.4,0 h -0.1 c -0.3,0 -0.5,0 -0.7,0 h -1.2 c -5.5,0 -10.8,0.5 -15.8,1.4 -2.2,0.4 -4.3,0.9 -6.3,1.5 -1.6,0.4 -3.1,0.9 -4.6,1.5 -0.5,0.2 -1,0.4 -1.6,0.6 0,0 -0.1,0 -0.1,0 v 0 c -7.7,-3.4 -15.6,-6.5 -23.5,-9.1 -1.3,-0.4 -2.6,-0.9 -3.8,-1.3 v 0 c 1.3,-1.1 2.4,-2.4 3.3,-3.6 2.4,-3.2 3.6,-6.8 3.6,-10.6 0,-0.1 0,-0.3 0,-0.4 0,-0.5 -0.1,-1.6 -0.1,-1.6 -0.1,-0.5 -0.2,-1 -0.3,-1.6 -0.8,-3.7 -2.9,-7.1 -5.9,-10.1 -1.1,-1.1 -2.4,-2.1 -3.7,-3.1 -1.8,-1.2 -3.7,-2.4 -5.9,-3.3 -0.1,-0.1 -0.3,-0.1 -0.4,-0.2 -6.4,-2.9 -14.3,-4.5 -23,-4.6 -0.3,0 -0.6,0 -1,0 0,0 0,0 0,0 -0.3,0 -0.5,0 -0.8,0 -0.1,0 -0.2,0 -0.3,0 H 324 c -0.2,0 -0.3,0 -0.5,0 -0.1,0 -0.2,0 -0.3,0 -0.2,0 -0.4,0 -0.5,0 -9.1,0.4 -17.6,2.7 -24,6.5 -2.3,1.3 -4.3,2.9 -5.9,4.5 -0.5,0.5 -1,1 -1.4,1.6 -0.1,0.1 -0.1,0.1 -0.1,0.2 -0.1,0.2 -0.3,0.3 -0.4,0.5 -1.9,2.5 -3.1,5.2 -3.5,8.1 -0.2,0.9 -0.2,1.7 -0.2,2.6 v 0.2 c 0,0.1 0,0.2 0,0.4 0,0 0,0 0,0 -1.1,-0.1 -2.2,-0.2 -3.2,-0.3 -5.4,-0.4 -10.8,-0.6 -16.2,-0.6 5.4,0.4 10.9,1 16.2,1.7 1.1,0.2 2.2,0.3 3.3,0.5 v 0 c 0,0 0,0 0,0 v 0.3 h -0.1 c 0,0.1 0,0.3 0.1,0.4 0.1,0.4 0.1,0.8 0.2,1.1 v 0 c 0.6,2.5 1.7,4.9 3.4,7.1 0,0.1 0.1,0.1 0.1,0.2 0.1,0.2 0.3,0.4 0.4,0.6 0.2,0.3 0.4,0.5 0.7,0.8 -0.2,-0.1 -0.4,-0.1 -0.6,-0.2 -2.5,-0.7 -5,-1.4 -7.5,-2.1 -8.9,-2.4 -17.9,-4.3 -27,-6 -2.3,-0.4 -4.5,-0.8 -6.8,-1.1 -13.6,-2.1 -27.4,-3.4 -41.1,-3.5 13.1,0.9 26,3 38.8,5.8 2.8,0.6 5.6,1.3 8.4,1.9 9,2.3 18,4.9 26.7,7.8 3.1,1.1 6.2,2.2 9.3,3.3 2.8,1 5.5,2.1 8.2,3.3 0.3,0.1 0.7,0.3 1,0.4 2.9,1.2 5.8,2.5 8.7,3.8 6.5,2.9 12.8,6.1 19,9.6 12.4,6.9 24.1,14.7 34.9,23.6 0,0 0,0 0,0 0,0 0,0 0,0 2.2,7.6 8.1,14.4 16.7,19.5 2.2,1.3 4.7,2.6 7.3,3.7 0,0 0,0 0,0 0,0 0,0 0,0 0.3,0.4 0.7,0.8 1,1.1 3.5,4.1 6.9,8.3 10,12.7 3.2,4.4 6.3,9 9.1,13.6 l 5.7,10 c 1.8,3.4 3.3,6.9 5,10.4 0.4,0.8 0.7,1.5 1.1,2.3 0.1,0.2 0.2,0.4 0.2,0.5 0,0 0,0 0,0 0,0 0,0 0,0 -0.5,0.3 -1,0.6 -1.4,0.9 -2.6,1.7 -5,3.5 -7.1,5.4 -7.6,7 -11.9,15.6 -12.3,25 0,0.3 0,0.6 0,0.8 0,1 0,2 0.1,3 h -0.1 c 0.1,1 0.2,2 0.4,3.1 2.6,14.9 15.4,27.8 34.3,35.8 1.3,0.5 2.6,1.1 4,1.6 v 0 c 0,0 0,0 0,0 0.1,1.8 0.3,3.6 0.4,5.4 0.6,9.5 0.7,19 0.3,28.5 h 26.1 c -0.3,-8.1 -0.8,-16.2 -1.7,-24.2 -0.1,-1.3 -0.3,-2.5 -0.4,-3.8 0,0 0,0 0,0 0,0 0,0 0,0 0.7,0.1 1.4,0.2 2.1,0.3 1.7,0.2 3.5,0.4 5.2,0.5 0.9,0.1 1.8,0.1 2.7,0.2 0.6,0 1.2,0.1 1.8,0.1 0,0 0,0 0,0 0.2,0 0.4,0 0.5,0.1 0.3,0.1 0.7,0.1 1,0.1 0.2,0 0.4,0 0.5,0 h 0.1 c 0.3,0 0.7,0 1,0 0.2,0 0.4,0 0.6,0 0.4,0 0.7,0 1,0 6,0 12,-0.4 17.6,-1.3 v 0 c 0.3,4.3 0.4,8.6 0.5,13 0.1,5.1 0,10.2 -0.1,15.2 h 26.1 c -0.4,-11.5 -1.4,-23.1 -3,-34.6 v 0 c 0,0 0,0 0,0 1.4,-0.6 2.7,-1.2 4,-1.8 0.6,-0.3 1.1,-0.6 1.7,-0.9 0.4,-0.2 0.8,-0.4 1.2,-0.6 13.7,-7.7 21.6,-18.7 22.6,-31.3 0,-0.4 0.1,-0.7 0.1,-1.1 v -0.1 c 0,-0.3 0,-0.6 0,-0.8 0.4,-0.8 0.4,-2.8 0.4,-2.8 z m -22.8,-19.4 c 6.2,4.8 10.5,10.4 12.1,16.3 h -14.9 c -0.4,-3.7 -1.3,-7.3 -2.5,-10.8 0,0 0,0 0,0 -1.5,-4.2 -3.6,-8.1 -6.2,-11.7 -0.3,-0.4 -0.6,-0.8 -0.9,-1.2 4.8,2.2 8.9,4.7 12.4,7.4 z m -10.9,11.5 c 0,0 0.1,0 0,0 v 0 c 0.6,1.6 1,3.2 1.3,4.9 h -6.5 c 0,0 0,0 0,0 h -11.9 c -0.1,-1.2 -0.2,-2.5 -0.3,-3.7 0,-0.2 0,-0.4 -0.1,-0.6 -0.1,-0.9 -0.2,-1.7 -0.3,-2.5 0,-0.2 -0.1,-0.5 -0.1,-0.7 -0.1,-0.4 -0.1,-0.9 -0.2,-1.3 0,-0.1 0,-0.2 -0.1,-0.3 -0.1,-0.4 -0.1,-0.7 -0.2,-1.1 0,-0.1 0,-0.3 -0.1,-0.4 -0.1,-0.4 -0.1,-0.8 -0.2,-1.2 -0.2,-0.8 -0.3,-1.6 -0.5,-2.4 -0.6,-2.5 -1.2,-4.9 -2,-7.2 -0.1,-0.3 -0.2,-0.7 -0.3,-1 0,-0.1 -0.1,-0.2 -0.1,-0.4 -0.5,-1.4 -1,-2.7 -1.6,-3.9 -0.1,-0.1 -0.1,-0.3 -0.2,-0.4 0,0 0,0 0,0 -0.2,-0.5 -0.5,-1 -0.7,-1.5 1,0.4 1.9,0.8 2.8,1.3 0.1,0.1 0.3,0.1 0.4,0.2 0.8,0.4 1.6,0.8 2.4,1.3 0.1,0 0.1,0.1 0.2,0.1 0.1,0 0.1,0.1 0.2,0.1 0.8,0.5 1.6,1 2.4,1.5 0,0 0.1,0.1 0.1,0.1 0,0 0.1,0 0.1,0.1 0.8,0.6 1.6,1.2 2.4,1.8 v 0 0 c 0,0 0,0 0,0 6.2,4.5 10.8,10.5 13.1,17.2 z m -72.9,31.1 c -0.6,-0.6 -1.2,-1.1 -1.8,-1.7 -0.4,-0.4 -0.8,-0.8 -1.2,-1.3 0,0 0,0 0,0 0,0 0,0 0,0 -0.3,-0.3 -0.5,-0.6 -0.8,-0.9 -0.1,-0.1 -0.2,-0.2 -0.3,-0.4 -0.3,-0.3 -0.6,-0.7 -0.9,-1 -0.6,-0.7 -1.1,-1.5 -1.6,-2.3 0,0 0,-0.1 -0.1,-0.1 -0.2,-0.3 -0.4,-0.6 -0.6,-0.9 -0.8,-1.3 -1.6,-2.7 -2.2,-4.1 0,0 0,0 0,0 0,0 0,0 0,0 -1.1,-2.4 -1.9,-4.9 -2.4,-7.4 h 18.4 c 0,0 0,0.1 0,0.1 0.1,1.1 0.2,2.2 0.3,3.3 0,0.4 0.1,0.8 0.1,1.2 0,0.2 0,0.3 0,0.5 0,0.4 0.1,0.8 0.1,1.3 0.1,0.5 0.1,0.9 0.2,1.4 0,0.3 0.1,0.6 0.1,0.8 0,0.3 0.1,0.6 0.1,0.9 0.1,0.4 0.1,0.8 0.2,1.2 0.1,0.3 0.1,0.7 0.2,1 0,0 0,0.1 0,0.1 0.1,0.3 0.1,0.6 0.2,0.9 0.1,0.4 0.1,0.8 0.2,1.1 0.3,1.2 0.6,2.4 0.9,3.6 0.1,0.6 0.3,1.1 0.5,1.7 0.2,0.6 0.3,1.1 0.5,1.7 0.1,0.4 0.3,0.9 0.4,1.3 0.1,0.3 0.2,0.6 0.3,0.8 0.1,0.4 0.3,0.8 0.4,1.1 0.1,0.3 0.2,0.5 0.3,0.8 0.1,0.2 0.1,0.3 0.2,0.5 0.1,0.3 0.2,0.6 0.4,0.8 0.1,0.3 0.3,0.7 0.4,1 0.2,0.5 0.5,1 0.7,1.4 0,0 0,0.1 0,0.1 -3.3,-1.4 -6.4,-3.1 -9.2,-5.1 -1.2,-1.1 -2.6,-2.2 -4,-3.4 z m -8.5,-40.2 c 0,0 0,0 0,0 0.4,-0.7 0.8,-1.3 1.2,-1.9 0.1,-0.1 0.1,-0.2 0.2,-0.3 0.4,-0.6 0.8,-1.2 1.3,-1.8 0.1,-0.2 0.3,-0.3 0.4,-0.5 0.1,-0.2 0.3,-0.3 0.4,-0.5 0.2,-0.2 0.4,-0.4 0.5,-0.6 0.4,-0.4 0.7,-0.8 1.1,-1.2 0.5,-0.5 1.1,-1.1 1.6,-1.5 0.2,-0.2 0.4,-0.3 0.5,-0.5 v 0 c 0.2,-0.2 0.4,-0.3 0.6,-0.5 0.4,-0.3 0.7,-0.6 1.1,-0.9 0,0 0,0 0,0 0,0 0,0 0,0 2,-1.5 4.1,-2.9 6.5,-4 1.8,-0.9 3.6,-1.7 5.5,-2.3 -1,2.1 -1.9,4.5 -2.7,7 -0.1,0.4 -0.2,0.8 -0.4,1.2 -1.3,4.6 -2.2,9.7 -2.6,15.1 0,0.3 0,0.6 -0.1,0.8 -0.1,1.8 -0.2,3.6 -0.2,5.4 0,0.3 0,0.6 0,0.8 h -18.8 c 0,-0.1 0,-0.2 0,-0.3 0,-0.4 0,-0.8 0.1,-1.1 0,-0.3 0,-0.5 0.1,-0.8 v 0 c 0.2,-2.3 0.7,-4.5 1.4,-6.7 0.6,-1.6 1.4,-3.3 2.3,-4.9 z m 18.3,13.9 c 0.1,-5.5 0.9,-10.6 2.3,-15.2 0.9,-2.9 2.1,-5.6 3.4,-7.9 3.4,-5.9 8.1,-9.5 13.4,-9.9 0.8,0 1.6,0 2.4,0.1 0.2,0 0.3,0 0.4,0.1 1.2,0.2 2.4,0.5 3.5,1 0.1,0 0.2,0.1 0.3,0.1 8.4,3.8 15,15.6 16.8,29.7 0.1,0.6 0.2,1.3 0.2,1.9 H 490 c 0,0 0,0 0,0 h -36.4 z m 13.8,-54.8 v 0 l 5.4,9.5 c 0.2,0.3 0.4,0.7 0.5,1 0,0 0,0 0,0 -0.1,0 -0.2,0 -0.3,0 h -0.1 c -0.3,0 -0.7,0 -1,0 -0.2,0 -0.4,0 -0.6,0 -0.1,0 -0.3,0 -0.4,0 -0.2,0 -0.4,0 -0.6,0 -9,0 -17.7,1 -25.7,2.8 -2.6,0.6 -5.1,1.3 -7.5,2 0,0 0,0 0,0 0,0 0,0 0,0 -0.6,-1.2 -1.3,-2.3 -1.9,-3.5 -1.6,-2.8 -3.1,-5.7 -4.8,-8.6 v 0 z m -69.1,-36.7 c 0,0 0,0 0,0 0,0 0,0 0,0 -6.1,-4.3 -10.3,-10.3 -11.5,-17 h 13.3 c 0.2,4.2 0.8,8.2 1.8,11.8 0.7,2.6 1.5,5.1 2.5,7.3 0.2,0.5 0.5,1.1 0.7,1.6 -1.6,-0.7 -3.1,-1.4 -4.5,-2.3 0,0 0,0 -0.1,0 -0.7,-0.4 -1.5,-0.9 -2.2,-1.4 z m -11.8,-1 c -0.4,-0.2 -0.8,-0.4 -1.2,-0.7 -0.7,-0.4 -1.3,-0.8 -1.9,-1.2 v 0 c -0.4,-0.3 -0.9,-0.6 -1.3,-0.8 -0.1,-0.1 -0.2,-0.1 -0.2,-0.2 -0.3,-0.2 -0.6,-0.4 -0.9,-0.7 -0.1,-0.1 -0.3,-0.2 -0.4,-0.3 -0.3,-0.2 -0.5,-0.4 -0.8,-0.6 -0.1,-0.1 -0.2,-0.2 -0.3,-0.3 -0.4,-0.3 -0.7,-0.6 -1.1,-0.9 -0.2,-0.1 -0.3,-0.3 -0.5,-0.4 -0.2,-0.2 -0.4,-0.3 -0.6,-0.5 -0.4,-0.4 -0.8,-0.8 -1.2,-1.2 0,0 0,0 0,0 -0.1,-0.1 -0.3,-0.3 -0.4,-0.4 -0.2,-0.2 -0.3,-0.4 -0.5,-0.5 -0.2,-0.1 -0.3,-0.4 -0.4,-0.5 -0.1,-0.1 -0.1,-0.1 -0.1,-0.2 0,0 -0.1,-0.1 -0.1,-0.1 -0.1,-0.1 -0.1,-0.2 -0.2,-0.3 -0.1,-0.1 -0.1,-0.2 -0.2,-0.2 -0.1,-0.1 -0.2,-0.3 -0.3,-0.4 -0.1,-0.1 -0.2,-0.3 -0.3,-0.4 0,0 0,0 0,-0.1 -0.1,-0.1 -0.2,-0.3 -0.3,-0.4 -0.1,-0.2 -0.2,-0.4 -0.3,-0.6 -0.1,-0.2 -0.2,-0.4 -0.3,-0.6 -0.3,-0.5 -0.6,-1.1 -0.8,-1.7 -0.1,-0.1 -0.1,-0.2 -0.1,-0.3 -0.1,-0.2 -0.2,-0.4 -0.2,-0.6 -0.1,-0.3 -0.2,-0.6 -0.3,-0.9 v 0 H 382 c 0.1,1.2 0.3,2.4 0.6,3.6 0,0 0,0 0,0 0,0 0,0 0,0 0.4,1.9 1,3.8 1.7,5.5 0.1,0.1 0.1,0.3 0.2,0.4 0.1,0.3 0.2,0.5 0.3,0.8 0.7,1.6 1.6,3.2 2.6,4.7 0.1,0.1 0.1,0.2 0.2,0.3 0,0.1 0.1,0.1 0.1,0.2 0.1,0.1 0.1,0.2 0.2,0.3 0,0 0,0 0,0.1 0.3,0.4 0.6,0.9 0.9,1.3 -0.4,-0.2 -0.7,-0.3 -1,-0.5 -0.5,-0.3 -0.9,-0.5 -1.3,-0.7 z m -5.8,-35.6 c 0.5,-0.3 1,-0.7 1.5,-1 1.1,-0.6 2.2,-1.2 3.4,-1.8 0,0 0,0 0,0 0,0 0,0 0,0 0.4,-0.2 0.8,-0.4 1.2,-0.5 0.3,-0.2 0.7,-0.3 1,-0.5 -0.1,0.1 -0.1,0.2 -0.2,0.3 -0.1,0.1 -0.1,0.2 -0.2,0.3 0,0.1 -0.1,0.1 -0.1,0.2 0,0.1 -0.1,0.1 -0.1,0.2 -0.1,0.1 -0.1,0.2 -0.1,0.2 -0.1,0.1 -0.2,0.3 -0.3,0.4 0,0 0,0 0,0 v 0 c -0.1,0.2 -0.3,0.4 -0.4,0.6 -0.7,1.2 -1.4,2.4 -1.9,3.7 -0.4,0.9 -0.7,1.8 -1,2.7 -0.8,2.4 -1.3,4.9 -1.6,7.4 -0.1,1 -0.2,1.9 -0.2,2.9 h -11.1 v -0.2 c 0,-0.3 0,-0.6 0.1,-0.9 0,-0.1 0,-0.2 0,-0.4 0,-0.2 0.1,-0.4 0.1,-0.6 0,-0.1 0,-0.3 0.1,-0.4 0.5,-2.4 1.5,-4.6 3.1,-6.6 1.7,-2.2 4,-4.2 6.7,-6 z m 21.8,19.6 h 30.9 v 0.2 c 0,1 -0.1,2.1 -0.2,3 0,0.1 0,0.1 0,0.2 v 0 c 0,0.1 0,0.2 0,0.2 -0.2,2.7 -0.7,5.1 -1.4,7.4 -0.7,2.2 -1.6,4.3 -2.7,6 -2.4,4 -5.8,6.5 -9.5,6.7 -0.6,0 -1.1,0 -1.7,0 v 0 c -0.1,0 -0.2,0 -0.3,-0.1 -7.7,-1.1 -13.9,-11.3 -15.1,-23.6 z m 29.7,20.3 c 0.5,-1.2 1,-2.5 1.3,-3.9 0.3,-0.8 0.5,-1.7 0.7,-2.6 0.6,-2.5 1,-5.1 1.2,-7.8 0,-0.2 0,-0.4 0.1,-0.5 v -0.1 c 0.1,-1.5 0.2,-3.1 0.2,-4.8 0,-0.2 0,-0.4 0,-0.6 h 13.6 c 0,0.1 0,0.1 0,0.2 0,0.1 0,0.2 0,0.2 -0.2,4.9 -2,9.3 -5,12.9 -0.2,0.3 -0.5,0.6 -0.7,0.8 -0.1,0.1 -0.2,0.2 -0.3,0.3 -1.5,1.6 -3.1,3 -5,4.2 -1.6,1.1 -3.3,2 -5.2,2.7 -0.6,0.2 -1.1,0.4 -1.7,0.6 0.3,-0.4 0.5,-1 0.8,-1.6 z m 32.9,-20 c -0.2,4 -2,7.8 -5.2,11 -1.2,1.3 -2.7,2.5 -4.3,3.6 -0.6,0.4 -1.3,0.9 -2,1.3 0,0 0,0 0,0 -0.7,0.4 -1.4,0.8 -2.1,1.1 0,0 0,0 0,0 -0.3,0.2 -0.6,0.3 -0.9,0.4 -0.4,0.2 -0.9,0.4 -1.3,0.6 -0.5,0.2 -0.9,0.4 -1.4,0.6 0.1,-0.1 0.1,-0.2 0.2,-0.3 0.2,-0.3 0.4,-0.6 0.6,-0.9 0.4,-0.6 0.8,-1.3 1.2,-2 1,-1.7 1.7,-3.6 2.4,-5.5 0.6,-1.8 1,-3.7 1.3,-5.6 0.3,-1.5 0.4,-3.1 0.4,-4.7 h 11.1 c 0.1,0.2 0,0.3 0,0.4 z m -0.4,-4.7 H 454 c -0.6,-5.6 -2.6,-10.9 -5.7,-15.4 -0.4,-0.6 -0.8,-1.1 -1.2,-1.7 9.2,4.4 15.7,10.4 17.6,17.1 z m -15.7,0 h -13.3 c -0.2,-2.6 -0.4,-5.1 -0.8,-7.5 -0.8,-4.3 -1.9,-8.3 -3.4,-11.7 -0.2,-0.5 -0.5,-1.1 -0.7,-1.6 9.5,4.2 16.5,12 18.2,20.8 z m -44.4,-12.5 c 0.3,-0.8 0.7,-1.6 1,-2.4 0.3,-0.6 0.6,-1.2 0.9,-1.7 0.1,-0.1 0.2,-0.3 0.3,-0.4 1.6,-2.6 3.6,-4.6 5.8,-5.7 1.2,-0.6 2.4,-0.9 3.6,-1 0.6,0 1.1,0 1.7,0.1 v 0 c 0.1,0 0.2,0 0.3,0 5.3,0.8 9.9,6 12.7,13.2 1.2,3.2 2,6.7 2.4,10.5 h -30.8 c 0,-0.4 0,-0.8 0,-1.3 0.2,-4.1 0.9,-7.9 2.1,-11.1 0,-0.1 0,-0.2 0,-0.2 z m -2.5,-8.6 c 0.8,-0.3 1.5,-0.6 2.3,-0.9 -0.3,0.7 -0.6,1.4 -0.9,2.1 -0.1,0.4 -0.3,0.7 -0.4,1.1 0,0.1 -0.1,0.2 -0.1,0.3 -0.1,0.3 -0.2,0.5 -0.3,0.8 -0.1,0.2 -0.1,0.4 -0.2,0.6 -0.1,0.2 -0.1,0.5 -0.2,0.7 -0.1,0.4 -0.3,0.8 -0.4,1.3 -0.1,0.3 -0.2,0.7 -0.2,1 -0.8,3.4 -1.3,7.2 -1.5,11.2 v 0 c 0,0.8 -0.1,1.5 -0.1,2.3 v 0.6 h -13.6 c 0,-0.1 0,-0.1 0,-0.2 0.1,-3.6 1.1,-6.9 2.7,-9.9 0.3,-0.5 0.6,-1 0.9,-1.4 1.5,-2.2 3.4,-4.2 5.6,-5.9 0.4,-0.4 0.9,-0.7 1.4,-1 0.1,-0.1 0.3,-0.2 0.4,-0.3 0,0 0.1,0 0.1,-0.1 0,0 0.1,-0.1 0.1,-0.1 0.3,-0.2 0.7,-0.4 1,-0.6 0.4,-0.2 0.8,-0.5 1.3,-0.7 0.1,0 0.1,-0.1 0.2,-0.1 0.6,-0.3 1.2,-0.5 1.9,-0.8 z M 296.2,344.8 v 0 0 c 0.1,0 0.2,0 0.3,0.1 0,0 0,0 0,-0.1 0,0 0,0 0,0 v 0 l 1.8,-0.1 h 0.3 l 1,-0.1 h 0.4 0.6 0.2 c 0,0 0,0 0,0 0,0 0,0 0,0 0,0 0,0 0,0.1 0,0 0,0 0,0 0.1,0.9 0.3,1.7 0.6,2.5 v 0 c 0.7,2.6 1.9,5 3.4,7.3 0.5,0.7 1,1.4 1.6,2.1 0,0 0,0 -0.1,0 0,0 0,0 0,0 -3.5,-1.5 -6.5,-3.3 -8.8,-5.4 -0.7,-0.6 -1.3,-1.3 -1.9,-1.9 -0.1,-0.1 -0.1,-0.1 -0.1,-0.2 -0.1,-0.2 -0.3,-0.4 -0.4,-0.6 0,-0.1 -0.1,-0.1 -0.1,-0.2 -0.5,-0.7 -1,-1.5 -1.3,-2.2 v 0 c -0.1,-0.3 -0.3,-0.5 -0.4,-0.9 -0.1,-0.1 -0.1,-0.2 -0.1,-0.3 z m 18,2.3 c 0,0.1 0,0.2 0.1,0.3 0.2,1.3 0.5,2.6 0.8,3.8 0.1,0.3 0.2,0.6 0.3,0.9 0.7,2.4 1.6,4.6 2.6,6.5 0,0 0,0.1 0.1,0.1 -0.3,-0.1 -0.7,-0.3 -1,-0.4 v 0 c -3.9,-1.6 -7.1,-4.1 -9.4,-7.1 -0.7,-0.9 -1.3,-1.8 -1.8,-2.7 -0.3,-0.6 -0.6,-1.2 -0.8,-1.8 -0.2,-0.4 -0.3,-0.9 -0.5,-1.3 v 0 c -0.1,-0.3 -0.2,-0.6 -0.3,-0.9 l 9.6,-0.4 v 0 c 0,1 0.2,2 0.3,3 z m 7.2,10.2 c 0,-0.1 -0.1,-0.1 -0.1,-0.2 -0.8,-0.9 -1.5,-1.8 -2.2,-3 -0.3,-0.6 -0.7,-1.2 -1,-1.8 0,0 0,0 0,-0.1 0,-0.1 -0.1,-0.1 -0.1,-0.2 -0.6,-1.3 -1.1,-2.7 -1.6,-4.2 0,-0.1 -0.1,-0.2 -0.1,-0.4 -0.3,-1.2 -0.6,-2.4 -0.7,-3.6 h 0.6 l 12.1,-0.5 4.8,-0.2 3.9,-0.2 h 0.7 v 0.2 c 0.1,1.6 0,3.1 -0.2,4.5 -0.2,1.6 -0.5,3.1 -1,4.5 -0.1,0.4 -0.2,0.7 -0.4,1 0,0.1 -0.1,0.1 -0.1,0.2 -0.1,0.3 -0.3,0.7 -0.4,1 -0.6,1.2 -1.3,2.4 -2.1,3.2 -1.2,1.4 -2.6,2.3 -4.1,2.7 -0.1,0 -0.1,0 -0.2,0.1 0,0 0,0 0,0 v 0 c -0.3,0.1 -0.5,0.1 -0.7,0.1 -0.4,0 -0.8,0 -1.2,0 -0.1,0 -0.2,0 -0.3,0 -2,-0.2 -3.9,-1.3 -5.6,-3.1 z m 16.7,-1.6 c 0,-0.1 0.1,-0.2 0.1,-0.3 0.1,-0.5 0.3,-1 0.4,-1.5 0,-0.1 0,-0.2 0.1,-0.2 0,-0.1 0,-0.2 0.1,-0.2 0,-0.1 0,-0.2 0.1,-0.3 0.2,-1.1 0.4,-2.2 0.5,-3.3 0.1,-0.5 0.1,-1 0.1,-1.5 0.1,-1.7 0.2,-3.4 0.1,-5.2 v -0.4 h 0.3 l 6.5,-0.3 1.5,-0.1 1.5,-0.1 c 0,0.1 0,0.1 0,0.2 0,1.4 -0.1,2.7 -0.5,4 -0.5,1.9 -1.3,3.7 -2.4,5.3 -0.9,1.2 -1.9,2.4 -3.2,3.4 0,0 0,0 0,0 -0.1,0.1 -0.1,0.1 -0.2,0.2 0,0 0,0 -0.1,0.1 0,0 0,0 0,0 0,0 0,0 0,0 0,0 0,0 0,0 0,0 -0.1,0 -0.1,0.1 0,0 0,0 0,0 -0.4,0.3 -0.9,0.7 -1.3,1 v 0 c -0.3,0.2 -0.6,0.4 -1,0.6 -1,0.6 -2.1,1.2 -3.3,1.6 0.1,-1 0.5,-2 0.8,-3.1 z M 360.5,342 c 0,3 -1.2,5.8 -3.5,8.3 -1.3,1.5 -3,2.8 -4.9,4 -0.2,0.1 -0.4,0.3 -0.6,0.4 -0.3,0.2 -0.5,0.3 -0.8,0.5 -0.6,0.3 -1.3,0.7 -1.9,1 v 0 c 0.2,-0.2 0.3,-0.5 0.4,-0.7 0,-0.1 0.1,-0.1 0.1,-0.2 0.1,-0.1 0.1,-0.2 0.2,-0.3 0,0 0,0 0,0 0.2,-0.3 0.4,-0.7 0.5,-1 0,-0.1 0.1,-0.1 0.1,-0.1 0.4,-0.8 0.7,-1.6 1,-2.5 0.4,-1 0.6,-2.1 0.9,-3.2 0.4,-1.9 0.6,-3.8 0.5,-5.8 l 5.6,-0.3 2.4,-0.1 c 0,-0.1 0,0 0,0 z m -4.8,-9.6 c 0.1,0 0.1,0.1 0.2,0.2 2,1.8 3.4,3.9 4.1,6.1 l -7.7,0.3 c 0,0 0,-0.1 0,-0.1 -0.1,-0.8 -0.3,-1.6 -0.5,-2.4 -1,-3.6 -2.7,-6.8 -5,-9.6 3.5,1.6 6.6,3.4 8.9,5.5 z m -20,-7.1 c 4,1.6 7.3,4.1 9.7,7.2 1.6,2 2.7,4.3 3.3,6.8 l -2,0.1 -1.9,0.1 -5.1,0.2 h -0.5 c -0.6,-5.7 -2.1,-10.8 -4.2,-14.6 0,0 0,-0.1 -0.1,-0.1 0.3,0 0.6,0.1 0.8,0.3 z m -11.2,-2.1 h 1.2 0.2 c 2.2,0.2 4.2,1.5 6,3.4 0,0 0.1,0.1 0.1,0.1 0.4,0.5 0.8,1 1.2,1.5 0.5,0.7 1,1.5 1.5,2.4 0,0 0,0 0,0 1.3,2.6 2.4,5.7 2.8,9.1 H 337 l -3.9,0.2 h -0.9 l -10.7,0.5 -5.4,0.3 h -0.7 c 0,-0.9 0,-1.8 0,-2.7 0.1,-1.3 0.2,-2.4 0.4,-3.6 0.4,-2.2 1.1,-4.2 1.9,-5.8 1.7,-3.1 4,-5.1 6.8,-5.4 z m -19.8,12.6 c 0.2,-0.5 0.3,-0.9 0.6,-1.4 0.4,-0.9 0.9,-1.7 1.5,-2.5 2.1,-3.1 5.3,-5.5 9.2,-7 -0.3,0.6 -0.5,1.2 -0.7,1.8 -0.1,0.2 -0.1,0.4 -0.2,0.6 -0.1,0.2 -0.1,0.4 -0.2,0.5 -0.5,1.8 -0.9,3.8 -1.1,6 -0.1,1.1 -0.2,2.3 -0.2,3.5 0,0.8 0,1.7 0,2.5 0,0.1 0,0.3 0,0.5 v 0.4 l -8.2,0.4 -1.5,0.1 V 341 c 0,-0.7 0,-1.4 0.1,-2.1 0,-0.1 0,-0.3 0.1,-0.4 0.1,-0.6 0.2,-1.1 0.3,-1.7 0.1,-0.3 0.2,-0.6 0.3,-1 z m -12.2,5.8 c 0,-0.3 0,-0.5 0,-0.8 0.2,-2.8 1.5,-5.5 3.8,-7.8 0.2,-0.2 0.4,-0.4 0.6,-0.7 0.2,-0.2 0.4,-0.4 0.6,-0.5 0.7,-0.6 1.5,-1.2 2.3,-1.8 1.3,-0.9 2.8,-1.7 4.4,-2.5 -0.7,1 -1.2,2.1 -1.7,3.2 -0.3,0.6 -0.5,1.1 -0.7,1.7 -0.1,0.2 -0.2,0.4 -0.2,0.6 -0.1,0.4 -0.2,0.7 -0.3,1.1 -0.1,0.3 -0.2,0.7 -0.2,1 -0.4,2 -0.6,4.1 -0.6,6.1 l -5.5,0.3 h -0.5 l -1.9,0.1 v 0 z m 43,28.8 c -2.9,-1.4 -5.9,-2.8 -8.9,-4.1 h 0.1 c 0.3,0 0.6,0 0.9,0 v 0 c 0.3,0 0.6,0 0.8,0 0.1,0 0.2,0 0.3,0 h 0.1 c 0.2,0 0.3,0 0.5,0 0.1,0 0.2,0 0.3,0 0.2,0 0.4,0 0.5,0 2.5,-0.1 4.9,-0.4 7.2,-0.7 3.5,-0.6 6.8,-1.4 9.8,-2.5 0.5,-0.2 0.9,-0.3 1.4,-0.5 1.1,-0.4 2.2,-0.9 3.2,-1.4 0.3,-0.1 0.6,-0.3 0.8,-0.4 0,0 0,0 0,0 2.6,1 5.2,2 7.8,3.1 3.3,1.4 6.5,2.8 9.7,4.3 l -33.6,3 c -0.2,-0.5 -0.6,-0.6 -0.9,-0.8 z m 10.7,5.5 28.2,-2.5 v 0 c -0.3,0.2 -0.6,0.5 -0.9,0.7 v 0 c -0.1,0.1 -0.2,0.1 -0.3,0.2 -2.1,1.8 -3.8,3.7 -5.3,5.8 -1.4,2 -2.5,4.2 -3.2,6.4 0,0.1 -0.1,0.2 -0.1,0.3 0,0 0,0 0,0 -4.7,-3.1 -9.4,-6 -14.3,-8.7 -1.3,-0.7 -2.7,-1.5 -4.1,-2.2 z m 66.1,53.8 c 0,0 0,0 0,0 v 0 c 1.4,0.1 2.8,0.2 4.2,0.3 0.4,0 0.9,0 1.3,0 0,0 0,0 0,0 0.2,0 0.3,0 0.4,0 0.2,0 0.4,0 0.7,0 0.1,0 0.3,0 0.4,0 h 0.1 c 0.2,0 0.5,0 0.7,0 0.1,0 0.3,0 0.5,0 0.2,0 0.5,0 0.7,0 6.7,0 13.2,-0.8 19.2,-2.2 0.9,-0.2 1.8,-0.4 2.7,-0.7 v 0 c 1,-0.3 2,-0.6 3,-0.9 0.7,-0.3 1.5,-0.5 2.2,-0.8 v 0 c 0,0 0,0 0,0 0.5,0.5 0.9,1.1 1.4,1.7 v 0 c 0.2,0.2 0.4,0.5 0.6,0.7 3.4,4.1 6.6,8.3 9.6,12.6 0,0 0,0 0,0 l -37,3.3 v 0 l -1,-1.5 c -0.3,-0.4 -0.6,-0.9 -1,-1.3 -2.7,-3.8 -5.6,-7.5 -8.7,-11.2 z m -2.7,76.6 c 0.2,-5.4 2.6,-10.4 6.7,-14.8 2,-2.2 4.5,-4.2 7.4,-6.1 0.8,-0.5 1.6,-1 2.5,-1.5 0.8,-0.5 1.7,-0.9 2.5,-1.3 0.2,-0.1 0.4,-0.2 0.7,-0.3 0.7,-0.3 1.3,-0.6 2,-1 0.7,-0.3 1.4,-0.6 2.2,-1 -0.3,0.4 -0.6,0.8 -0.8,1.2 -0.1,0.2 -0.2,0.3 -0.3,0.5 -0.2,0.2 -0.3,0.5 -0.5,0.7 0,0 0,0 0,0.1 0,0.1 -0.1,0.1 -0.1,0.2 -0.2,0.3 -0.4,0.6 -0.5,0.8 -0.1,0.2 -0.2,0.4 -0.3,0.7 -0.2,0.4 -0.4,0.7 -0.6,1.1 -0.1,0.2 -0.2,0.4 -0.3,0.6 -0.1,0.2 -0.2,0.4 -0.3,0.6 -0.2,0.4 -0.4,0.9 -0.6,1.3 -0.1,0.2 -0.2,0.3 -0.2,0.5 -0.1,0.2 -0.1,0.3 -0.2,0.5 -0.2,0.5 -0.4,1 -0.6,1.5 -0.1,0.2 -0.1,0.4 -0.2,0.6 0,0 0,0 0,0 -0.1,0.3 -0.2,0.7 -0.4,1.1 0,0.1 -0.1,0.2 -0.1,0.2 0,0 0,0 0,0 -0.1,0.3 -0.2,0.5 -0.2,0.8 -1.3,4.3 -2,8.8 -2.2,13.4 h -15.3 c -0.3,-0.2 -0.3,-0.3 -0.3,-0.4 z m 21,28 c -10.7,-5.8 -18.1,-13.4 -20.4,-21.6 h 14.9 c 0.9,8.3 4,15.9 8.7,22.5 0.3,0.4 0.6,0.8 0.9,1.2 -1.4,-0.7 -2.8,-1.3 -4.1,-2.1 z m 46.7,11.3 c -0.4,0 -0.9,0 -1.4,0 v 0 c -0.2,0 -0.5,0 -0.7,0 -0.1,0 -0.2,0 -0.3,0 v 0 c -0.2,0 -0.3,0 -0.4,-0.1 -2,-0.3 -4,-1.1 -5.9,-2.3 -3.6,-2.3 -6.9,-6.1 -9.4,-11 0,0 0,0 0,0 -5.1,-14.9 -4.3,-18.5 -4.6,-19.5 h 41.8 v 0.3 c 0,0.5 0,1 0,1.6 0,0.4 0,0.8 -0.1,1.2 0,0.1 0,0.2 0,0.3 0,0 0,0 0,0 0,0 0,0 0,0 0,0.3 0,0.6 -0.1,0.9 -0.1,0.9 -0.2,1.7 -0.3,2.5 0,0.3 -0.1,0.6 -0.1,0.9 -0.1,0.5 -0.1,0.9 -0.2,1.4 0,0.1 0,0.2 0,0.2 0,0 0,0 0,0.1 0,0.3 -0.1,0.5 -0.1,0.8 0,0.1 0,0.1 0,0.2 0,0.1 0,0.2 -0.1,0.3 0,0 0,0 0,0.1 -0.1,0.3 -0.1,0.6 -0.2,1 0,0 0,0 0,0 0,0 0,0 0,0 v 0 0 c 0,0 0,0.1 0,0.1 -0.2,0.9 -0.4,1.7 -0.7,2.5 0,0.1 -0.1,0.2 -0.1,0.3 0,0 0,0 0,0 -3.2,10.7 -9.6,17.8 -17.1,18.2 z m 16.4,-2.4 c 0.8,-1.6 1.4,-3.2 2.1,-5 0,0 0,0 0,0 0,0 0,-0.1 0,-0.1 0.1,-0.3 0.2,-0.6 0.3,-1 0.1,-0.3 0.2,-0.6 0.3,-0.9 0,0 0,-0.1 0,-0.1 0.1,-0.3 0.1,-0.5 0.2,-0.8 0.1,-0.4 0.2,-0.8 0.3,-1.2 0.1,-0.5 0.3,-1 0.4,-1.6 0,-0.2 0.1,-0.4 0.1,-0.6 0,0 0,-0.1 0,-0.1 0.2,-0.7 0.3,-1.4 0.5,-2.1 0.2,-0.7 0.3,-1.5 0.4,-2.3 0.1,-0.8 0.3,-1.6 0.4,-2.3 0.1,-0.7 0.2,-1.6 0.3,-2.4 0,-0.3 0.1,-0.6 0.1,-0.9 0,-0.1 0,-0.2 0,-0.4 0,-0.4 0.1,-0.8 0.1,-1.2 v -0.1 -0.1 c 0,-0.1 0,-0.2 0,-0.3 0,-0.2 0,-0.5 0,-0.7 0,-0.1 0,-0.1 0,-0.2 0,-0.2 0,-0.3 0,-0.5 0,-0.1 0,-0.2 0,-0.4 0,-0.2 0,-0.4 0,-0.5 0,-0.6 0.1,-1.2 0.1,-1.8 0,-0.7 0,-1.4 0.1,-2.1 0,-0.3 0,-0.5 0,-0.8 h 18.8 c 0,0.1 0,0.2 0,0.3 -0.1,3.7 -0.9,7.2 -2.2,10.5 0,0.1 -0.1,0.2 -0.2,0.3 v 0 c -0.2,0.4 -0.4,0.9 -0.6,1.3 -0.8,1.6 -1.7,3.2 -2.8,4.7 -0.2,0.3 -0.4,0.6 -0.7,0.9 -0.3,0.3 -0.5,0.7 -0.8,1 -0.1,0.1 -0.2,0.2 -0.3,0.3 -0.3,0.4 -0.7,0.8 -1,1.1 -0.1,0.1 -0.2,0.2 -0.3,0.3 -0.3,0.3 -0.5,0.5 -0.8,0.8 v 0 c -1.1,1.1 -2.4,2.1 -3.7,3 -0.6,0.4 -1.2,0.9 -1.9,1.3 -0.4,0.3 -0.9,0.6 -1.4,0.8 -1.7,1 -3.6,1.9 -5.5,2.7 -0.6,0.6 -1.4,0.9 -2.3,1.2 z M 540.4,513 c -0.3,8.3 -5.8,15.6 -14.6,21.3 -1.4,0.9 -2.9,1.7 -4.4,2.5 -0.8,0.4 -1.6,0.8 -2.4,1.2 0,0 0,0 0,0 0,0 0,0 0,0 -0.8,0.4 -1.6,0.7 -2.4,1 0.4,-0.5 0.8,-1.1 1.2,-1.7 0.3,-0.4 0.6,-0.9 0.8,-1.4 0,0 0,0 0,0 0,0 0,0 0,0 0,0 0,0 0,0 0.5,-0.9 1,-1.8 1.5,-2.7 0.8,-1.7 1.6,-3.4 2.2,-5.2 0.5,-1.5 1,-3 1.4,-4.6 0.9,-3.5 1.4,-7.2 1.5,-10.8 h 15.3 c -0.1,0.2 -0.1,0.3 -0.1,0.4 z" id="path22" style="fill:#3b4063"/>
      </g>
    </g>
  </g>
</svg>
