<?xml version="1.0" encoding="UTF-8"?>
<!DOCTYPE svg PUBLIC "-//W3C//DTD SVG 1.1//EN" "http://www.w3.org/Graphics/SVG/1.1/DTD/svg11.dtd">
<!-- Creator: CorelDRAW -->
<svg xmlns="http://www.w3.org/2000/svg" xml:space="preserve" width="130mm" height="50mm" style="shape-rendering:geometricPrecision; text-rendering:geometricPrecision; image-rendering:optimizeQuality; fill-rule:evenodd; clip-rule:evenodd"
viewBox="0 0 130 50"
 xmlns:xlink="http://www.w3.org/1999/xlink">
 <defs>
  <style type="text/css">
   <![CDATA[
    .str0 {stroke:#121613;stroke-width:0.13}
    .fil2 {fill:none}
    .fil3 {fill:#1F1A17;fill-rule:nonzero}
    .fil1 {fill:#0078AB;fill-rule:nonzero}
    .fil0 {fill:#F54029;fill-rule:nonzero}
   ]]>
  </style>
 </defs>
 <g id="Layer_x0020_1">
  <metadata id="CorelCorpID_0Corel-Layer"/>
  <g id="_152392584">
   <g>
    <path id="_152391984" class="fil0" d="M97.7655 26.4247l3.65 -15.2346 2.12 0 -3.6877 15.2346 -2.0823 0zm6.7031 -1.9176l0 -2.8438 7.0564 -2.7753 -7.0564 -2.7444 0 -2.8232 10.1129 4.3704 0 2.4116 -10.1129 4.4047z"/>
    <path id="_152389104" class="fil1" d="M49.9015 13.2227l3.005 0 2.5523 7.5779 2.4939 -7.5779 2.9228 0 -3.7667 10.2708 -0.6758 1.8593c-0.2469,0.6208 -0.4836,1.0977 -0.7066,1.427 -0.2264,0.3293 -0.4837,0.5935 -0.7753,0.7993 -0.2916,0.2025 -0.6484,0.3636 -1.0737,0.4768 -0.4254,0.1132 -0.9056,0.1716 -1.4442,0.1716 -0.5421,0 -1.0738,-0.0584 -1.5986,-0.1716l-0.2504 -2.2126c0.4425,0.0892 0.8404,0.1303 1.1972,0.1303 0.6552,0 1.1423,-0.1921 1.458,-0.5763 0.312,-0.3841 0.5557,-0.8748 0.7237,-1.4716l-4.0616 -10.703zm12.5245 11.3754l3.2247 0.391c0.0549,0.3773 0.1783,0.6346 0.3704,0.7753 0.2676,0.2024 0.693,0.3019 1.2659,0.3019 0.7376,0 1.2898,-0.1098 1.6603,-0.3327 0.2471,-0.1476 0.4357,-0.3843 0.5626,-0.7136 0.0858,-0.2332 0.1304,-0.6655 0.1304,-1.2967l0 -1.5574c-0.8439,1.1526 -1.9108,1.7289 -3.1972,1.7289 -1.4339,0 -2.5694,-0.6072 -3.4064,-1.8181 -0.6553,-0.9606 -0.9846,-2.1509 -0.9846,-3.578 0,-1.7907 0.4323,-3.156 1.2933,-4.1028 0.861,-0.9434 1.9313,-1.4168 3.2109,-1.4168 1.3173,0 2.4082,0.5798 3.2658,1.7392l0 -1.4956 2.6415 0 0 9.5778c0,1.259 -0.103,2.1989 -0.3122,2.8232 -0.2059,0.6244 -0.4974,1.1115 -0.8713,1.4683 -0.3774,0.3533 -0.8782,0.6312 -1.5026,0.8336 -0.6278,0.1989 -1.4202,0.3019 -2.3773,0.3019 -1.8113,0 -3.0942,-0.3122 -3.8489,-0.9297 -0.7582,-0.6209 -1.1355,-1.4065 -1.1355,-2.3568 0,-0.096 0.0033,-0.2092 0.0102,-0.3429zm2.5215 -6.2606c0,1.132 0.2195,1.9622 0.6585,2.487 0.4392,0.5249 0.9778,0.789 1.6227,0.789 0.6895,0 1.2727,-0.271 1.7495,-0.8095 0.4734,-0.5386 0.7136,-1.3379 0.7136,-2.3979 0,-1.1046 -0.2299,-1.9245 -0.6861,-2.4596 -0.4528,-0.5386 -1.0292,-0.8062 -1.7256,-0.8062 -0.6792,0 -1.2349,0.2641 -1.6741,0.789 -0.439,0.5283 -0.6585,1.3276 -0.6585,2.4082zm16.4902 2.1612l2.8164 0.4699c-0.3637,1.0326 -0.9332,1.8181 -1.7153,2.3567 -0.7787,0.5421 -1.7564,0.8097 -2.9296,0.8097 -1.8559,0 -3.2281,-0.6038 -4.1199,-1.8182 -0.7033,-0.9708 -1.0566,-2.1989 -1.0566,-3.6774 0,-1.7702 0.463,-3.1561 1.3893,-4.1578 0.9228,-1.0016 2.0926,-1.5025 3.506,-1.5025 1.5883,0 2.8404,0.5249 3.7597,1.5745 0.9159,1.0498 1.3551,2.6552 1.3173,4.8198l-7.0771 0c0.0207,0.8371 0.2471,1.4889 0.6827,1.952 0.4357,0.4666 0.9811,0.6998 1.6295,0.6998 0.4426,0 0.813,-0.12 1.1149,-0.3602 0.3019,-0.2436 0.5317,-0.6311 0.6827,-1.1663zm0.1612 -2.8542c-0.0206,-0.8198 -0.2298,-1.4408 -0.6312,-1.8662 -0.4014,-0.4254 -0.8919,-0.638 -1.4683,-0.638 -0.6175,0 -1.1251,0.2264 -1.5265,0.6758 -0.4014,0.4459 -0.6003,1.0565 -0.5935,1.8284l4.2195 0zm14.8161 6.2503l-2.8233 0 0 -5.4475c0,-1.1527 -0.0617,-1.8971 -0.1818,-2.2367 -0.1201,-0.3362 -0.319,-0.6003 -0.59,-0.789 -0.271,-0.1853 -0.597,-0.2813 -0.9777,-0.2813 -0.4906,0 -0.9296,0.1337 -1.3173,0.4013 -0.3877,0.271 -0.6553,0.6244 -0.7993,1.0669 -0.1441,0.4426 -0.2161,1.259 -0.2161,2.4528l0 4.8335 -2.8233 0 0 -10.6721 2.6209 0 0 1.5677c0.9331,-1.2075 2.1063,-1.8113 3.5197,-1.8113 0.6208,0 1.1937,0.1132 1.7083,0.3362 0.5146,0.2264 0.9057,0.5112 1.1698,0.861 0.2642,0.3499 0.4494,0.7445 0.5523,1.187 0.1063,0.4425 0.1578,1.0737 0.1578,1.897l0 6.6345z"/>
    <g>
     <path id="_152390160" class="fil2 str0" d="M113.287 10.5201c0.7145,0 1.2941,0.5795 1.2941,1.2941 0,0.7146 -0.5796,1.2941 -1.2941,1.2941 -0.7146,0 -1.2941,-0.5795 -1.2941,-1.2941 0,-0.7146 0.5795,-1.2941 1.2941,-1.2941z"/>
     <path id="_152389536" class="fil3" d="M114.008 12.6208l-0.2319 0 -0.152 -0.4314c-0.0272,-0.0765 -0.0723,-0.1389 -0.1356,-0.1875 -0.0632,-0.0482 -0.1362,-0.0727 -0.2182,-0.0727l-0.3961 0 0 0.6916 -0.2142 0 0 -1.6169 0.716 0c0.125,0 0.227,0.0121 0.3065,0.0365 0.0793,0.0241 0.1441,0.0753 0.1941,0.1532 0.0501,0.078 0.075,0.1657 0.075,0.2635 0,0.1119 -0.0324,0.2052 -0.0972,0.2801 -0.0648,0.0753 -0.1532,0.1239 -0.2657,0.1468l0 0.0046c0.1125,0.0357 0.1983,0.1332 0.257,0.2921l0.1623 0.4401zm-1.1338 -0.8836l0.4773 0c0.1332,0 0.2296,-0.0206 0.2894,-0.0629 0.0603,-0.0417 0.09,-0.1139 0.09,-0.2172 0,-0.1836 -0.1151,-0.2755 -0.3463,-0.2755l-0.5104 0 0 0.5556z"/>
    </g>
    <path id="_152391096" class="fil1" d="M23.2009 18.7396c0,-0.9365 0.2333,-1.8456 0.693,-2.7238 0.463,-0.8747 1.1182,-1.5471 1.9656,-2.0068 0.8472,-0.4631 1.7941,-0.6963 2.8404,-0.6963 1.6123,0 2.9364,0.5249 3.969,1.5745 1.0326,1.0497 1.5471,2.3739 1.5471,3.9759 0,1.6124 -0.5214,2.9502 -1.5608,4.0136 -1.0429,1.0635 -2.3533,1.5918 -3.9348,1.5918 -0.9811,0 -1.9107,-0.2196 -2.7992,-0.6621 -0.8884,-0.4426 -1.5643,-1.0908 -2.0273,-1.9451 -0.4597,-0.8541 -0.693,-1.8936 -0.693,-3.1217zm2.8953 0.1509c0,1.0601 0.2504,1.8697 0.7547,2.4322 0.5008,0.5627 1.1217,0.844 1.8593,0.844 0.7375,0 1.355,-0.2813 1.8524,-0.844 0.5009,-0.5625 0.7513,-1.3789 0.7513,-2.4527 0,-1.0428 -0.2504,-1.849 -0.7513,-2.4116 -0.4974,-0.5625 -1.1149,-0.8439 -1.8524,-0.8439 -0.7376,0 -1.3585,0.2814 -1.8593,0.8439 -0.5043,0.5626 -0.7547,1.3756 -0.7547,2.4321z"/>
    <polygon id="_152388912" class="fil0" points="21.8976,24.5037 11.795,20.1093 11.795,17.6771 21.8976,13.3067 21.8976,16.1711 14.8515,18.864 21.8976,21.6598 "/>
    <path id="_152392368" class="fil0" d="M49.5442 26.0446l-3.6261 2.445c-1.1771,-1.7693 -2.2174,-3.3252 -3.1207,-4.6678 -0.9033,-1.338 -1.5325,-2.2716 -1.8836,-2.7918 -2.1148,3.2497 -3.7629,5.6769 -4.9487,7.2862 -1.1816,1.6137 -2.2047,2.8317 -3.0652,3.6676 0,-0.1468 0.5822,-1.5915 1.7509,-4.3388 1.1645,-2.7429 2.6028,-6.0149 4.3066,-9.8202l-5.8306 -9.1398 3.0609 -0.6802c0.6164,1.2002 1.2456,2.445 1.8793,3.7431 0.6336,1.298 1.3784,2.8628 2.2346,4.6855 0.4581,-0.729 1.2543,-2.0539 2.3888,-3.9654 1.1302,-1.916 2.0121,-3.2674 2.6413,-4.0587 -0.8304,2.8584 -1.4554,4.9968 -1.8792,6.4192 -0.4196,1.4271 -0.8221,2.7429 -1.2073,3.961l7.299 7.2551z"/>
   </g>
   <polygon id="_152389896" class="fil3" points="73.868,34.7095 75.7669,31.8107 74.0465,29.1538 75.3568,29.1538 76.4718,30.9389 77.5623,29.1538 78.8623,29.1538 77.1341,31.8521 79.033,34.7095 77.68,34.7095 76.4486,32.7886 75.2133,34.7095 "/>
   <polygon id="_1523898961" class="fil3" points="79.5944,34.7095 79.5944,29.1538 81.2734,29.1538 82.2811,32.9438 83.2771,29.1538 84.96,29.1538 84.96,34.7095 83.9187,34.7095 83.9187,30.3361 82.8153,34.7095 81.7352,34.7095 80.6357,30.3361 80.6357,34.7095 "/>
   <polygon id="_15238989612" class="fil3" points="86.1047,34.7095 86.1047,29.1991 87.2262,29.1991 87.2262,33.773 90.015,33.773 90.015,34.7095 "/>
   <polygon id="_152389896123" class="fil3" points="92.8323,34.7095 92.8323,29.1538 96.9508,29.1538 96.9508,30.0942 93.9537,30.0942 93.9537,31.3257 96.7426,31.3257 96.7426,32.2609 93.9537,32.2609 93.9537,33.773 97.0569,33.773 97.0569,34.7095 "/>
   <path id="_1523898961234" class="fil3" d="M101.692 34.7095l-0.9882 0 0 -0.5911c-0.1643,0.2302 -0.3583,0.401 -0.5821,0.5135 -0.2238,0.1125 -0.4489,0.1681 -0.6765,0.1681 -0.4631,0 -0.8589,-0.1862 -1.1888,-0.5588 -0.3285,-0.3725 -0.4941,-0.8925 -0.4941,-1.5586 0,-0.683 0.1604,-1.2017 0.4812,-1.5561 0.3208,-0.3545 0.7269,-0.533 1.2172,-0.533 0.4488,0 0.8382,0.1876 1.1667,0.5614l0 -2.0011 1.0646 0 0 5.5557zm-2.8418 -2.0994c0,0.4295 0.0595,0.7399 0.1785,0.9326 0.1707,0.2769 0.4113,0.4166 0.7192,0.4166 0.2457,0 0.454,-0.1048 0.626,-0.3131 0.1708,-0.2082 0.2574,-0.52 0.2574,-0.9339 0,-0.4618 -0.0841,-0.7955 -0.2496,-0.9986 -0.1669,-0.2031 -0.3803,-0.3053 -0.6416,-0.3053 -0.2522,0 -0.4631,0.1009 -0.6338,0.3014 -0.1708,0.2005 -0.2561,0.5006 -0.2561,0.9003z"/>
   <path id="_15238989612345" class="fil3" d="M102.742 30.1395l0 -0.9857 1.0646 0 0 0.9857 -1.0646 0zm0 4.57l0 -4.0241 1.0646 0 0 4.0241 -1.0646 0z"/>
   <path id="_152389896123456" class="fil3" d="M106.743 30.6854l0 0.8485 -0.727 0 0 1.6221c0,0.3285 0.0065,0.52 0.0207,0.5743 0.0142,0.0543 0.0453,0.0983 0.0944,0.1345 0.0492,0.035 0.11,0.0531 0.1798,0.0531 0.0996,0 0.2419,-0.035 0.4295,-0.1022l0.0905 0.8252c-0.2483,0.1061 -0.5277,0.1591 -0.8421,0.1591 -0.1914,0 -0.3647,-0.0323 -0.5187,-0.0957 -0.1539,-0.0646 -0.2664,-0.1487 -0.3389,-0.2509 -0.0724,-0.1022 -0.1216,-0.2406 -0.15,-0.4152 -0.022,-0.1229 -0.0336,-0.3739 -0.0336,-0.7503l0 -1.754 -0.489 0 0 -0.8485 0.489 0 0 -0.8007 1.0684 -0.6209 0 1.4216 0.727 0z"/>
   <path id="_1523898961234567" class="fil3" d="M107.236 32.6399c0,-0.3532 0.088,-0.6959 0.2613,-1.0271 0.1747,-0.3298 0.4217,-0.5834 0.7412,-0.7567 0.3195,-0.1746 0.6765,-0.2626 1.0711,-0.2626 0.6079,0 1.1072,0.1979 1.4965,0.5938 0.3894,0.3958 0.5834,0.8951 0.5834,1.4991 0,0.608 -0.1966,1.1125 -0.5885,1.5135 -0.3933,0.4009 -0.8874,0.6001 -1.4837,0.6001 -0.3699,0 -0.7205,-0.0827 -1.0555,-0.2496 -0.335,-0.1669 -0.5898,-0.4113 -0.7645,-0.7334 -0.1733,-0.3221 -0.2613,-0.714 -0.2613,-1.1771zm1.0918 0.0569c0,0.3997 0.0944,0.705 0.2845,0.9171 0.1889,0.2121 0.423,0.3182 0.7011,0.3182 0.2781,0 0.511,-0.1061 0.6985,-0.3182 0.1889,-0.2121 0.2833,-0.52 0.2833,-0.9249 0,-0.3932 -0.0944,-0.6972 -0.2833,-0.9093 -0.1875,-0.2122 -0.4204,-0.3182 -0.6985,-0.3182 -0.2781,0 -0.5122,0.106 -0.7011,0.3182 -0.1901,0.2121 -0.2845,0.5187 -0.2845,0.9171z"/>
   <path id="_15238989612345678" class="fil3" d="M113.243 34.7095l-1.0646 0 0 -4.0241 0.9883 0 0 0.5717c0.1694,-0.2703 0.3221,-0.4488 0.4566,-0.5342 0.1358,-0.0854 0.2884,-0.1294 0.4605,-0.1294 0.2432,0 0.476,0.0673 0.7011,0.2018l-0.3299 0.9275c-0.1785,-0.1152 -0.3453,-0.1734 -0.4993,-0.1734 -0.15,0 -0.2755,0.0401 -0.379,0.1229 -0.1048,0.0815 -0.1849,0.2303 -0.2445,0.445 -0.0595,0.2147 -0.0892,0.6649 -0.0892,1.3491l0 1.2431z"/>
  </g>
 </g>
</svg>
